G04 EAGLE Gerber RS-274X export*
G75*
%MOMM*%
%FSLAX34Y34*%
%LPD*%
%IN*%
%IPPOS*%
%AMOC8*
5,1,8,0,0,1.08239X$1,22.5*%
G01*
%ADD10C,0.254000*%


D10*
X65000Y110000D02*
X110000Y110000D01*
X110000Y65000D01*
X800000Y65000D01*
X800000Y110000D01*
X845000Y110000D01*
X845000Y800000D01*
X800000Y800000D01*
X800000Y845000D01*
X110000Y845000D01*
X110000Y800000D01*
X65000Y800000D01*
X65000Y110000D01*
X528328Y668814D02*
X528250Y666442D01*
X528095Y664074D01*
X527863Y661713D01*
X527553Y659361D01*
X527166Y657020D01*
X526703Y654692D01*
X526165Y652382D01*
X525551Y650090D01*
X524862Y647819D01*
X524099Y645572D01*
X523263Y643352D01*
X522355Y641159D01*
X521376Y638998D01*
X520327Y636870D01*
X519208Y634777D01*
X518022Y632723D01*
X516769Y630708D01*
X515450Y628735D01*
X514068Y626806D01*
X512624Y624924D01*
X511119Y623089D01*
X509554Y621305D01*
X507932Y619574D01*
X506254Y617896D01*
X504523Y616274D01*
X502739Y614709D01*
X500904Y613204D01*
X499022Y611760D01*
X497093Y610378D01*
X495120Y609059D01*
X493105Y607806D01*
X491051Y606620D01*
X488958Y605501D01*
X486830Y604452D01*
X484669Y603473D01*
X482476Y602565D01*
X480256Y601729D01*
X478009Y600966D01*
X475738Y600277D01*
X473446Y599663D01*
X471136Y599125D01*
X468808Y598662D01*
X466467Y598275D01*
X464115Y597965D01*
X461754Y597733D01*
X459386Y597578D01*
X457014Y597500D01*
X454642Y597500D01*
X452270Y597578D01*
X449902Y597733D01*
X447541Y597965D01*
X445189Y598275D01*
X442848Y598662D01*
X440520Y599125D01*
X438210Y599663D01*
X435918Y600277D01*
X433647Y600966D01*
X431400Y601729D01*
X429180Y602565D01*
X426987Y603473D01*
X424826Y604452D01*
X422698Y605501D01*
X420605Y606620D01*
X418551Y607806D01*
X416536Y609059D01*
X414563Y610378D01*
X412634Y611760D01*
X410752Y613204D01*
X408917Y614709D01*
X407133Y616274D01*
X405402Y617896D01*
X403724Y619574D01*
X402102Y621305D01*
X400537Y623089D01*
X399032Y624924D01*
X397588Y626806D01*
X396206Y628735D01*
X394887Y630708D01*
X393634Y632723D01*
X392448Y634777D01*
X391329Y636870D01*
X390280Y638998D01*
X389301Y641159D01*
X388393Y643352D01*
X387557Y645572D01*
X386794Y647819D01*
X386105Y650090D01*
X385491Y652382D01*
X384953Y654692D01*
X384490Y657020D01*
X384103Y659361D01*
X383793Y661713D01*
X383561Y664074D01*
X383406Y666442D01*
X383328Y668814D01*
X383328Y671186D01*
X383406Y673558D01*
X383561Y675926D01*
X383793Y678287D01*
X384103Y680639D01*
X384490Y682980D01*
X384953Y685308D01*
X385491Y687618D01*
X386105Y689910D01*
X386794Y692181D01*
X387557Y694428D01*
X388393Y696648D01*
X389301Y698841D01*
X390280Y701002D01*
X391329Y703130D01*
X392448Y705223D01*
X393634Y707277D01*
X394887Y709292D01*
X396206Y711265D01*
X397588Y713194D01*
X399032Y715076D01*
X400537Y716911D01*
X402102Y718695D01*
X403724Y720426D01*
X405402Y722104D01*
X407133Y723726D01*
X408917Y725291D01*
X410752Y726796D01*
X412634Y728240D01*
X414563Y729622D01*
X416536Y730941D01*
X418551Y732194D01*
X420605Y733380D01*
X422698Y734499D01*
X424826Y735548D01*
X426987Y736527D01*
X429180Y737435D01*
X431400Y738271D01*
X433647Y739034D01*
X435918Y739723D01*
X438210Y740337D01*
X440520Y740875D01*
X442848Y741338D01*
X445189Y741725D01*
X447541Y742035D01*
X449902Y742267D01*
X452270Y742422D01*
X454642Y742500D01*
X457014Y742500D01*
X459386Y742422D01*
X461754Y742267D01*
X464115Y742035D01*
X466467Y741725D01*
X468808Y741338D01*
X471136Y740875D01*
X473446Y740337D01*
X475738Y739723D01*
X478009Y739034D01*
X480256Y738271D01*
X482476Y737435D01*
X484669Y736527D01*
X486830Y735548D01*
X488958Y734499D01*
X491051Y733380D01*
X493105Y732194D01*
X495120Y730941D01*
X497093Y729622D01*
X499022Y728240D01*
X500904Y726796D01*
X502739Y725291D01*
X504523Y723726D01*
X506254Y722104D01*
X507932Y720426D01*
X509554Y718695D01*
X511119Y716911D01*
X512624Y715076D01*
X514068Y713194D01*
X515450Y711265D01*
X516769Y709292D01*
X518022Y707277D01*
X519208Y705223D01*
X520327Y703130D01*
X521376Y701002D01*
X522355Y698841D01*
X523263Y696648D01*
X524099Y694428D01*
X524862Y692181D01*
X525551Y689910D01*
X526165Y687618D01*
X526703Y685308D01*
X527166Y682980D01*
X527553Y680639D01*
X527863Y678287D01*
X528095Y675926D01*
X528250Y673558D01*
X528328Y671186D01*
X528328Y668814D01*
X528328Y238814D02*
X528250Y236442D01*
X528095Y234074D01*
X527863Y231713D01*
X527553Y229361D01*
X527166Y227020D01*
X526703Y224692D01*
X526165Y222382D01*
X525551Y220090D01*
X524862Y217819D01*
X524099Y215572D01*
X523263Y213352D01*
X522355Y211159D01*
X521376Y208998D01*
X520327Y206870D01*
X519208Y204777D01*
X518022Y202723D01*
X516769Y200708D01*
X515450Y198735D01*
X514068Y196806D01*
X512624Y194924D01*
X511119Y193089D01*
X509554Y191305D01*
X507932Y189574D01*
X506254Y187896D01*
X504523Y186274D01*
X502739Y184709D01*
X500904Y183204D01*
X499022Y181760D01*
X497093Y180378D01*
X495120Y179059D01*
X493105Y177806D01*
X491051Y176620D01*
X488958Y175501D01*
X486830Y174452D01*
X484669Y173473D01*
X482476Y172565D01*
X480256Y171729D01*
X478009Y170966D01*
X475738Y170277D01*
X473446Y169663D01*
X471136Y169125D01*
X468808Y168662D01*
X466467Y168275D01*
X464115Y167965D01*
X461754Y167733D01*
X459386Y167578D01*
X457014Y167500D01*
X454642Y167500D01*
X452270Y167578D01*
X449902Y167733D01*
X447541Y167965D01*
X445189Y168275D01*
X442848Y168662D01*
X440520Y169125D01*
X438210Y169663D01*
X435918Y170277D01*
X433647Y170966D01*
X431400Y171729D01*
X429180Y172565D01*
X426987Y173473D01*
X424826Y174452D01*
X422698Y175501D01*
X420605Y176620D01*
X418551Y177806D01*
X416536Y179059D01*
X414563Y180378D01*
X412634Y181760D01*
X410752Y183204D01*
X408917Y184709D01*
X407133Y186274D01*
X405402Y187896D01*
X403724Y189574D01*
X402102Y191305D01*
X400537Y193089D01*
X399032Y194924D01*
X397588Y196806D01*
X396206Y198735D01*
X394887Y200708D01*
X393634Y202723D01*
X392448Y204777D01*
X391329Y206870D01*
X390280Y208998D01*
X389301Y211159D01*
X388393Y213352D01*
X387557Y215572D01*
X386794Y217819D01*
X386105Y220090D01*
X385491Y222382D01*
X384953Y224692D01*
X384490Y227020D01*
X384103Y229361D01*
X383793Y231713D01*
X383561Y234074D01*
X383406Y236442D01*
X383328Y238814D01*
X383328Y241186D01*
X383406Y243558D01*
X383561Y245926D01*
X383793Y248287D01*
X384103Y250639D01*
X384490Y252980D01*
X384953Y255308D01*
X385491Y257618D01*
X386105Y259910D01*
X386794Y262181D01*
X387557Y264428D01*
X388393Y266648D01*
X389301Y268841D01*
X390280Y271002D01*
X391329Y273130D01*
X392448Y275223D01*
X393634Y277277D01*
X394887Y279292D01*
X396206Y281265D01*
X397588Y283194D01*
X399032Y285076D01*
X400537Y286911D01*
X402102Y288695D01*
X403724Y290426D01*
X405402Y292104D01*
X407133Y293726D01*
X408917Y295291D01*
X410752Y296796D01*
X412634Y298240D01*
X414563Y299622D01*
X416536Y300941D01*
X418551Y302194D01*
X420605Y303380D01*
X422698Y304499D01*
X424826Y305548D01*
X426987Y306527D01*
X429180Y307435D01*
X431400Y308271D01*
X433647Y309034D01*
X435918Y309723D01*
X438210Y310337D01*
X440520Y310875D01*
X442848Y311338D01*
X445189Y311725D01*
X447541Y312035D01*
X449902Y312267D01*
X452270Y312422D01*
X454642Y312500D01*
X457014Y312500D01*
X459386Y312422D01*
X461754Y312267D01*
X464115Y312035D01*
X466467Y311725D01*
X468808Y311338D01*
X471136Y310875D01*
X473446Y310337D01*
X475738Y309723D01*
X478009Y309034D01*
X480256Y308271D01*
X482476Y307435D01*
X484669Y306527D01*
X486830Y305548D01*
X488958Y304499D01*
X491051Y303380D01*
X493105Y302194D01*
X495120Y300941D01*
X497093Y299622D01*
X499022Y298240D01*
X500904Y296796D01*
X502739Y295291D01*
X504523Y293726D01*
X506254Y292104D01*
X507932Y290426D01*
X509554Y288695D01*
X511119Y286911D01*
X512624Y285076D01*
X514068Y283194D01*
X515450Y281265D01*
X516769Y279292D01*
X518022Y277277D01*
X519208Y275223D01*
X520327Y273130D01*
X521376Y271002D01*
X522355Y268841D01*
X523263Y266648D01*
X524099Y264428D01*
X524862Y262181D01*
X525551Y259910D01*
X526165Y257618D01*
X526703Y255308D01*
X527166Y252980D01*
X527553Y250639D01*
X527863Y248287D01*
X528095Y245926D01*
X528250Y243558D01*
X528328Y241186D01*
X528328Y238814D01*
X344106Y539181D02*
X345578Y538243D01*
X347008Y537242D01*
X348393Y536179D01*
X349730Y535057D01*
X351017Y533878D01*
X352251Y532644D01*
X353431Y531357D01*
X354553Y530019D01*
X355615Y528635D01*
X356617Y527205D01*
X357555Y525732D01*
X358427Y524221D01*
X359233Y522672D01*
X359971Y521090D01*
X360639Y519478D01*
X361236Y517837D01*
X361761Y516172D01*
X362213Y514486D01*
X362591Y512782D01*
X362894Y511063D01*
X363122Y509332D01*
X363274Y507593D01*
X363350Y505849D01*
X363350Y504104D01*
X363274Y502360D01*
X363122Y500621D01*
X362894Y498890D01*
X362591Y497171D01*
X362213Y495467D01*
X361761Y493781D01*
X361236Y492116D01*
X360639Y490476D01*
X359971Y488863D01*
X359233Y487281D01*
X358427Y485732D01*
X357555Y484221D01*
X356617Y482748D01*
X355615Y481319D01*
X354553Y479934D01*
X353431Y478596D01*
X352251Y477309D01*
X351017Y476075D01*
X349730Y474896D01*
X348393Y473774D01*
X347008Y472711D01*
X345578Y471710D01*
X344106Y470772D01*
X342594Y469899D01*
X341046Y469093D01*
X339464Y468355D01*
X337851Y467687D01*
X336211Y467090D01*
X334546Y466565D01*
X332860Y466114D01*
X331155Y465736D01*
X329436Y465433D01*
X327706Y465205D01*
X325967Y465053D01*
X324223Y464977D01*
X322477Y464977D01*
X320733Y465053D01*
X318994Y465205D01*
X317264Y465433D01*
X315545Y465736D01*
X313840Y466114D01*
X312154Y466565D01*
X310489Y467090D01*
X308849Y467687D01*
X307236Y468355D01*
X305654Y469093D01*
X304106Y469899D01*
X302594Y470772D01*
X301122Y471710D01*
X299692Y472711D01*
X298307Y473774D01*
X296970Y474896D01*
X295683Y476075D01*
X294449Y477309D01*
X293269Y478596D01*
X292147Y479934D01*
X291085Y481319D01*
X290083Y482748D01*
X289145Y484221D01*
X288273Y485732D01*
X287467Y487281D01*
X286729Y488863D01*
X286061Y490476D01*
X285464Y492116D01*
X284939Y493781D01*
X284487Y495467D01*
X284109Y497171D01*
X283806Y498890D01*
X283578Y500621D01*
X283426Y502360D01*
X283350Y504104D01*
X283350Y505849D01*
X283426Y507593D01*
X283578Y509332D01*
X283806Y511063D01*
X284109Y512782D01*
X284487Y514486D01*
X284939Y516172D01*
X285464Y517837D01*
X286061Y519478D01*
X286729Y521090D01*
X287467Y522672D01*
X288273Y524221D01*
X289145Y525732D01*
X290083Y527205D01*
X291085Y528635D01*
X292147Y530019D01*
X293269Y531357D01*
X294449Y532644D01*
X295683Y533878D01*
X296970Y535057D01*
X298307Y536179D01*
X299692Y537242D01*
X301122Y538243D01*
X302594Y539181D01*
X304106Y540054D01*
X305654Y540860D01*
X307236Y541598D01*
X308849Y542266D01*
X310489Y542863D01*
X312154Y543388D01*
X313840Y543840D01*
X315545Y544217D01*
X317264Y544520D01*
X318994Y544748D01*
X320733Y544900D01*
X322477Y544977D01*
X324223Y544977D01*
X325967Y544900D01*
X327706Y544748D01*
X329436Y544520D01*
X331155Y544217D01*
X332860Y543840D01*
X334546Y543388D01*
X336211Y542863D01*
X337851Y542266D01*
X339464Y541598D01*
X341046Y540860D01*
X342594Y540054D01*
X344106Y539181D01*
X250356Y485055D02*
X251828Y484117D01*
X253258Y483115D01*
X254643Y482053D01*
X255980Y480931D01*
X257267Y479751D01*
X258501Y478517D01*
X259681Y477230D01*
X260803Y475893D01*
X261865Y474508D01*
X262867Y473078D01*
X263805Y471606D01*
X264677Y470094D01*
X265483Y468546D01*
X266221Y466964D01*
X266889Y465351D01*
X267486Y463711D01*
X268011Y462046D01*
X268463Y460360D01*
X268841Y458655D01*
X269144Y456936D01*
X269372Y455206D01*
X269524Y453467D01*
X269600Y451723D01*
X269600Y449977D01*
X269524Y448233D01*
X269372Y446494D01*
X269144Y444764D01*
X268841Y443045D01*
X268463Y441340D01*
X268011Y439654D01*
X267486Y437989D01*
X266889Y436349D01*
X266221Y434736D01*
X265483Y433154D01*
X264677Y431606D01*
X263805Y430094D01*
X262867Y428622D01*
X261865Y427192D01*
X260803Y425807D01*
X259681Y424470D01*
X258501Y423183D01*
X257267Y421949D01*
X255980Y420769D01*
X254643Y419647D01*
X253258Y418585D01*
X251828Y417583D01*
X250356Y416645D01*
X248844Y415773D01*
X247296Y414967D01*
X245714Y414229D01*
X244101Y413561D01*
X242461Y412964D01*
X240796Y412439D01*
X239110Y411987D01*
X237405Y411609D01*
X235686Y411306D01*
X233956Y411078D01*
X232217Y410926D01*
X230473Y410850D01*
X228727Y410850D01*
X226983Y410926D01*
X225244Y411078D01*
X223514Y411306D01*
X221795Y411609D01*
X220090Y411987D01*
X218404Y412439D01*
X216739Y412964D01*
X215099Y413561D01*
X213486Y414229D01*
X211904Y414967D01*
X210356Y415773D01*
X208844Y416645D01*
X207372Y417583D01*
X205942Y418585D01*
X204557Y419647D01*
X203220Y420769D01*
X201933Y421949D01*
X200699Y423183D01*
X199519Y424470D01*
X198397Y425807D01*
X197335Y427192D01*
X196333Y428622D01*
X195395Y430094D01*
X194523Y431606D01*
X193717Y433154D01*
X192979Y434736D01*
X192311Y436349D01*
X191714Y437989D01*
X191189Y439654D01*
X190737Y441340D01*
X190359Y443045D01*
X190056Y444764D01*
X189828Y446494D01*
X189676Y448233D01*
X189600Y449977D01*
X189600Y451723D01*
X189676Y453467D01*
X189828Y455206D01*
X190056Y456936D01*
X190359Y458655D01*
X190737Y460360D01*
X191189Y462046D01*
X191714Y463711D01*
X192311Y465351D01*
X192979Y466964D01*
X193717Y468546D01*
X194523Y470094D01*
X195395Y471606D01*
X196333Y473078D01*
X197335Y474508D01*
X198397Y475893D01*
X199519Y477230D01*
X200699Y478517D01*
X201933Y479751D01*
X203220Y480931D01*
X204557Y482053D01*
X205942Y483115D01*
X207372Y484117D01*
X208844Y485055D01*
X210356Y485927D01*
X211904Y486733D01*
X213486Y487471D01*
X215099Y488139D01*
X216739Y488736D01*
X218404Y489261D01*
X220090Y489713D01*
X221795Y490091D01*
X223514Y490394D01*
X225244Y490622D01*
X226983Y490774D01*
X228727Y490850D01*
X230473Y490850D01*
X232217Y490774D01*
X233956Y490622D01*
X235686Y490394D01*
X237405Y490091D01*
X239110Y489713D01*
X240796Y489261D01*
X242461Y488736D01*
X244101Y488139D01*
X245714Y487471D01*
X247296Y486733D01*
X248844Y485927D01*
X250356Y485055D01*
X344106Y430928D02*
X345578Y429990D01*
X347008Y428989D01*
X348393Y427926D01*
X349730Y426804D01*
X351017Y425625D01*
X352251Y424391D01*
X353431Y423104D01*
X354553Y421766D01*
X355615Y420381D01*
X356617Y418952D01*
X357555Y417479D01*
X358427Y415968D01*
X359233Y414419D01*
X359971Y412837D01*
X360639Y411224D01*
X361236Y409584D01*
X361761Y407919D01*
X362213Y406233D01*
X362591Y404529D01*
X362894Y402810D01*
X363122Y401079D01*
X363274Y399340D01*
X363350Y397596D01*
X363350Y395851D01*
X363274Y394107D01*
X363122Y392368D01*
X362894Y390637D01*
X362591Y388918D01*
X362213Y387214D01*
X361761Y385528D01*
X361236Y383863D01*
X360639Y382222D01*
X359971Y380610D01*
X359233Y379028D01*
X358427Y377479D01*
X357555Y375968D01*
X356617Y374495D01*
X355615Y373065D01*
X354553Y371681D01*
X353431Y370343D01*
X352251Y369056D01*
X351017Y367822D01*
X349730Y366643D01*
X348393Y365521D01*
X347008Y364458D01*
X345578Y363457D01*
X344106Y362519D01*
X342594Y361646D01*
X341046Y360840D01*
X339464Y360102D01*
X337851Y359434D01*
X336211Y358837D01*
X334546Y358312D01*
X332860Y357860D01*
X331155Y357483D01*
X329436Y357180D01*
X327706Y356952D01*
X325967Y356800D01*
X324223Y356723D01*
X322477Y356723D01*
X320733Y356800D01*
X318994Y356952D01*
X317264Y357180D01*
X315545Y357483D01*
X313840Y357860D01*
X312154Y358312D01*
X310489Y358837D01*
X308849Y359434D01*
X307236Y360102D01*
X305654Y360840D01*
X304106Y361646D01*
X302594Y362519D01*
X301122Y363457D01*
X299692Y364458D01*
X298307Y365521D01*
X296970Y366643D01*
X295683Y367822D01*
X294449Y369056D01*
X293269Y370343D01*
X292147Y371681D01*
X291085Y373065D01*
X290083Y374495D01*
X289145Y375968D01*
X288273Y377479D01*
X287467Y379028D01*
X286729Y380610D01*
X286061Y382222D01*
X285464Y383863D01*
X284939Y385528D01*
X284487Y387214D01*
X284109Y388918D01*
X283806Y390637D01*
X283578Y392368D01*
X283426Y394107D01*
X283350Y395851D01*
X283350Y397596D01*
X283426Y399340D01*
X283578Y401079D01*
X283806Y402810D01*
X284109Y404529D01*
X284487Y406233D01*
X284939Y407919D01*
X285464Y409584D01*
X286061Y411224D01*
X286729Y412837D01*
X287467Y414419D01*
X288273Y415968D01*
X289145Y417479D01*
X290083Y418952D01*
X291085Y420381D01*
X292147Y421766D01*
X293269Y423104D01*
X294449Y424391D01*
X295683Y425625D01*
X296970Y426804D01*
X298307Y427926D01*
X299692Y428989D01*
X301122Y429990D01*
X302594Y430928D01*
X304106Y431801D01*
X305654Y432607D01*
X307236Y433345D01*
X308849Y434013D01*
X310489Y434610D01*
X312154Y435135D01*
X313840Y435586D01*
X315545Y435964D01*
X317264Y436267D01*
X318994Y436495D01*
X320733Y436647D01*
X322477Y436723D01*
X324223Y436723D01*
X325967Y436647D01*
X327706Y436495D01*
X329436Y436267D01*
X331155Y435964D01*
X332860Y435586D01*
X334546Y435135D01*
X336211Y434610D01*
X337851Y434013D01*
X339464Y433345D01*
X341046Y432607D01*
X342594Y431801D01*
X344106Y430928D01*
M02*
