G04 EAGLE Gerber RS-274X export*
G75*
%MOMM*%
%FSLAX34Y34*%
%LPD*%
%INSilkscreen Bottom*%
%IPPOS*%
%AMOC8*
5,1,8,0,0,1.08239X$1,22.5*%
G01*
%ADD10R,0.355600X0.025400*%
%ADD11R,0.228600X0.025400*%
%ADD12R,0.533400X0.025400*%
%ADD13R,0.177800X0.025400*%
%ADD14R,0.558800X0.025400*%
%ADD15R,0.965200X0.025400*%
%ADD16R,0.508000X0.025400*%
%ADD17R,0.152400X0.025400*%
%ADD18R,0.101600X0.025400*%
%ADD19R,0.914400X0.025400*%
%ADD20R,0.330200X0.025400*%
%ADD21R,0.127000X0.025400*%
%ADD22R,0.635000X0.025400*%
%ADD23R,0.203200X0.025400*%
%ADD24R,0.660400X0.025400*%
%ADD25R,0.990600X0.025400*%
%ADD26R,0.939800X0.025400*%
%ADD27R,0.431800X0.025400*%
%ADD28R,0.406400X0.025400*%
%ADD29R,0.736600X0.025400*%
%ADD30R,0.482600X0.025400*%
%ADD31R,0.457200X0.025400*%
%ADD32R,0.812800X0.025400*%
%ADD33R,0.762000X0.025400*%
%ADD34R,0.787400X0.025400*%
%ADD35R,0.838200X0.025400*%
%ADD36R,0.863600X0.025400*%
%ADD37R,0.076200X0.025400*%
%ADD38R,0.584200X0.025400*%
%ADD39R,0.889000X0.025400*%
%ADD40R,0.279400X0.025400*%
%ADD41R,0.304800X0.025400*%
%ADD42R,0.381000X0.025400*%
%ADD43R,0.254000X0.025400*%
%ADD44R,0.050800X0.025400*%
%ADD45R,0.025400X0.025400*%
%ADD46R,1.041400X0.025400*%
%ADD47R,0.711200X0.025400*%
%ADD48R,0.685800X0.025400*%
%ADD49R,0.609600X0.025400*%
%ADD50R,1.219200X0.025400*%
%ADD51R,1.193800X0.025400*%
%ADD52R,1.270000X0.025400*%
%ADD53R,1.346200X0.025400*%
%ADD54R,1.295400X0.025400*%
%ADD55R,1.016000X0.025400*%
%ADD56R,1.092200X0.025400*%
%ADD57R,1.143000X0.025400*%
%ADD58R,1.168400X0.025400*%
%ADD59R,1.066800X0.025400*%
%ADD60R,1.244600X0.025400*%
%ADD61R,1.320800X0.025400*%
%ADD62R,1.371600X0.025400*%
%ADD63R,1.397000X0.025400*%
%ADD64R,1.549400X0.025400*%
%ADD65R,1.117600X0.025400*%
%ADD66R,1.422400X0.025400*%
%ADD67R,1.752600X0.025400*%
%ADD68R,2.006600X0.025400*%
%ADD69R,2.235200X0.025400*%
%ADD70R,2.438400X0.025400*%
%ADD71R,2.641600X0.025400*%
%ADD72R,1.447800X0.025400*%
%ADD73R,1.473200X0.025400*%
%ADD74R,1.498600X0.025400*%
%ADD75R,1.574800X0.025400*%
%ADD76R,1.600200X0.025400*%
%ADD77R,1.651000X0.025400*%
%ADD78R,1.676400X0.025400*%
%ADD79R,1.727200X0.025400*%
%ADD80R,1.803400X0.025400*%
%ADD81R,1.828800X0.025400*%
%ADD82R,1.879600X0.025400*%
%ADD83R,1.905000X0.025400*%
%ADD84R,1.930400X0.025400*%
%ADD85R,1.955800X0.025400*%
%ADD86R,1.981200X0.025400*%
%ADD87R,2.032000X0.025400*%
%ADD88R,2.057400X0.025400*%
%ADD89R,1.854200X0.025400*%
%ADD90R,1.778000X0.025400*%
%ADD91R,1.701800X0.025400*%
%ADD92R,1.524000X0.025400*%
%ADD93R,2.844800X0.025400*%
%ADD94R,2.616200X0.025400*%
%ADD95R,2.387600X0.025400*%
%ADD96R,2.133600X0.025400*%
%ADD97R,3.124200X0.025400*%
%ADD98R,3.073400X0.025400*%
%ADD99R,3.022600X0.025400*%
%ADD100R,2.971800X0.025400*%
%ADD101R,2.921000X0.025400*%
%ADD102R,2.895600X0.025400*%
%ADD103R,2.794000X0.025400*%
%ADD104R,2.743200X0.025400*%
%ADD105R,2.692400X0.025400*%
%ADD106R,2.565400X0.025400*%
%ADD107R,2.514600X0.025400*%
%ADD108R,2.362200X0.025400*%
%ADD109R,2.311400X0.025400*%
%ADD110R,2.260600X0.025400*%
%ADD111R,2.159000X0.025400*%
%ADD112R,2.108200X0.025400*%
%ADD113C,0.076200*%
%ADD114C,0.127000*%


D10*
X770001Y596900D03*
X726821Y596900D03*
X694309Y596900D03*
X667131Y596900D03*
X608203Y596900D03*
D11*
X574040Y596900D03*
X560578Y596900D03*
D12*
X770128Y597154D03*
D13*
X759714Y597154D03*
X749554Y597154D03*
X737362Y597154D03*
D14*
X726821Y597154D03*
D15*
X715137Y597154D03*
D12*
X694436Y597154D03*
D13*
X679958Y597154D03*
D16*
X667131Y597154D03*
D13*
X653034Y597154D03*
D15*
X639699Y597154D03*
D17*
X630555Y597154D03*
D18*
X623697Y597154D03*
D17*
X616839Y597154D03*
D16*
X608203Y597154D03*
D19*
X584581Y597154D03*
D20*
X574040Y597154D03*
D21*
X569722Y597154D03*
X564642Y597154D03*
D10*
X560451Y597154D03*
D22*
X770128Y597408D03*
D13*
X759714Y597408D03*
D23*
X749427Y597408D03*
X737489Y597408D03*
D24*
X726821Y597408D03*
D25*
X715264Y597408D03*
D22*
X694436Y597408D03*
D13*
X679958Y597408D03*
D22*
X667258Y597408D03*
D13*
X653034Y597408D03*
D25*
X639572Y597408D03*
D23*
X630555Y597408D03*
D18*
X623697Y597408D03*
D23*
X616839Y597408D03*
D22*
X608330Y597408D03*
D26*
X584454Y597408D03*
D27*
X574040Y597408D03*
D21*
X569722Y597408D03*
X564642Y597408D03*
D28*
X560451Y597408D03*
D29*
X770128Y597662D03*
D13*
X759714Y597662D03*
D23*
X749427Y597662D03*
X737489Y597662D03*
D29*
X726948Y597662D03*
D25*
X715264Y597662D03*
D29*
X694436Y597662D03*
D13*
X679958Y597662D03*
D29*
X667258Y597662D03*
D13*
X653034Y597662D03*
D25*
X639572Y597662D03*
D23*
X630555Y597662D03*
D18*
X623697Y597662D03*
D23*
X616839Y597662D03*
D29*
X608330Y597662D03*
D26*
X584454Y597662D03*
D30*
X574040Y597662D03*
D17*
X569849Y597662D03*
D21*
X564642Y597662D03*
D31*
X560451Y597662D03*
D32*
X770255Y597916D03*
D13*
X759714Y597916D03*
D23*
X749427Y597916D03*
X737489Y597916D03*
D33*
X727075Y597916D03*
D25*
X715264Y597916D03*
D34*
X694436Y597916D03*
D13*
X679958Y597916D03*
D34*
X667258Y597916D03*
D13*
X653034Y597916D03*
D25*
X639572Y597916D03*
D23*
X630555Y597916D03*
D17*
X623697Y597916D03*
D23*
X616839Y597916D03*
D34*
X608330Y597916D03*
D26*
X584454Y597916D03*
D12*
X574040Y597916D03*
D17*
X569849Y597916D03*
X564515Y597916D03*
D16*
X560451Y597916D03*
D35*
X770128Y598170D03*
D13*
X759714Y598170D03*
D23*
X749173Y598170D03*
X737743Y598170D03*
D32*
X727329Y598170D03*
D25*
X715264Y598170D03*
D35*
X694436Y598170D03*
D13*
X679958Y598170D03*
D32*
X667131Y598170D03*
D13*
X653034Y598170D03*
D25*
X639572Y598170D03*
D23*
X630555Y598170D03*
D17*
X623697Y598170D03*
D23*
X616839Y598170D03*
D35*
X608330Y598170D03*
D26*
X584454Y598170D03*
D14*
X573913Y598170D03*
D17*
X569849Y598170D03*
X564515Y598170D03*
D14*
X560451Y598170D03*
D36*
X770001Y598424D03*
D13*
X759714Y598424D03*
D23*
X749173Y598424D03*
X737743Y598424D03*
D35*
X727456Y598424D03*
D25*
X715264Y598424D03*
D36*
X694309Y598424D03*
D13*
X679958Y598424D03*
D35*
X667004Y598424D03*
D13*
X653034Y598424D03*
D25*
X639572Y598424D03*
D23*
X630555Y598424D03*
D17*
X623697Y598424D03*
D23*
X616839Y598424D03*
D36*
X608203Y598424D03*
D37*
X598170Y598424D03*
D26*
X584454Y598424D03*
D38*
X574040Y598424D03*
D17*
X569849Y598424D03*
X564515Y598424D03*
D38*
X560324Y598424D03*
D39*
X769874Y598678D03*
D13*
X759714Y598678D03*
D23*
X749173Y598678D03*
X737743Y598678D03*
D36*
X727583Y598678D03*
D25*
X715264Y598678D03*
D39*
X694182Y598678D03*
D13*
X679958Y598678D03*
D36*
X666877Y598678D03*
D13*
X653034Y598678D03*
D25*
X639572Y598678D03*
D23*
X630555Y598678D03*
D13*
X623824Y598678D03*
D23*
X616839Y598678D03*
D39*
X608076Y598678D03*
D37*
X598170Y598678D03*
D26*
X584454Y598678D03*
D22*
X574040Y598678D03*
D17*
X569849Y598678D03*
D32*
X561213Y598678D03*
D19*
X769747Y598932D03*
D13*
X759714Y598932D03*
X749046Y598932D03*
X737870Y598932D03*
D39*
X727710Y598932D03*
D25*
X715264Y598932D03*
D19*
X694055Y598932D03*
D13*
X679958Y598932D03*
D39*
X666750Y598932D03*
D13*
X653034Y598932D03*
D25*
X639572Y598932D03*
D23*
X630555Y598932D03*
X623697Y598932D03*
X616839Y598932D03*
D19*
X607949Y598932D03*
D37*
X598170Y598932D03*
D26*
X584454Y598932D03*
D40*
X575818Y598932D03*
D28*
X571119Y598932D03*
X563245Y598932D03*
D20*
X558546Y598932D03*
D41*
X772795Y599186D03*
D42*
X767080Y599186D03*
D13*
X759714Y599186D03*
D23*
X748919Y599186D03*
X737997Y599186D03*
D31*
X730123Y599186D03*
D11*
X724408Y599186D03*
D25*
X715264Y599186D03*
D20*
X696976Y599186D03*
D42*
X691388Y599186D03*
D13*
X679958Y599186D03*
D41*
X669671Y599186D03*
D28*
X664083Y599186D03*
D13*
X653034Y599186D03*
D25*
X639572Y599186D03*
D23*
X630555Y599186D03*
X623697Y599186D03*
X616839Y599186D03*
D20*
X610870Y599186D03*
D28*
X605155Y599186D03*
D37*
X598170Y599186D03*
D26*
X584454Y599186D03*
D11*
X576072Y599186D03*
D10*
X570865Y599186D03*
D20*
X563626Y599186D03*
D43*
X558165Y599186D03*
D23*
X773303Y599440D03*
D20*
X766572Y599440D03*
D13*
X759714Y599440D03*
D23*
X748919Y599440D03*
X737997Y599440D03*
D42*
X730504Y599440D03*
D21*
X723900Y599440D03*
D25*
X715264Y599440D03*
D23*
X697611Y599440D03*
D41*
X690753Y599440D03*
D13*
X679958Y599440D03*
D23*
X670179Y599440D03*
D41*
X663575Y599440D03*
D13*
X653034Y599440D03*
D15*
X639699Y599440D03*
D23*
X630555Y599440D03*
X623697Y599440D03*
X616839Y599440D03*
X611505Y599440D03*
D41*
X604647Y599440D03*
D37*
X598170Y599440D03*
D19*
X584581Y599440D03*
D11*
X576326Y599440D03*
D41*
X570611Y599440D03*
X563753Y599440D03*
D43*
X557911Y599440D03*
D21*
X773684Y599694D03*
D40*
X766318Y599694D03*
D13*
X759714Y599694D03*
D23*
X748919Y599694D03*
X737997Y599694D03*
D20*
X731012Y599694D03*
D44*
X723519Y599694D03*
D23*
X719201Y599694D03*
D17*
X697865Y599694D03*
D43*
X690499Y599694D03*
D13*
X679958Y599694D03*
D21*
X670560Y599694D03*
D40*
X663194Y599694D03*
D13*
X653034Y599694D03*
X643636Y599694D03*
D23*
X630555Y599694D03*
D43*
X623697Y599694D03*
D23*
X616839Y599694D03*
D17*
X611759Y599694D03*
D40*
X604266Y599694D03*
D37*
X598170Y599694D03*
D13*
X588264Y599694D03*
D23*
X576453Y599694D03*
D40*
X570484Y599694D03*
X563880Y599694D03*
D11*
X557784Y599694D03*
D37*
X773938Y599948D03*
D43*
X765937Y599948D03*
D13*
X759714Y599948D03*
D23*
X748665Y599948D03*
D13*
X738124Y599948D03*
D20*
X731266Y599948D03*
D23*
X719201Y599948D03*
D37*
X698246Y599948D03*
D43*
X690245Y599948D03*
D13*
X679958Y599948D03*
D37*
X670814Y599948D03*
D43*
X663067Y599948D03*
D13*
X653034Y599948D03*
X643636Y599948D03*
D23*
X630555Y599948D03*
D43*
X623697Y599948D03*
D23*
X616839Y599948D03*
D37*
X612140Y599948D03*
D43*
X604139Y599948D03*
D37*
X598170Y599948D03*
D13*
X588264Y599948D03*
D23*
X576453Y599948D03*
D43*
X570357Y599948D03*
X564007Y599948D03*
D11*
X557530Y599948D03*
D45*
X774192Y600202D03*
D11*
X765810Y600202D03*
D13*
X759714Y600202D03*
D23*
X748665Y600202D03*
X738251Y600202D03*
D40*
X731520Y600202D03*
D23*
X719201Y600202D03*
D45*
X698500Y600202D03*
D11*
X690118Y600202D03*
D13*
X679958Y600202D03*
D45*
X671068Y600202D03*
D11*
X662940Y600202D03*
D13*
X653034Y600202D03*
X643636Y600202D03*
D23*
X630555Y600202D03*
D43*
X623697Y600202D03*
D23*
X616839Y600202D03*
D45*
X612140Y600202D03*
D43*
X603885Y600202D03*
D37*
X598170Y600202D03*
D13*
X588264Y600202D03*
D23*
X576707Y600202D03*
D11*
X570230Y600202D03*
X564134Y600202D03*
D23*
X557403Y600202D03*
X765683Y600456D03*
D13*
X759714Y600456D03*
D23*
X748665Y600456D03*
X738251Y600456D03*
D40*
X731774Y600456D03*
D23*
X719201Y600456D03*
D11*
X689864Y600456D03*
D13*
X679958Y600456D03*
D11*
X662686Y600456D03*
D13*
X653034Y600456D03*
X643636Y600456D03*
D23*
X630555Y600456D03*
D41*
X623697Y600456D03*
D23*
X616839Y600456D03*
D11*
X603758Y600456D03*
D37*
X598170Y600456D03*
D13*
X588264Y600456D03*
D23*
X576707Y600456D03*
X570103Y600456D03*
X564261Y600456D03*
X557403Y600456D03*
D11*
X765556Y600710D03*
D13*
X759714Y600710D03*
X748538Y600710D03*
X738378Y600710D03*
D43*
X731901Y600710D03*
D23*
X719201Y600710D03*
X689737Y600710D03*
D13*
X679958Y600710D03*
D23*
X662559Y600710D03*
D13*
X653034Y600710D03*
X643636Y600710D03*
D23*
X630555Y600710D03*
D41*
X623697Y600710D03*
D23*
X616839Y600710D03*
X603631Y600710D03*
D18*
X598297Y600710D03*
D13*
X588264Y600710D03*
D23*
X576707Y600710D03*
D13*
X569976Y600710D03*
X564388Y600710D03*
D23*
X557149Y600710D03*
X765429Y600964D03*
D13*
X759714Y600964D03*
D23*
X748411Y600964D03*
X738505Y600964D03*
D43*
X732155Y600964D03*
D23*
X719201Y600964D03*
X689737Y600964D03*
D13*
X679958Y600964D03*
D23*
X662559Y600964D03*
D13*
X653034Y600964D03*
X643636Y600964D03*
D23*
X630555Y600964D03*
D41*
X623697Y600964D03*
D23*
X616839Y600964D03*
X603631Y600964D03*
D18*
X598297Y600964D03*
D13*
X588264Y600964D03*
X576834Y600964D03*
X569976Y600964D03*
X564388Y600964D03*
D23*
X557149Y600964D03*
X765429Y601218D03*
D13*
X759714Y601218D03*
D23*
X748411Y601218D03*
X738505Y601218D03*
D11*
X732282Y601218D03*
D23*
X719201Y601218D03*
D13*
X689610Y601218D03*
X679958Y601218D03*
D23*
X662305Y601218D03*
D13*
X653034Y601218D03*
X643636Y601218D03*
D23*
X630555Y601218D03*
D41*
X623697Y601218D03*
D23*
X616839Y601218D03*
X603377Y601218D03*
D18*
X598297Y601218D03*
D13*
X588264Y601218D03*
X576834Y601218D03*
D17*
X569849Y601218D03*
D13*
X564388Y601218D03*
X557022Y601218D03*
X765302Y601472D03*
X759714Y601472D03*
D23*
X748411Y601472D03*
X738505Y601472D03*
D43*
X732409Y601472D03*
D23*
X719201Y601472D03*
X689483Y601472D03*
D13*
X679958Y601472D03*
D23*
X662305Y601472D03*
D13*
X653034Y601472D03*
X643636Y601472D03*
D23*
X630555Y601472D03*
D10*
X623697Y601472D03*
D23*
X616839Y601472D03*
X603377Y601472D03*
D18*
X598297Y601472D03*
D13*
X588264Y601472D03*
X576834Y601472D03*
D17*
X569849Y601472D03*
D13*
X564388Y601472D03*
X557022Y601472D03*
D23*
X765175Y601726D03*
D13*
X759714Y601726D03*
D23*
X748157Y601726D03*
D13*
X738632Y601726D03*
D11*
X732536Y601726D03*
D23*
X719201Y601726D03*
X689483Y601726D03*
D13*
X679958Y601726D03*
D23*
X662305Y601726D03*
D13*
X653034Y601726D03*
X643636Y601726D03*
D23*
X630555Y601726D03*
D10*
X623697Y601726D03*
D23*
X616839Y601726D03*
X603377Y601726D03*
D18*
X598297Y601726D03*
D13*
X588264Y601726D03*
X576834Y601726D03*
D17*
X569849Y601726D03*
D13*
X564388Y601726D03*
D23*
X556895Y601726D03*
X765175Y601980D03*
D13*
X759714Y601980D03*
D23*
X748157Y601980D03*
X738759Y601980D03*
D11*
X732790Y601980D03*
D23*
X719201Y601980D03*
X689483Y601980D03*
D13*
X679958Y601980D03*
X662178Y601980D03*
X653034Y601980D03*
X643636Y601980D03*
D23*
X630555Y601980D03*
D17*
X624713Y601980D03*
X622681Y601980D03*
D23*
X616839Y601980D03*
X603377Y601980D03*
D37*
X598424Y601980D03*
D13*
X588264Y601980D03*
X576834Y601980D03*
D17*
X569849Y601980D03*
D13*
X564388Y601980D03*
X556768Y601980D03*
D23*
X765175Y602234D03*
D13*
X759714Y602234D03*
D23*
X748157Y602234D03*
X738759Y602234D03*
D11*
X732790Y602234D03*
D23*
X719201Y602234D03*
D13*
X689356Y602234D03*
X679958Y602234D03*
X662178Y602234D03*
X653034Y602234D03*
X643636Y602234D03*
D23*
X630555Y602234D03*
D13*
X624840Y602234D03*
X622554Y602234D03*
D23*
X616839Y602234D03*
D13*
X603250Y602234D03*
D37*
X598424Y602234D03*
D13*
X588264Y602234D03*
X576834Y602234D03*
D17*
X569849Y602234D03*
D13*
X564388Y602234D03*
X556768Y602234D03*
X765048Y602488D03*
X759714Y602488D03*
X748030Y602488D03*
X738886Y602488D03*
D23*
X732917Y602488D03*
X719201Y602488D03*
D13*
X689356Y602488D03*
X679958Y602488D03*
X662178Y602488D03*
X653034Y602488D03*
X643636Y602488D03*
D23*
X630555Y602488D03*
D13*
X624840Y602488D03*
X622554Y602488D03*
D23*
X616839Y602488D03*
D13*
X603250Y602488D03*
D37*
X598424Y602488D03*
D13*
X588264Y602488D03*
X576834Y602488D03*
D17*
X569849Y602488D03*
D13*
X564388Y602488D03*
X556768Y602488D03*
X765048Y602742D03*
X759714Y602742D03*
D23*
X747903Y602742D03*
D13*
X738886Y602742D03*
D11*
X733044Y602742D03*
D23*
X719201Y602742D03*
D13*
X689356Y602742D03*
X679958Y602742D03*
X662178Y602742D03*
X653034Y602742D03*
X643636Y602742D03*
D23*
X630555Y602742D03*
D13*
X624840Y602742D03*
X622554Y602742D03*
D23*
X616839Y602742D03*
D13*
X603250Y602742D03*
D37*
X598424Y602742D03*
D13*
X588264Y602742D03*
D23*
X576707Y602742D03*
D17*
X569849Y602742D03*
D13*
X564388Y602742D03*
X556768Y602742D03*
X765048Y602996D03*
X759714Y602996D03*
D23*
X747903Y602996D03*
X739013Y602996D03*
X733171Y602996D03*
X719201Y602996D03*
D13*
X689356Y602996D03*
X679958Y602996D03*
X662178Y602996D03*
X653034Y602996D03*
X643636Y602996D03*
D23*
X630555Y602996D03*
D17*
X624967Y602996D03*
D13*
X622300Y602996D03*
D23*
X616839Y602996D03*
D13*
X603250Y602996D03*
D37*
X598424Y602996D03*
D13*
X588264Y602996D03*
D23*
X576707Y602996D03*
D17*
X569849Y602996D03*
D13*
X564388Y602996D03*
X556768Y602996D03*
X765048Y603250D03*
X759714Y603250D03*
D23*
X747903Y603250D03*
X739013Y603250D03*
X733171Y603250D03*
X719201Y603250D03*
D13*
X689356Y603250D03*
X679958Y603250D03*
X662178Y603250D03*
X653034Y603250D03*
X643636Y603250D03*
D23*
X630555Y603250D03*
D13*
X625094Y603250D03*
X622300Y603250D03*
D23*
X616839Y603250D03*
D13*
X603250Y603250D03*
D37*
X598424Y603250D03*
D13*
X588264Y603250D03*
D23*
X576707Y603250D03*
D17*
X569849Y603250D03*
D13*
X564388Y603250D03*
D23*
X556641Y603250D03*
D13*
X765048Y603504D03*
X759714Y603504D03*
X747776Y603504D03*
X739140Y603504D03*
D23*
X733171Y603504D03*
X719201Y603504D03*
D13*
X689356Y603504D03*
X679958Y603504D03*
X662178Y603504D03*
X653034Y603504D03*
X643636Y603504D03*
D23*
X630555Y603504D03*
D13*
X625094Y603504D03*
X622300Y603504D03*
D23*
X616839Y603504D03*
D13*
X603250Y603504D03*
D18*
X598551Y603504D03*
D13*
X588264Y603504D03*
D23*
X576453Y603504D03*
D17*
X569849Y603504D03*
D13*
X564388Y603504D03*
X556514Y603504D03*
X765048Y603758D03*
X759714Y603758D03*
D23*
X747649Y603758D03*
X739267Y603758D03*
X733425Y603758D03*
X719201Y603758D03*
D13*
X689356Y603758D03*
X679958Y603758D03*
X662178Y603758D03*
X653034Y603758D03*
X643636Y603758D03*
D23*
X630555Y603758D03*
D17*
X625221Y603758D03*
D13*
X622300Y603758D03*
D23*
X616839Y603758D03*
D13*
X603250Y603758D03*
D18*
X598551Y603758D03*
D13*
X588264Y603758D03*
D23*
X576453Y603758D03*
D17*
X569849Y603758D03*
D13*
X564388Y603758D03*
X556514Y603758D03*
D23*
X765175Y604012D03*
D13*
X759714Y604012D03*
D46*
X743458Y604012D03*
D23*
X733425Y604012D03*
X719201Y604012D03*
D13*
X689356Y604012D03*
X679958Y604012D03*
X662178Y604012D03*
X653034Y604012D03*
X643636Y604012D03*
D23*
X630555Y604012D03*
D13*
X625348Y604012D03*
X622046Y604012D03*
D23*
X616839Y604012D03*
D13*
X603250Y604012D03*
D18*
X598551Y604012D03*
D13*
X588264Y604012D03*
D11*
X576326Y604012D03*
D13*
X569976Y604012D03*
X564388Y604012D03*
X556514Y604012D03*
D23*
X765175Y604266D03*
D13*
X759714Y604266D03*
D25*
X743458Y604266D03*
D23*
X733425Y604266D03*
X719201Y604266D03*
X689483Y604266D03*
D13*
X679958Y604266D03*
X662178Y604266D03*
X653034Y604266D03*
X643636Y604266D03*
D23*
X630555Y604266D03*
D13*
X625348Y604266D03*
X622046Y604266D03*
D23*
X616839Y604266D03*
X603377Y604266D03*
D18*
X598551Y604266D03*
D13*
X588264Y604266D03*
D11*
X576072Y604266D03*
X570230Y604266D03*
D13*
X564388Y604266D03*
X556514Y604266D03*
D23*
X765175Y604520D03*
D13*
X759714Y604520D03*
D25*
X743458Y604520D03*
D23*
X733425Y604520D03*
X719201Y604520D03*
X689483Y604520D03*
D13*
X679958Y604520D03*
D23*
X662305Y604520D03*
D13*
X653034Y604520D03*
X643636Y604520D03*
D23*
X630555Y604520D03*
D13*
X625348Y604520D03*
X622046Y604520D03*
D23*
X616839Y604520D03*
X603377Y604520D03*
D18*
X598551Y604520D03*
D13*
X588264Y604520D03*
D41*
X575691Y604520D03*
D20*
X570738Y604520D03*
D13*
X564388Y604520D03*
X556514Y604520D03*
D23*
X765175Y604774D03*
D13*
X759714Y604774D03*
D25*
X743458Y604774D03*
D23*
X733425Y604774D03*
X719201Y604774D03*
X689483Y604774D03*
D13*
X679958Y604774D03*
D23*
X662305Y604774D03*
D13*
X653034Y604774D03*
X643636Y604774D03*
D23*
X630555Y604774D03*
D17*
X625475Y604774D03*
D23*
X621919Y604774D03*
X616839Y604774D03*
X603377Y604774D03*
D18*
X598551Y604774D03*
D13*
X588264Y604774D03*
D34*
X573024Y604774D03*
D13*
X564388Y604774D03*
X556514Y604774D03*
D23*
X765429Y605028D03*
D13*
X759714Y605028D03*
D25*
X743458Y605028D03*
D13*
X733552Y605028D03*
D23*
X719201Y605028D03*
D11*
X689610Y605028D03*
D13*
X679958Y605028D03*
D23*
X662305Y605028D03*
D13*
X653034Y605028D03*
X643636Y605028D03*
D23*
X630555Y605028D03*
D13*
X625602Y605028D03*
X621792Y605028D03*
D23*
X616839Y605028D03*
D11*
X603504Y605028D03*
D18*
X598551Y605028D03*
D13*
X588264Y605028D03*
D34*
X573024Y605028D03*
D13*
X564388Y605028D03*
X556514Y605028D03*
D23*
X765429Y605282D03*
D13*
X759714Y605282D03*
D26*
X743458Y605282D03*
D23*
X733679Y605282D03*
X719201Y605282D03*
X689737Y605282D03*
D13*
X679958Y605282D03*
D11*
X662432Y605282D03*
D13*
X653034Y605282D03*
X643636Y605282D03*
D23*
X630555Y605282D03*
D13*
X625602Y605282D03*
X621792Y605282D03*
D23*
X616839Y605282D03*
D11*
X603504Y605282D03*
D18*
X598551Y605282D03*
D13*
X588264Y605282D03*
D33*
X572897Y605282D03*
D13*
X564388Y605282D03*
X556514Y605282D03*
D11*
X765556Y605536D03*
D13*
X759714Y605536D03*
D26*
X743458Y605536D03*
D23*
X733679Y605536D03*
X719201Y605536D03*
D11*
X689864Y605536D03*
D13*
X679958Y605536D03*
D11*
X662686Y605536D03*
D13*
X653034Y605536D03*
X643636Y605536D03*
D23*
X630555Y605536D03*
D13*
X625602Y605536D03*
D23*
X621665Y605536D03*
X616839Y605536D03*
D11*
X603758Y605536D03*
D18*
X598551Y605536D03*
D13*
X588264Y605536D03*
D29*
X572770Y605536D03*
D13*
X564388Y605536D03*
X556514Y605536D03*
D43*
X765683Y605790D03*
D13*
X759714Y605790D03*
D26*
X743458Y605790D03*
D23*
X733679Y605790D03*
X719201Y605790D03*
D43*
X689991Y605790D03*
D13*
X679958Y605790D03*
D43*
X662813Y605790D03*
D13*
X653034Y605790D03*
X643636Y605790D03*
D23*
X630555Y605790D03*
D13*
X625856Y605790D03*
X621538Y605790D03*
D23*
X616839Y605790D03*
D43*
X603885Y605790D03*
D18*
X598551Y605790D03*
D13*
X588264Y605790D03*
D47*
X572643Y605790D03*
D13*
X564388Y605790D03*
X556514Y605790D03*
D43*
X765937Y606044D03*
D13*
X759714Y606044D03*
D39*
X743458Y606044D03*
D23*
X733679Y606044D03*
X719201Y606044D03*
D40*
X690118Y606044D03*
D23*
X679831Y606044D03*
D40*
X662940Y606044D03*
D13*
X653034Y606044D03*
X643636Y606044D03*
D23*
X630555Y606044D03*
D13*
X625856Y606044D03*
X621538Y606044D03*
D23*
X616839Y606044D03*
D40*
X604012Y606044D03*
D21*
X598678Y606044D03*
D13*
X588264Y606044D03*
D48*
X572516Y606044D03*
D13*
X564388Y606044D03*
X556514Y606044D03*
D40*
X766064Y606298D03*
D16*
X758063Y606298D03*
D23*
X746887Y606298D03*
X740029Y606298D03*
X733679Y606298D03*
X719201Y606298D03*
D40*
X690372Y606298D03*
D23*
X679831Y606298D03*
D40*
X663194Y606298D03*
D13*
X653034Y606298D03*
X643636Y606298D03*
D23*
X630555Y606298D03*
D13*
X625856Y606298D03*
X621538Y606298D03*
D23*
X616839Y606298D03*
D40*
X604266Y606298D03*
D21*
X598678Y606298D03*
D13*
X588264Y606298D03*
D27*
X573532Y606298D03*
D17*
X569849Y606298D03*
D13*
X564388Y606298D03*
X556514Y606298D03*
D20*
X766318Y606552D03*
D49*
X757555Y606552D03*
D23*
X746887Y606552D03*
X740029Y606552D03*
X733679Y606552D03*
X719201Y606552D03*
D20*
X690626Y606552D03*
D11*
X679958Y606552D03*
D20*
X663448Y606552D03*
D13*
X653034Y606552D03*
X643636Y606552D03*
D23*
X630555Y606552D03*
D13*
X626110Y606552D03*
D23*
X621411Y606552D03*
X616839Y606552D03*
D20*
X604520Y606552D03*
D21*
X598678Y606552D03*
D13*
X588264Y606552D03*
D40*
X573532Y606552D03*
D17*
X569849Y606552D03*
D13*
X564388Y606552D03*
X556514Y606552D03*
D10*
X766699Y606806D03*
D48*
X757174Y606806D03*
D23*
X746887Y606806D03*
X740029Y606806D03*
X733679Y606806D03*
X719201Y606806D03*
D10*
X691007Y606806D03*
D43*
X679831Y606806D03*
D10*
X663829Y606806D03*
D13*
X653034Y606806D03*
X643636Y606806D03*
D23*
X630555Y606806D03*
D13*
X626110Y606806D03*
X621284Y606806D03*
D23*
X616839Y606806D03*
D10*
X604901Y606806D03*
D18*
X598805Y606806D03*
D13*
X588264Y606806D03*
D17*
X569849Y606806D03*
D13*
X564388Y606806D03*
X556514Y606806D03*
D28*
X767207Y607060D03*
D29*
X756920Y607060D03*
D13*
X746760Y607060D03*
X740156Y607060D03*
D23*
X733679Y607060D03*
X719201Y607060D03*
D27*
X691388Y607060D03*
D40*
X679958Y607060D03*
D27*
X664210Y607060D03*
D13*
X653034Y607060D03*
X643636Y607060D03*
D23*
X630555Y607060D03*
D13*
X626110Y607060D03*
X621284Y607060D03*
D23*
X616839Y607060D03*
D27*
X605282Y607060D03*
D18*
X598805Y607060D03*
D13*
X588264Y607060D03*
D17*
X569849Y607060D03*
D13*
X564388Y607060D03*
D23*
X556641Y607060D03*
D30*
X767588Y607314D03*
D34*
X756666Y607314D03*
D13*
X746760Y607314D03*
X740156Y607314D03*
D23*
X733679Y607314D03*
D36*
X715899Y607314D03*
D30*
X691896Y607314D03*
D41*
X679831Y607314D03*
D30*
X664718Y607314D03*
D13*
X653034Y607314D03*
D35*
X640334Y607314D03*
D23*
X630555Y607314D03*
D13*
X626110Y607314D03*
D23*
X621157Y607314D03*
X616839Y607314D03*
D30*
X605790Y607314D03*
D18*
X598805Y607314D03*
D13*
X588264Y607314D03*
D17*
X569849Y607314D03*
D13*
X564388Y607314D03*
D23*
X556641Y607314D03*
D12*
X768096Y607568D03*
D32*
X756539Y607568D03*
D23*
X746633Y607568D03*
X740283Y607568D03*
D13*
X733806Y607568D03*
D36*
X715899Y607568D03*
D12*
X692404Y607568D03*
D20*
X679958Y607568D03*
D16*
X665099Y607568D03*
D13*
X653034Y607568D03*
D36*
X640207Y607568D03*
D23*
X630555Y607568D03*
D13*
X626364Y607568D03*
X621030Y607568D03*
D23*
X616839Y607568D03*
D16*
X606171Y607568D03*
D18*
X598805Y607568D03*
D13*
X588264Y607568D03*
X569976Y607568D03*
X564388Y607568D03*
X556768Y607568D03*
D14*
X768477Y607822D03*
D35*
X756412Y607822D03*
D13*
X746506Y607822D03*
X740410Y607822D03*
X733806Y607822D03*
D36*
X715899Y607822D03*
D14*
X692785Y607822D03*
D10*
X679831Y607822D03*
D14*
X665607Y607822D03*
D13*
X653034Y607822D03*
D35*
X640334Y607822D03*
D23*
X630555Y607822D03*
D13*
X626364Y607822D03*
X621030Y607822D03*
D23*
X616839Y607822D03*
D14*
X606679Y607822D03*
D18*
X598805Y607822D03*
D13*
X588264Y607822D03*
X569976Y607822D03*
X564388Y607822D03*
X556768Y607822D03*
D38*
X768858Y608076D03*
D36*
X756285Y608076D03*
D13*
X746506Y608076D03*
X740410Y608076D03*
X733806Y608076D03*
D36*
X715899Y608076D03*
D38*
X693166Y608076D03*
D10*
X679831Y608076D03*
D38*
X665988Y608076D03*
D13*
X653034Y608076D03*
D36*
X640207Y608076D03*
D23*
X630555Y608076D03*
D13*
X626364Y608076D03*
D23*
X620903Y608076D03*
X616839Y608076D03*
D38*
X607060Y608076D03*
D18*
X598805Y608076D03*
D13*
X588264Y608076D03*
X569976Y608076D03*
X564388Y608076D03*
X556768Y608076D03*
D38*
X769366Y608330D03*
D39*
X756158Y608330D03*
D23*
X746379Y608330D03*
X740537Y608330D03*
D13*
X733806Y608330D03*
D36*
X715899Y608330D03*
D49*
X693547Y608330D03*
D42*
X679958Y608330D03*
D38*
X666242Y608330D03*
D13*
X653034Y608330D03*
D36*
X640207Y608330D03*
D23*
X630555Y608330D03*
X626491Y608330D03*
D13*
X620776Y608330D03*
D23*
X616839Y608330D03*
D38*
X607314Y608330D03*
D18*
X598805Y608330D03*
D13*
X588264Y608330D03*
X569976Y608330D03*
X564388Y608330D03*
D23*
X556895Y608330D03*
D38*
X769620Y608584D03*
D23*
X759587Y608584D03*
D31*
X753745Y608584D03*
D13*
X746252Y608584D03*
D23*
X740537Y608584D03*
X733679Y608584D03*
D36*
X715899Y608584D03*
D38*
X693928Y608584D03*
D13*
X680974Y608584D03*
D23*
X678815Y608584D03*
D38*
X666750Y608584D03*
D13*
X653034Y608584D03*
D36*
X640207Y608584D03*
D23*
X630555Y608584D03*
D13*
X626618Y608584D03*
X620776Y608584D03*
D23*
X616839Y608584D03*
D38*
X607822Y608584D03*
D21*
X598932Y608584D03*
D13*
X588264Y608584D03*
X569976Y608584D03*
X564388Y608584D03*
D23*
X556895Y608584D03*
D14*
X770001Y608838D03*
D13*
X759714Y608838D03*
D20*
X753110Y608838D03*
D13*
X746252Y608838D03*
X740664Y608838D03*
D23*
X733679Y608838D03*
D36*
X715899Y608838D03*
D14*
X694309Y608838D03*
D23*
X681101Y608838D03*
D13*
X678688Y608838D03*
D14*
X667131Y608838D03*
D13*
X653034Y608838D03*
D36*
X640207Y608838D03*
D23*
X630555Y608838D03*
D13*
X626618Y608838D03*
X620776Y608838D03*
D23*
X616839Y608838D03*
D14*
X608203Y608838D03*
D21*
X598932Y608838D03*
D13*
X588264Y608838D03*
X569976Y608838D03*
X564388Y608838D03*
X557022Y608838D03*
D16*
X770509Y609092D03*
D13*
X759714Y609092D03*
D41*
X752729Y609092D03*
D13*
X746252Y609092D03*
X740664Y609092D03*
D23*
X733679Y609092D03*
D36*
X715899Y609092D03*
D12*
X694690Y609092D03*
D23*
X681101Y609092D03*
X678561Y609092D03*
D12*
X667512Y609092D03*
D13*
X653034Y609092D03*
D36*
X640207Y609092D03*
D23*
X630555Y609092D03*
X626745Y609092D03*
X620649Y609092D03*
X616839Y609092D03*
D12*
X608584Y609092D03*
D21*
X598932Y609092D03*
D13*
X588264Y609092D03*
X569976Y609092D03*
X564388Y609092D03*
D23*
X557149Y609092D03*
D30*
X770890Y609346D03*
D13*
X759714Y609346D03*
D43*
X752475Y609346D03*
D23*
X746125Y609346D03*
X740791Y609346D03*
X733679Y609346D03*
D36*
X715899Y609346D03*
D30*
X695198Y609346D03*
D13*
X681228Y609346D03*
D23*
X678561Y609346D03*
D31*
X667893Y609346D03*
D13*
X653034Y609346D03*
D36*
X640207Y609346D03*
D23*
X630555Y609346D03*
D13*
X626872Y609346D03*
X620522Y609346D03*
D23*
X616839Y609346D03*
D31*
X608965Y609346D03*
D21*
X598932Y609346D03*
D13*
X588264Y609346D03*
D23*
X570103Y609346D03*
D13*
X564388Y609346D03*
D23*
X557149Y609346D03*
D28*
X771271Y609600D03*
D13*
X759714Y609600D03*
D43*
X752221Y609600D03*
D13*
X745998Y609600D03*
D23*
X740791Y609600D03*
X733679Y609600D03*
D36*
X715899Y609600D03*
D28*
X695579Y609600D03*
D23*
X681355Y609600D03*
X678307Y609600D03*
D27*
X668274Y609600D03*
D13*
X653034Y609600D03*
D35*
X640334Y609600D03*
D23*
X630555Y609600D03*
D13*
X626872Y609600D03*
X620522Y609600D03*
D23*
X616839Y609600D03*
D27*
X609346Y609600D03*
D21*
X598932Y609600D03*
D13*
X588264Y609600D03*
D23*
X570103Y609600D03*
X564261Y609600D03*
D11*
X557276Y609600D03*
D42*
X771652Y609854D03*
D13*
X759714Y609854D03*
D11*
X752094Y609854D03*
D13*
X745998Y609854D03*
X740918Y609854D03*
D23*
X733679Y609854D03*
X719201Y609854D03*
D42*
X695960Y609854D03*
D13*
X681482Y609854D03*
D23*
X678307Y609854D03*
D42*
X668782Y609854D03*
D13*
X653034Y609854D03*
X643636Y609854D03*
D23*
X630555Y609854D03*
D13*
X626872Y609854D03*
X620522Y609854D03*
D23*
X616839Y609854D03*
D42*
X609854Y609854D03*
D21*
X598932Y609854D03*
D13*
X588264Y609854D03*
D11*
X570230Y609854D03*
X564134Y609854D03*
D23*
X557403Y609854D03*
D20*
X772160Y610108D03*
D13*
X759714Y610108D03*
D11*
X751840Y610108D03*
D13*
X745998Y610108D03*
X740918Y610108D03*
D23*
X733679Y610108D03*
X719201Y610108D03*
D20*
X696214Y610108D03*
D23*
X681609Y610108D03*
D13*
X678180Y610108D03*
D20*
X669036Y610108D03*
D13*
X653034Y610108D03*
X643636Y610108D03*
D23*
X630555Y610108D03*
X626999Y610108D03*
D13*
X620268Y610108D03*
D23*
X616839Y610108D03*
D20*
X610108Y610108D03*
D21*
X598932Y610108D03*
D13*
X588264Y610108D03*
D11*
X570484Y610108D03*
D43*
X564007Y610108D03*
D11*
X557530Y610108D03*
D40*
X772414Y610362D03*
D13*
X759714Y610362D03*
D11*
X751840Y610362D03*
D13*
X745744Y610362D03*
D23*
X741045Y610362D03*
X733679Y610362D03*
X719201Y610362D03*
D41*
X696595Y610362D03*
D13*
X681736Y610362D03*
D23*
X678053Y610362D03*
D41*
X669417Y610362D03*
D13*
X653034Y610362D03*
X643636Y610362D03*
D23*
X630555Y610362D03*
D13*
X627126Y610362D03*
X620268Y610362D03*
D23*
X616839Y610362D03*
D41*
X610489Y610362D03*
D21*
X598932Y610362D03*
D13*
X588264Y610362D03*
D45*
X576580Y610362D03*
D43*
X570611Y610362D03*
D40*
X563880Y610362D03*
D11*
X557784Y610362D03*
D43*
X772541Y610616D03*
D13*
X759714Y610616D03*
D23*
X751713Y610616D03*
D13*
X745744Y610616D03*
X741172Y610616D03*
X733552Y610616D03*
D23*
X719201Y610616D03*
D43*
X696849Y610616D03*
D13*
X681736Y610616D03*
X677926Y610616D03*
D43*
X669671Y610616D03*
D13*
X653034Y610616D03*
X643636Y610616D03*
D23*
X630555Y610616D03*
D13*
X627126Y610616D03*
X620268Y610616D03*
D23*
X616839Y610616D03*
D43*
X610743Y610616D03*
D21*
X598932Y610616D03*
D13*
X588264Y610616D03*
D37*
X576326Y610616D03*
D40*
X570738Y610616D03*
D41*
X563753Y610616D03*
D43*
X557911Y610616D03*
X772795Y610870D03*
D13*
X759714Y610870D03*
D11*
X751586Y610870D03*
D13*
X745744Y610870D03*
X741172Y610870D03*
X733552Y610870D03*
D23*
X719201Y610870D03*
D43*
X697103Y610870D03*
D23*
X681863Y610870D03*
X677799Y610870D03*
D11*
X669798Y610870D03*
D13*
X653034Y610870D03*
X643636Y610870D03*
D23*
X630555Y610870D03*
X627253Y610870D03*
X620141Y610870D03*
X616839Y610870D03*
D43*
X610997Y610870D03*
D21*
X598932Y610870D03*
D13*
X588264Y610870D03*
D17*
X575945Y610870D03*
D41*
X571119Y610870D03*
D10*
X563499Y610870D03*
D40*
X558292Y610870D03*
D11*
X772922Y611124D03*
D13*
X759714Y611124D03*
D23*
X751459Y611124D03*
X745617Y611124D03*
X741299Y611124D03*
X733425Y611124D03*
X719201Y611124D03*
D11*
X697230Y611124D03*
D13*
X681990Y611124D03*
D23*
X677799Y611124D03*
D11*
X670052Y611124D03*
D13*
X653034Y611124D03*
X643636Y611124D03*
D23*
X630555Y611124D03*
D13*
X627380Y611124D03*
X620014Y611124D03*
D23*
X616839Y611124D03*
D11*
X611124Y611124D03*
D21*
X599186Y611124D03*
D13*
X588264Y611124D03*
D48*
X573278Y611124D03*
D35*
X561086Y611124D03*
D23*
X773049Y611378D03*
D13*
X759714Y611378D03*
D23*
X751459Y611378D03*
D13*
X745490Y611378D03*
D23*
X741299Y611378D03*
X733425Y611378D03*
X719201Y611378D03*
D11*
X697230Y611378D03*
D23*
X682117Y611378D03*
X677545Y611378D03*
D11*
X670052Y611378D03*
D13*
X653034Y611378D03*
X643636Y611378D03*
D23*
X630555Y611378D03*
D13*
X627380Y611378D03*
X620014Y611378D03*
D23*
X616839Y611378D03*
D11*
X611124Y611378D03*
D21*
X599186Y611378D03*
D13*
X588264Y611378D03*
D48*
X573278Y611378D03*
D32*
X561213Y611378D03*
D23*
X773049Y611632D03*
D13*
X759714Y611632D03*
D23*
X751459Y611632D03*
D13*
X745490Y611632D03*
X741426Y611632D03*
D23*
X733425Y611632D03*
X719201Y611632D03*
X697357Y611632D03*
D13*
X682244Y611632D03*
D23*
X677545Y611632D03*
X670179Y611632D03*
D13*
X653034Y611632D03*
X643636Y611632D03*
D23*
X630555Y611632D03*
D13*
X627380Y611632D03*
X620014Y611632D03*
D23*
X616839Y611632D03*
X611251Y611632D03*
D21*
X599186Y611632D03*
D13*
X588264Y611632D03*
D24*
X573405Y611632D03*
D13*
X564388Y611632D03*
D38*
X560324Y611632D03*
D23*
X773303Y611886D03*
D13*
X759714Y611886D03*
X751332Y611886D03*
X745490Y611886D03*
X741426Y611886D03*
D23*
X733425Y611886D03*
X719201Y611886D03*
X697357Y611886D03*
X682371Y611886D03*
D13*
X677418Y611886D03*
D23*
X670179Y611886D03*
D13*
X653034Y611886D03*
X643636Y611886D03*
D23*
X630555Y611886D03*
X627507Y611886D03*
D13*
X619760Y611886D03*
D23*
X616839Y611886D03*
X611251Y611886D03*
D21*
X599186Y611886D03*
D13*
X588264Y611886D03*
D22*
X573532Y611886D03*
D13*
X564388Y611886D03*
D14*
X560197Y611886D03*
D23*
X773303Y612140D03*
D13*
X759714Y612140D03*
X751332Y612140D03*
D23*
X745363Y612140D03*
X741553Y612140D03*
D13*
X733298Y612140D03*
D23*
X719201Y612140D03*
X697611Y612140D03*
X682371Y612140D03*
X677291Y612140D03*
D13*
X670306Y612140D03*
X653034Y612140D03*
X643636Y612140D03*
X630682Y612140D03*
X627634Y612140D03*
X619760Y612140D03*
D23*
X616839Y612140D03*
D13*
X611378Y612140D03*
D21*
X599186Y612140D03*
D13*
X588264Y612140D03*
D49*
X573659Y612140D03*
D13*
X564388Y612140D03*
D12*
X560324Y612140D03*
D23*
X773303Y612394D03*
D13*
X759714Y612394D03*
X751332Y612394D03*
X745236Y612394D03*
D23*
X741553Y612394D03*
X733171Y612394D03*
X719201Y612394D03*
X697611Y612394D03*
D13*
X682498Y612394D03*
D23*
X677291Y612394D03*
D13*
X670306Y612394D03*
X653034Y612394D03*
X643636Y612394D03*
X630682Y612394D03*
X627634Y612394D03*
X619760Y612394D03*
D23*
X616839Y612394D03*
D13*
X611378Y612394D03*
D21*
X599186Y612394D03*
D13*
X588264Y612394D03*
D38*
X573786Y612394D03*
D13*
X564388Y612394D03*
D27*
X560324Y612394D03*
D23*
X773303Y612648D03*
D13*
X759714Y612648D03*
X751332Y612648D03*
X745236Y612648D03*
X741680Y612648D03*
D23*
X733171Y612648D03*
X719201Y612648D03*
X697611Y612648D03*
X682625Y612648D03*
X677037Y612648D03*
D13*
X670306Y612648D03*
X653034Y612648D03*
X643636Y612648D03*
X630682Y612648D03*
D23*
X627761Y612648D03*
D13*
X619506Y612648D03*
D23*
X616839Y612648D03*
X611505Y612648D03*
D21*
X599186Y612648D03*
D13*
X588264Y612648D03*
D16*
X573659Y612648D03*
D13*
X564388Y612648D03*
D42*
X560324Y612648D03*
D23*
X773303Y612902D03*
D13*
X759714Y612902D03*
X751332Y612902D03*
X745236Y612902D03*
X741680Y612902D03*
D23*
X733171Y612902D03*
X719201Y612902D03*
X697611Y612902D03*
D13*
X682752Y612902D03*
D23*
X677037Y612902D03*
D13*
X670306Y612902D03*
X653034Y612902D03*
X643636Y612902D03*
X630682Y612902D03*
X627888Y612902D03*
X619506Y612902D03*
D23*
X616839Y612902D03*
X611505Y612902D03*
D21*
X599186Y612902D03*
D13*
X588264Y612902D03*
D28*
X573659Y612902D03*
D13*
X564388Y612902D03*
D41*
X560451Y612902D03*
D23*
X773303Y613156D03*
D13*
X759714Y613156D03*
X751332Y613156D03*
X744982Y613156D03*
D23*
X741807Y613156D03*
X732917Y613156D03*
X719201Y613156D03*
X697611Y613156D03*
X682879Y613156D03*
D13*
X676910Y613156D03*
X670306Y613156D03*
X653034Y613156D03*
X643636Y613156D03*
X630682Y613156D03*
X627888Y613156D03*
X619506Y613156D03*
D23*
X616839Y613156D03*
X611505Y613156D03*
D21*
X599186Y613156D03*
D13*
X588264Y613156D03*
D23*
X573659Y613156D03*
D13*
X564388Y613156D03*
D17*
X560451Y613156D03*
D23*
X773303Y613410D03*
D13*
X759714Y613410D03*
X751332Y613410D03*
X744982Y613410D03*
X741934Y613410D03*
D23*
X732917Y613410D03*
X719201Y613410D03*
X697611Y613410D03*
D13*
X683006Y613410D03*
D23*
X676783Y613410D03*
D13*
X670306Y613410D03*
X653034Y613410D03*
X643636Y613410D03*
X630682Y613410D03*
X627888Y613410D03*
X619506Y613410D03*
X616712Y613410D03*
D23*
X611505Y613410D03*
D17*
X599313Y613410D03*
D13*
X588264Y613410D03*
X564388Y613410D03*
D23*
X773303Y613664D03*
D13*
X759714Y613664D03*
X751332Y613664D03*
X744982Y613664D03*
X741934Y613664D03*
D11*
X732790Y613664D03*
D23*
X719201Y613664D03*
X697611Y613664D03*
X683133Y613664D03*
D13*
X676656Y613664D03*
X670306Y613664D03*
X653034Y613664D03*
X643636Y613664D03*
X630682Y613664D03*
D23*
X628015Y613664D03*
D13*
X619252Y613664D03*
X616712Y613664D03*
D23*
X611505Y613664D03*
D17*
X599313Y613664D03*
D13*
X588264Y613664D03*
X564388Y613664D03*
D23*
X773303Y613918D03*
D13*
X759714Y613918D03*
X751332Y613918D03*
X744982Y613918D03*
X741934Y613918D03*
D23*
X732663Y613918D03*
X719201Y613918D03*
X697611Y613918D03*
X683133Y613918D03*
X676529Y613918D03*
D13*
X670306Y613918D03*
X653034Y613918D03*
X643636Y613918D03*
X630682Y613918D03*
X628142Y613918D03*
X619252Y613918D03*
X616712Y613918D03*
X611378Y613918D03*
D17*
X599313Y613918D03*
D13*
X588264Y613918D03*
X564388Y613918D03*
D23*
X773303Y614172D03*
D13*
X759714Y614172D03*
D23*
X751459Y614172D03*
D13*
X744728Y614172D03*
X742188Y614172D03*
D11*
X732536Y614172D03*
D23*
X719201Y614172D03*
X697611Y614172D03*
D13*
X683260Y614172D03*
D23*
X676529Y614172D03*
D13*
X670306Y614172D03*
X653034Y614172D03*
X643636Y614172D03*
X630682Y614172D03*
X628142Y614172D03*
X619252Y614172D03*
X616712Y614172D03*
X611378Y614172D03*
D17*
X599313Y614172D03*
D13*
X588264Y614172D03*
X564388Y614172D03*
D23*
X773303Y614426D03*
D13*
X759714Y614426D03*
D23*
X751459Y614426D03*
D13*
X744728Y614426D03*
X742188Y614426D03*
D11*
X732536Y614426D03*
D23*
X719201Y614426D03*
D13*
X697484Y614426D03*
D23*
X683387Y614426D03*
D13*
X676402Y614426D03*
X670306Y614426D03*
X653034Y614426D03*
X643636Y614426D03*
X630682Y614426D03*
D23*
X628269Y614426D03*
D17*
X619125Y614426D03*
D13*
X616712Y614426D03*
X611378Y614426D03*
D17*
X599313Y614426D03*
D13*
X588264Y614426D03*
X564388Y614426D03*
D23*
X773303Y614680D03*
D13*
X759714Y614680D03*
D23*
X751459Y614680D03*
D13*
X744728Y614680D03*
X742188Y614680D03*
D11*
X732282Y614680D03*
D23*
X719201Y614680D03*
D13*
X697484Y614680D03*
X683514Y614680D03*
D23*
X676275Y614680D03*
D13*
X670306Y614680D03*
X653034Y614680D03*
X643636Y614680D03*
X630682Y614680D03*
X628396Y614680D03*
X618998Y614680D03*
X616712Y614680D03*
X611378Y614680D03*
D17*
X599313Y614680D03*
D13*
X588264Y614680D03*
X564388Y614680D03*
X773176Y614934D03*
X759714Y614934D03*
D11*
X751586Y614934D03*
D17*
X744601Y614934D03*
D13*
X742188Y614934D03*
D43*
X732155Y614934D03*
D23*
X719201Y614934D03*
X697357Y614934D03*
X683641Y614934D03*
D13*
X676148Y614934D03*
D23*
X670179Y614934D03*
D13*
X653034Y614934D03*
X643636Y614934D03*
X630682Y614934D03*
X628396Y614934D03*
X618998Y614934D03*
X616712Y614934D03*
D23*
X611251Y614934D03*
D17*
X599313Y614934D03*
D13*
X588264Y614934D03*
X564388Y614934D03*
D23*
X773049Y615188D03*
D13*
X759714Y615188D03*
D23*
X751713Y615188D03*
D13*
X744474Y615188D03*
X742442Y615188D03*
D11*
X732028Y615188D03*
D23*
X719201Y615188D03*
X697357Y615188D03*
X683641Y615188D03*
X676021Y615188D03*
X670179Y615188D03*
D13*
X653034Y615188D03*
X643636Y615188D03*
X630682Y615188D03*
X628396Y615188D03*
X618998Y615188D03*
X616712Y615188D03*
D23*
X611251Y615188D03*
D17*
X599313Y615188D03*
D13*
X588264Y615188D03*
X564388Y615188D03*
D23*
X773049Y615442D03*
D13*
X759714Y615442D03*
D11*
X751840Y615442D03*
D13*
X744474Y615442D03*
X742442Y615442D03*
D43*
X731901Y615442D03*
D23*
X719201Y615442D03*
X697357Y615442D03*
X683895Y615442D03*
D13*
X675894Y615442D03*
D23*
X670179Y615442D03*
D13*
X653034Y615442D03*
X643636Y615442D03*
X630682Y615442D03*
X628650Y615442D03*
D17*
X618871Y615442D03*
D13*
X616712Y615442D03*
D23*
X611251Y615442D03*
D21*
X599440Y615442D03*
D13*
X588264Y615442D03*
X564388Y615442D03*
D23*
X773049Y615696D03*
D13*
X759714Y615696D03*
D43*
X751967Y615696D03*
D42*
X743458Y615696D03*
D43*
X731647Y615696D03*
D23*
X719201Y615696D03*
D11*
X697230Y615696D03*
D23*
X683895Y615696D03*
X675767Y615696D03*
X669925Y615696D03*
D13*
X653034Y615696D03*
X643636Y615696D03*
X630682Y615696D03*
X628650Y615696D03*
X618744Y615696D03*
X616712Y615696D03*
D11*
X611124Y615696D03*
D21*
X599440Y615696D03*
D13*
X588264Y615696D03*
X564388Y615696D03*
D23*
X772795Y615950D03*
D13*
X759714Y615950D03*
D43*
X752221Y615950D03*
D20*
X743458Y615950D03*
D40*
X731520Y615950D03*
D23*
X719201Y615950D03*
X697103Y615950D03*
D13*
X684022Y615950D03*
D23*
X675767Y615950D03*
X669925Y615950D03*
D13*
X653034Y615950D03*
X643636Y615950D03*
X630682Y615950D03*
X628650Y615950D03*
X618744Y615950D03*
X616712Y615950D03*
D23*
X610997Y615950D03*
D17*
X599567Y615950D03*
D13*
X588264Y615950D03*
X564388Y615950D03*
D11*
X772668Y616204D03*
D44*
X764921Y616204D03*
D13*
X759714Y616204D03*
D40*
X752348Y616204D03*
D20*
X743458Y616204D03*
D40*
X731266Y616204D03*
D23*
X719201Y616204D03*
D11*
X696976Y616204D03*
D44*
X689229Y616204D03*
D23*
X684149Y616204D03*
D13*
X675640Y616204D03*
D11*
X669798Y616204D03*
D44*
X662051Y616204D03*
D13*
X653034Y616204D03*
X643636Y616204D03*
D42*
X629666Y616204D03*
D10*
X617601Y616204D03*
D11*
X610870Y616204D03*
D44*
X603123Y616204D03*
D17*
X599567Y616204D03*
D13*
X588264Y616204D03*
X564388Y616204D03*
D43*
X772541Y616458D03*
D18*
X765175Y616458D03*
D13*
X759714Y616458D03*
D20*
X752602Y616458D03*
X743458Y616458D03*
X731012Y616458D03*
D23*
X719201Y616458D03*
D43*
X696849Y616458D03*
D18*
X689483Y616458D03*
D23*
X684149Y616458D03*
X675513Y616458D03*
D11*
X669544Y616458D03*
D37*
X662178Y616458D03*
D13*
X653034Y616458D03*
X643636Y616458D03*
D10*
X629793Y616458D03*
X617601Y616458D03*
D43*
X610743Y616458D03*
D18*
X603377Y616458D03*
D17*
X599567Y616458D03*
D13*
X588264Y616458D03*
X564388Y616458D03*
D43*
X772287Y616712D03*
D17*
X765429Y616712D03*
D13*
X759714Y616712D03*
D42*
X753110Y616712D03*
D20*
X743458Y616712D03*
X730758Y616712D03*
D44*
X723773Y616712D03*
D23*
X719201Y616712D03*
D43*
X696595Y616712D03*
D17*
X689737Y616712D03*
D23*
X684403Y616712D03*
D13*
X675386Y616712D03*
D43*
X669417Y616712D03*
D17*
X662559Y616712D03*
D13*
X653034Y616712D03*
X643636Y616712D03*
D10*
X629793Y616712D03*
X617601Y616712D03*
D43*
X610489Y616712D03*
D17*
X603631Y616712D03*
X599567Y616712D03*
D13*
X588264Y616712D03*
X564388Y616712D03*
D41*
X772033Y616966D03*
D11*
X765810Y616966D03*
D19*
X756031Y616966D03*
D40*
X743458Y616966D03*
D10*
X730377Y616966D03*
D18*
X724027Y616966D03*
D26*
X715518Y616966D03*
D41*
X696341Y616966D03*
D11*
X690118Y616966D03*
D23*
X684403Y616966D03*
X675259Y616966D03*
D40*
X669036Y616966D03*
D23*
X662813Y616966D03*
D50*
X653161Y616966D03*
D26*
X639826Y616966D03*
D10*
X629793Y616966D03*
X617601Y616966D03*
D41*
X610235Y616966D03*
D23*
X603885Y616966D03*
D17*
X599567Y616966D03*
D13*
X588264Y616966D03*
X564388Y616966D03*
D10*
X771525Y617220D03*
D20*
X766318Y617220D03*
D19*
X756031Y617220D03*
D40*
X743458Y617220D03*
D27*
X729742Y617220D03*
D23*
X724535Y617220D03*
D26*
X715518Y617220D03*
D10*
X695833Y617220D03*
D20*
X690626Y617220D03*
D23*
X684657Y617220D03*
X675259Y617220D03*
D10*
X668655Y617220D03*
D41*
X663321Y617220D03*
D50*
X653161Y617220D03*
D26*
X639826Y617220D03*
D20*
X629920Y617220D03*
X617474Y617220D03*
D10*
X609727Y617220D03*
D41*
X604393Y617220D03*
D17*
X599567Y617220D03*
D13*
X588264Y617220D03*
X564388Y617220D03*
D36*
X768985Y617474D03*
D39*
X756158Y617474D03*
D40*
X743458Y617474D03*
D32*
X727583Y617474D03*
D26*
X715518Y617474D03*
D35*
X693166Y617474D03*
D23*
X684657Y617474D03*
X675005Y617474D03*
D35*
X665988Y617474D03*
D50*
X653161Y617474D03*
D26*
X639826Y617474D03*
D20*
X629920Y617474D03*
X617474Y617474D03*
D35*
X607060Y617474D03*
D17*
X599567Y617474D03*
D13*
X588264Y617474D03*
X564388Y617474D03*
D35*
X768858Y617728D03*
D36*
X756285Y617728D03*
D11*
X743458Y617728D03*
D34*
X727456Y617728D03*
D26*
X715518Y617728D03*
D35*
X693166Y617728D03*
D23*
X684657Y617728D03*
X675005Y617728D03*
D35*
X665988Y617728D03*
D50*
X653161Y617728D03*
D26*
X639826Y617728D03*
D20*
X629920Y617728D03*
X617474Y617728D03*
D35*
X607060Y617728D03*
D17*
X599567Y617728D03*
D13*
X588264Y617728D03*
X564388Y617728D03*
D32*
X768731Y617982D03*
D35*
X756412Y617982D03*
D11*
X743458Y617982D03*
D33*
X727329Y617982D03*
D26*
X715518Y617982D03*
D32*
X693039Y617982D03*
D23*
X684911Y617982D03*
X674751Y617982D03*
D32*
X665861Y617982D03*
D50*
X653161Y617982D03*
D26*
X639826Y617982D03*
D20*
X629920Y617982D03*
D41*
X617347Y617982D03*
D32*
X606933Y617982D03*
D17*
X599567Y617982D03*
D13*
X588264Y617982D03*
X564388Y617982D03*
D34*
X768604Y618236D03*
D32*
X756539Y618236D03*
D11*
X743458Y618236D03*
D29*
X727202Y618236D03*
D26*
X715518Y618236D03*
D34*
X692912Y618236D03*
D23*
X684911Y618236D03*
X674751Y618236D03*
D34*
X665734Y618236D03*
D50*
X653161Y618236D03*
D26*
X639826Y618236D03*
D41*
X630047Y618236D03*
X617347Y618236D03*
D34*
X606806Y618236D03*
D13*
X599694Y618236D03*
X588264Y618236D03*
X564388Y618236D03*
D29*
X768604Y618490D03*
D33*
X756793Y618490D03*
D11*
X743458Y618490D03*
D47*
X727075Y618490D03*
D26*
X715518Y618490D03*
D29*
X692912Y618490D03*
D23*
X685165Y618490D03*
X674751Y618490D03*
D33*
X665607Y618490D03*
D50*
X653161Y618490D03*
D26*
X639826Y618490D03*
D41*
X630047Y618490D03*
X617347Y618490D03*
D33*
X606679Y618490D03*
D13*
X599694Y618490D03*
X588264Y618490D03*
X564388Y618490D03*
D48*
X768604Y618744D03*
D47*
X757047Y618744D03*
D13*
X743458Y618744D03*
D24*
X726821Y618744D03*
D26*
X715518Y618744D03*
D48*
X692912Y618744D03*
D23*
X685165Y618744D03*
X674497Y618744D03*
D48*
X665734Y618744D03*
D50*
X653161Y618744D03*
D26*
X639826Y618744D03*
D41*
X630047Y618744D03*
X617347Y618744D03*
D48*
X606806Y618744D03*
D13*
X599694Y618744D03*
X588264Y618744D03*
X564388Y618744D03*
D38*
X768858Y618998D03*
D22*
X757428Y618998D03*
D13*
X743458Y618998D03*
D38*
X726694Y618998D03*
D26*
X715518Y618998D03*
D38*
X692912Y618998D03*
D23*
X685419Y618998D03*
X674497Y618998D03*
D38*
X665734Y618998D03*
D50*
X653161Y618998D03*
D26*
X639826Y618998D03*
D40*
X630174Y618998D03*
X617220Y618998D03*
D38*
X606806Y618998D03*
D13*
X599694Y618998D03*
X588264Y618998D03*
X564388Y618998D03*
D30*
X768858Y619252D03*
X758190Y619252D03*
D21*
X743458Y619252D03*
D30*
X726694Y619252D03*
D19*
X715391Y619252D03*
D31*
X693039Y619252D03*
D13*
X685546Y619252D03*
X674370Y619252D03*
D31*
X665861Y619252D03*
D51*
X653034Y619252D03*
D39*
X639826Y619252D03*
D43*
X630047Y619252D03*
D11*
X617220Y619252D03*
D31*
X606933Y619252D03*
D13*
X599694Y619252D03*
D17*
X588391Y619252D03*
D13*
X564388Y619252D03*
D40*
X768858Y619506D03*
D41*
X726821Y619506D03*
D40*
X693166Y619506D03*
X665988Y619506D03*
X607060Y619506D03*
D13*
X599694Y619506D03*
X564388Y619506D03*
D17*
X599821Y619760D03*
D13*
X564388Y619760D03*
D17*
X599821Y620014D03*
D13*
X564388Y620014D03*
D17*
X599821Y620268D03*
D13*
X564388Y620268D03*
X599948Y620522D03*
X564388Y620522D03*
X599948Y620776D03*
X564388Y620776D03*
X599948Y621030D03*
D17*
X564515Y621030D03*
D13*
X599948Y621284D03*
X599948Y621538D03*
X599948Y621792D03*
X599948Y622046D03*
X599948Y622300D03*
X599948Y622554D03*
D23*
X600075Y622808D03*
X600075Y623062D03*
X600075Y623316D03*
D13*
X600202Y623570D03*
X600202Y623824D03*
X600202Y624078D03*
X600202Y624332D03*
X600202Y624586D03*
X600202Y624840D03*
D23*
X600329Y625094D03*
X600329Y625348D03*
X600329Y625602D03*
X600329Y625856D03*
X600329Y626110D03*
X600329Y626364D03*
X600329Y626618D03*
X600329Y626872D03*
D13*
X600456Y627126D03*
D23*
X600583Y627380D03*
X600583Y627634D03*
X600583Y627888D03*
D31*
X687197Y628142D03*
D30*
X665988Y628142D03*
D16*
X646557Y628142D03*
D23*
X600583Y628142D03*
D47*
X769239Y628396D03*
D43*
X752221Y628396D03*
D41*
X736727Y628396D03*
D52*
X725805Y628396D03*
D43*
X715137Y628396D03*
X702437Y628396D03*
D24*
X687197Y628396D03*
X665861Y628396D03*
D29*
X646684Y628396D03*
D34*
X630682Y628396D03*
D53*
X615188Y628396D03*
D23*
X600583Y628396D03*
D19*
X768223Y628650D03*
D43*
X752221Y628650D03*
D40*
X736854Y628650D03*
D54*
X725678Y628650D03*
D40*
X715264Y628650D03*
X702310Y628650D03*
D32*
X687197Y628650D03*
D34*
X665988Y628650D03*
D19*
X646811Y628650D03*
D32*
X630555Y628650D03*
D53*
X615188Y628650D03*
D23*
X600583Y628650D03*
D55*
X767715Y628904D03*
D40*
X752094Y628904D03*
X736854Y628904D03*
D54*
X725678Y628904D03*
D43*
X715137Y628904D03*
D40*
X702310Y628904D03*
D19*
X687197Y628904D03*
D39*
X665988Y628904D03*
D46*
X646938Y628904D03*
D32*
X630555Y628904D03*
D53*
X615188Y628904D03*
D23*
X600583Y628904D03*
D56*
X767334Y629158D03*
D43*
X751967Y629158D03*
D41*
X736981Y629158D03*
D54*
X725678Y629158D03*
D43*
X715137Y629158D03*
D40*
X702310Y629158D03*
D55*
X687197Y629158D03*
D15*
X665861Y629158D03*
D57*
X646938Y629158D03*
D32*
X630555Y629158D03*
D53*
X615188Y629158D03*
D23*
X600583Y629158D03*
D58*
X766953Y629412D03*
D43*
X751967Y629412D03*
D40*
X737108Y629412D03*
D54*
X725678Y629412D03*
D43*
X715137Y629412D03*
D40*
X702310Y629412D03*
D59*
X687197Y629412D03*
D55*
X665861Y629412D03*
D60*
X647192Y629412D03*
D32*
X630555Y629412D03*
D53*
X615188Y629412D03*
D23*
X600583Y629412D03*
D50*
X766699Y629666D03*
D40*
X751840Y629666D03*
X737108Y629666D03*
D54*
X725678Y629666D03*
D43*
X715137Y629666D03*
D40*
X702310Y629666D03*
D58*
X687197Y629666D03*
D56*
X665988Y629666D03*
D61*
X647065Y629666D03*
D32*
X630555Y629666D03*
D53*
X615188Y629666D03*
D11*
X600710Y629666D03*
D60*
X766572Y629920D03*
D43*
X751713Y629920D03*
D41*
X737235Y629920D03*
D54*
X725678Y629920D03*
D43*
X715137Y629920D03*
D40*
X702310Y629920D03*
D50*
X687197Y629920D03*
D57*
X665988Y629920D03*
D62*
X647065Y629920D03*
D32*
X630555Y629920D03*
D53*
X615188Y629920D03*
D11*
X600710Y629920D03*
D54*
X766318Y630174D03*
D43*
X751713Y630174D03*
D40*
X737362Y630174D03*
D54*
X725678Y630174D03*
D43*
X715137Y630174D03*
D40*
X702310Y630174D03*
D52*
X687197Y630174D03*
D51*
X665988Y630174D03*
D63*
X646938Y630174D03*
D32*
X630555Y630174D03*
D53*
X615188Y630174D03*
D11*
X600710Y630174D03*
D61*
X766191Y630428D03*
D40*
X751586Y630428D03*
X737362Y630428D03*
D54*
X725678Y630428D03*
D43*
X715137Y630428D03*
D40*
X702310Y630428D03*
D16*
X691261Y630428D03*
X683133Y630428D03*
D27*
X669798Y630428D03*
D31*
X662051Y630428D03*
D22*
X650748Y630428D03*
D16*
X642239Y630428D03*
D45*
X634492Y630428D03*
D13*
X633222Y630428D03*
D41*
X630555Y630428D03*
D17*
X628015Y630428D03*
D45*
X626872Y630428D03*
D53*
X615188Y630428D03*
D11*
X600710Y630428D03*
D40*
X771398Y630682D03*
D45*
X769620Y630682D03*
D32*
X763397Y630682D03*
D43*
X751459Y630682D03*
D40*
X737616Y630682D03*
D52*
X725805Y630682D03*
D43*
X715137Y630682D03*
D40*
X702310Y630682D03*
D27*
X691896Y630682D03*
X682498Y630682D03*
D42*
X670306Y630682D03*
D28*
X661543Y630682D03*
D16*
X651383Y630682D03*
D28*
X641477Y630682D03*
D43*
X630555Y630682D03*
D53*
X615188Y630682D03*
D23*
X600837Y630682D03*
D43*
X771525Y630936D03*
D14*
X761619Y630936D03*
D40*
X751332Y630936D03*
X737616Y630936D03*
X730758Y630936D03*
D43*
X715137Y630936D03*
D40*
X702310Y630936D03*
D28*
X692277Y630936D03*
X682117Y630936D03*
D10*
X670687Y630936D03*
X661289Y630936D03*
D28*
X651891Y630936D03*
D42*
X641096Y630936D03*
D43*
X630555Y630936D03*
X620649Y630936D03*
D23*
X600837Y630936D03*
D43*
X771525Y631190D03*
D30*
X760984Y631190D03*
D40*
X751332Y631190D03*
X737616Y631190D03*
X730758Y631190D03*
D43*
X715137Y631190D03*
D40*
X702310Y631190D03*
D42*
X692658Y631190D03*
X681736Y631190D03*
D10*
X670941Y631190D03*
D20*
X660908Y631190D03*
X652272Y631190D03*
D10*
X640715Y631190D03*
D43*
X630555Y631190D03*
X620649Y631190D03*
D23*
X600837Y631190D03*
D43*
X771525Y631444D03*
D27*
X760476Y631444D03*
D43*
X751205Y631444D03*
D40*
X737870Y631444D03*
X730758Y631444D03*
D43*
X715137Y631444D03*
D40*
X702310Y631444D03*
D10*
X692785Y631444D03*
X681609Y631444D03*
D41*
X671195Y631444D03*
D20*
X660654Y631444D03*
D40*
X652526Y631444D03*
D41*
X640461Y631444D03*
D43*
X630555Y631444D03*
X620649Y631444D03*
D23*
X600837Y631444D03*
D43*
X771525Y631698D03*
D28*
X760095Y631698D03*
D40*
X751078Y631698D03*
X737870Y631698D03*
X730758Y631698D03*
D43*
X715137Y631698D03*
D40*
X702310Y631698D03*
D10*
X693039Y631698D03*
X681355Y631698D03*
D20*
X671322Y631698D03*
D41*
X660527Y631698D03*
D11*
X652780Y631698D03*
D41*
X640207Y631698D03*
D43*
X630555Y631698D03*
X620649Y631698D03*
D11*
X600964Y631698D03*
D43*
X771525Y631952D03*
D10*
X759841Y631952D03*
D43*
X750951Y631952D03*
D40*
X737870Y631952D03*
X730758Y631952D03*
D43*
X715137Y631952D03*
D40*
X702310Y631952D03*
D10*
X693293Y631952D03*
X681101Y631952D03*
D41*
X671449Y631952D03*
X660273Y631952D03*
D13*
X653034Y631952D03*
D40*
X640080Y631952D03*
D43*
X630555Y631952D03*
X620649Y631952D03*
D11*
X600964Y631952D03*
D43*
X771525Y632206D03*
D10*
X759587Y632206D03*
D43*
X750951Y632206D03*
D40*
X738124Y632206D03*
X730758Y632206D03*
D43*
X715137Y632206D03*
D40*
X702310Y632206D03*
D20*
X693420Y632206D03*
X680974Y632206D03*
D40*
X671576Y632206D03*
D41*
X660273Y632206D03*
D21*
X653288Y632206D03*
D41*
X639953Y632206D03*
D43*
X630555Y632206D03*
X620649Y632206D03*
D11*
X600964Y632206D03*
D43*
X771525Y632460D03*
D20*
X759206Y632460D03*
D40*
X750824Y632460D03*
X738124Y632460D03*
X730758Y632460D03*
D43*
X715137Y632460D03*
D40*
X702310Y632460D03*
D20*
X693674Y632460D03*
X680720Y632460D03*
D40*
X671830Y632460D03*
X660146Y632460D03*
D18*
X653415Y632460D03*
D40*
X639826Y632460D03*
D43*
X630555Y632460D03*
X620649Y632460D03*
D11*
X600964Y632460D03*
D43*
X771525Y632714D03*
D41*
X759079Y632714D03*
D43*
X750697Y632714D03*
D40*
X738124Y632714D03*
X730758Y632714D03*
D43*
X715137Y632714D03*
D40*
X702310Y632714D03*
D41*
X693801Y632714D03*
X680593Y632714D03*
D40*
X671830Y632714D03*
D41*
X660019Y632714D03*
D37*
X653542Y632714D03*
D40*
X639826Y632714D03*
D43*
X630555Y632714D03*
X620649Y632714D03*
D11*
X600964Y632714D03*
D43*
X771525Y632968D03*
D41*
X758825Y632968D03*
D43*
X750697Y632968D03*
D40*
X738378Y632968D03*
X730758Y632968D03*
D43*
X715137Y632968D03*
D40*
X702310Y632968D03*
D41*
X694055Y632968D03*
X680339Y632968D03*
D40*
X671830Y632968D03*
X659892Y632968D03*
X639572Y632968D03*
D43*
X630555Y632968D03*
X620649Y632968D03*
D11*
X600964Y632968D03*
D43*
X771525Y633222D03*
D41*
X758571Y633222D03*
D40*
X750570Y633222D03*
X738378Y633222D03*
X730758Y633222D03*
D43*
X715137Y633222D03*
D40*
X702310Y633222D03*
D41*
X694055Y633222D03*
X680339Y633222D03*
D40*
X672084Y633222D03*
X659892Y633222D03*
X639572Y633222D03*
D43*
X630555Y633222D03*
X620649Y633222D03*
D11*
X600964Y633222D03*
D43*
X771525Y633476D03*
D41*
X758571Y633476D03*
D43*
X750443Y633476D03*
X738505Y633476D03*
D40*
X730758Y633476D03*
D43*
X715137Y633476D03*
D40*
X702310Y633476D03*
D41*
X694309Y633476D03*
X680085Y633476D03*
D40*
X672084Y633476D03*
D43*
X659765Y633476D03*
D40*
X639572Y633476D03*
D43*
X630555Y633476D03*
X620649Y633476D03*
D11*
X600964Y633476D03*
D43*
X771525Y633730D03*
D41*
X758317Y633730D03*
D43*
X750443Y633730D03*
D40*
X738632Y633730D03*
X730758Y633730D03*
D43*
X715137Y633730D03*
D40*
X702310Y633730D03*
X694436Y633730D03*
D41*
X680085Y633730D03*
D40*
X672084Y633730D03*
X659638Y633730D03*
X639572Y633730D03*
D43*
X630555Y633730D03*
X620649Y633730D03*
D11*
X600964Y633730D03*
D43*
X771525Y633984D03*
D40*
X758190Y633984D03*
X750316Y633984D03*
X738632Y633984D03*
X730758Y633984D03*
D43*
X715137Y633984D03*
D40*
X702310Y633984D03*
X694436Y633984D03*
X679958Y633984D03*
D43*
X672211Y633984D03*
D40*
X659638Y633984D03*
X639572Y633984D03*
D43*
X630555Y633984D03*
X620649Y633984D03*
D11*
X601218Y633984D03*
D43*
X771525Y634238D03*
D41*
X758063Y634238D03*
D63*
X744474Y634238D03*
D40*
X730758Y634238D03*
D43*
X715137Y634238D03*
D40*
X702310Y634238D03*
D41*
X694563Y634238D03*
X679831Y634238D03*
D43*
X672211Y634238D03*
D40*
X659638Y634238D03*
X639572Y634238D03*
D43*
X630555Y634238D03*
X620649Y634238D03*
D11*
X601218Y634238D03*
D43*
X771525Y634492D03*
D40*
X757936Y634492D03*
D63*
X744474Y634492D03*
D40*
X730758Y634492D03*
D43*
X715137Y634492D03*
D40*
X702310Y634492D03*
X694690Y634492D03*
X679704Y634492D03*
X672338Y634492D03*
X659638Y634492D03*
X639572Y634492D03*
D43*
X630555Y634492D03*
X620649Y634492D03*
D11*
X601218Y634492D03*
D43*
X771525Y634746D03*
D40*
X757936Y634746D03*
D63*
X744474Y634746D03*
D40*
X730758Y634746D03*
D43*
X715137Y634746D03*
D40*
X702310Y634746D03*
X694690Y634746D03*
X679704Y634746D03*
X672338Y634746D03*
D43*
X659511Y634746D03*
D40*
X639572Y634746D03*
D43*
X630555Y634746D03*
X620649Y634746D03*
D11*
X601218Y634746D03*
D43*
X771525Y635000D03*
D40*
X757682Y635000D03*
D53*
X744474Y635000D03*
D40*
X730758Y635000D03*
D43*
X715137Y635000D03*
D40*
X702310Y635000D03*
D41*
X694817Y635000D03*
X679577Y635000D03*
D40*
X672338Y635000D03*
D43*
X659511Y635000D03*
D40*
X639572Y635000D03*
D43*
X630555Y635000D03*
X620649Y635000D03*
D11*
X601218Y635000D03*
D43*
X771525Y635254D03*
D40*
X757682Y635254D03*
D53*
X744474Y635254D03*
D40*
X730758Y635254D03*
D43*
X715137Y635254D03*
D40*
X702310Y635254D03*
X694944Y635254D03*
X679450Y635254D03*
X672338Y635254D03*
D43*
X659511Y635254D03*
D41*
X639699Y635254D03*
D43*
X630555Y635254D03*
X620649Y635254D03*
D11*
X601218Y635254D03*
D43*
X771525Y635508D03*
X757555Y635508D03*
D53*
X744474Y635508D03*
D40*
X730758Y635508D03*
D43*
X715137Y635508D03*
D40*
X702310Y635508D03*
X694944Y635508D03*
X679450Y635508D03*
X672338Y635508D03*
D43*
X659511Y635508D03*
D41*
X639699Y635508D03*
D43*
X630555Y635508D03*
X620649Y635508D03*
D11*
X601218Y635508D03*
D43*
X771525Y635762D03*
D40*
X757428Y635762D03*
D54*
X744474Y635762D03*
D40*
X730758Y635762D03*
D43*
X715137Y635762D03*
D40*
X702310Y635762D03*
X694944Y635762D03*
X679450Y635762D03*
X672338Y635762D03*
D43*
X659511Y635762D03*
D41*
X639953Y635762D03*
D43*
X630555Y635762D03*
X620649Y635762D03*
D11*
X601218Y635762D03*
D43*
X771525Y636016D03*
D40*
X757428Y636016D03*
D54*
X744474Y636016D03*
D40*
X730758Y636016D03*
D43*
X715137Y636016D03*
D40*
X702310Y636016D03*
X694944Y636016D03*
X679450Y636016D03*
X672338Y636016D03*
D43*
X659511Y636016D03*
D20*
X640080Y636016D03*
D43*
X630555Y636016D03*
X620649Y636016D03*
X601345Y636016D03*
X771525Y636270D03*
D40*
X757428Y636270D03*
D52*
X744601Y636270D03*
D40*
X730758Y636270D03*
D43*
X715137Y636270D03*
D40*
X702310Y636270D03*
D43*
X695071Y636270D03*
D41*
X679323Y636270D03*
D40*
X672338Y636270D03*
X659384Y636270D03*
D42*
X640334Y636270D03*
D43*
X630555Y636270D03*
X620649Y636270D03*
X601345Y636270D03*
X771525Y636524D03*
X757301Y636524D03*
X749427Y636524D03*
D40*
X739648Y636524D03*
X730758Y636524D03*
D43*
X715137Y636524D03*
D40*
X702310Y636524D03*
X695198Y636524D03*
X679196Y636524D03*
X672338Y636524D03*
X659384Y636524D03*
D42*
X640588Y636524D03*
D43*
X630555Y636524D03*
X620649Y636524D03*
X601345Y636524D03*
X771525Y636778D03*
D40*
X757174Y636778D03*
X749300Y636778D03*
X739648Y636778D03*
X730758Y636778D03*
D43*
X715137Y636778D03*
D40*
X702310Y636778D03*
X695198Y636778D03*
X679196Y636778D03*
X672338Y636778D03*
X659384Y636778D03*
D31*
X640969Y636778D03*
D43*
X630555Y636778D03*
X620649Y636778D03*
X601345Y636778D03*
X771525Y637032D03*
D40*
X757174Y637032D03*
D43*
X749173Y637032D03*
X739775Y637032D03*
D40*
X730758Y637032D03*
D43*
X715137Y637032D03*
D40*
X702310Y637032D03*
X695198Y637032D03*
X679196Y637032D03*
X672338Y637032D03*
X659384Y637032D03*
D12*
X641604Y637032D03*
D43*
X630555Y637032D03*
X620649Y637032D03*
X601345Y637032D03*
X771525Y637286D03*
D40*
X757174Y637286D03*
D43*
X749173Y637286D03*
D40*
X739902Y637286D03*
X730758Y637286D03*
D43*
X715137Y637286D03*
D40*
X702310Y637286D03*
X695198Y637286D03*
X679196Y637286D03*
X672338Y637286D03*
X659384Y637286D03*
D24*
X642239Y637286D03*
D43*
X630555Y637286D03*
X620649Y637286D03*
D11*
X601472Y637286D03*
D43*
X771525Y637540D03*
D40*
X757174Y637540D03*
X749046Y637540D03*
X739902Y637540D03*
X730758Y637540D03*
D43*
X715137Y637540D03*
D40*
X702310Y637540D03*
X695198Y637540D03*
X679196Y637540D03*
X672338Y637540D03*
X659384Y637540D03*
D34*
X643128Y637540D03*
D43*
X630555Y637540D03*
X620649Y637540D03*
D11*
X601472Y637540D03*
D43*
X771525Y637794D03*
D40*
X757174Y637794D03*
D43*
X748919Y637794D03*
X740029Y637794D03*
D40*
X730758Y637794D03*
D43*
X715137Y637794D03*
D40*
X702310Y637794D03*
X695198Y637794D03*
X679196Y637794D03*
X672338Y637794D03*
X659384Y637794D03*
D39*
X643890Y637794D03*
D43*
X630555Y637794D03*
X620649Y637794D03*
D11*
X601472Y637794D03*
D43*
X771525Y638048D03*
D40*
X757174Y638048D03*
D43*
X748919Y638048D03*
D40*
X740156Y638048D03*
X730758Y638048D03*
D43*
X715137Y638048D03*
D40*
X702310Y638048D03*
X695198Y638048D03*
X679196Y638048D03*
X672338Y638048D03*
X659384Y638048D03*
D15*
X644525Y638048D03*
D43*
X630555Y638048D03*
X620649Y638048D03*
D11*
X601472Y638048D03*
D43*
X771525Y638302D03*
D40*
X757174Y638302D03*
X748792Y638302D03*
X740156Y638302D03*
X730758Y638302D03*
D43*
X715137Y638302D03*
D40*
X702310Y638302D03*
X695198Y638302D03*
X679196Y638302D03*
X672338Y638302D03*
X659384Y638302D03*
D55*
X645033Y638302D03*
D43*
X630555Y638302D03*
D40*
X620522Y638302D03*
D43*
X601599Y638302D03*
X771525Y638556D03*
D40*
X757174Y638556D03*
D43*
X748665Y638556D03*
D40*
X740410Y638556D03*
X730758Y638556D03*
D64*
X708660Y638556D03*
D40*
X695198Y638556D03*
X679196Y638556D03*
X672338Y638556D03*
X659384Y638556D03*
D55*
X645541Y638556D03*
D43*
X630555Y638556D03*
D53*
X615188Y638556D03*
D43*
X601599Y638556D03*
X771525Y638810D03*
D40*
X757174Y638810D03*
D43*
X748665Y638810D03*
D40*
X740410Y638810D03*
X730758Y638810D03*
D64*
X708660Y638810D03*
D40*
X695198Y638810D03*
X679196Y638810D03*
X672338Y638810D03*
X659384Y638810D03*
D55*
X646049Y638810D03*
D43*
X630555Y638810D03*
D53*
X615188Y638810D03*
D43*
X601599Y638810D03*
X771525Y639064D03*
D40*
X757174Y639064D03*
X748538Y639064D03*
D43*
X740537Y639064D03*
D40*
X730758Y639064D03*
D64*
X708660Y639064D03*
D40*
X695198Y639064D03*
X679196Y639064D03*
X672338Y639064D03*
X659384Y639064D03*
D55*
X646557Y639064D03*
D43*
X630555Y639064D03*
D53*
X615188Y639064D03*
D43*
X601599Y639064D03*
X771525Y639318D03*
D40*
X757174Y639318D03*
D43*
X748411Y639318D03*
D40*
X740664Y639318D03*
X730758Y639318D03*
D64*
X708660Y639318D03*
D40*
X695198Y639318D03*
X679196Y639318D03*
X672338Y639318D03*
X659384Y639318D03*
D15*
X647065Y639318D03*
D43*
X630555Y639318D03*
D53*
X615188Y639318D03*
D43*
X601599Y639318D03*
X771525Y639572D03*
D40*
X757174Y639572D03*
X748284Y639572D03*
X740664Y639572D03*
X730758Y639572D03*
D64*
X708660Y639572D03*
D40*
X695198Y639572D03*
X679196Y639572D03*
X672338Y639572D03*
X659384Y639572D03*
D39*
X647700Y639572D03*
D43*
X630555Y639572D03*
D53*
X615188Y639572D03*
D43*
X601599Y639572D03*
X771525Y639826D03*
D40*
X757174Y639826D03*
D43*
X748157Y639826D03*
X740791Y639826D03*
D40*
X730758Y639826D03*
D64*
X708660Y639826D03*
D40*
X695198Y639826D03*
X679196Y639826D03*
X672338Y639826D03*
X659384Y639826D03*
D32*
X648335Y639826D03*
D43*
X630555Y639826D03*
D53*
X615188Y639826D03*
D43*
X601599Y639826D03*
X771525Y640080D03*
D40*
X757174Y640080D03*
D43*
X748157Y640080D03*
D40*
X740918Y640080D03*
X730758Y640080D03*
D64*
X708660Y640080D03*
D40*
X695198Y640080D03*
X679196Y640080D03*
X672338Y640080D03*
X659384Y640080D03*
D48*
X649224Y640080D03*
D43*
X630555Y640080D03*
D53*
X615188Y640080D03*
D43*
X601599Y640080D03*
X771525Y640334D03*
D40*
X757174Y640334D03*
X748030Y640334D03*
X740918Y640334D03*
X730758Y640334D03*
D64*
X708660Y640334D03*
D40*
X695198Y640334D03*
X679196Y640334D03*
X672338Y640334D03*
X659384Y640334D03*
D38*
X649986Y640334D03*
D43*
X630555Y640334D03*
D53*
X615188Y640334D03*
D40*
X601726Y640334D03*
D43*
X771525Y640588D03*
D40*
X757174Y640588D03*
D43*
X747903Y640588D03*
X741045Y640588D03*
D40*
X730758Y640588D03*
D64*
X708660Y640588D03*
D40*
X695198Y640588D03*
X679196Y640588D03*
X672338Y640588D03*
X659384Y640588D03*
D31*
X650621Y640588D03*
D43*
X630555Y640588D03*
D53*
X615188Y640588D03*
D43*
X601853Y640588D03*
X771525Y640842D03*
D40*
X757428Y640842D03*
D43*
X747903Y640842D03*
D40*
X741172Y640842D03*
X730758Y640842D03*
X715010Y640842D03*
X702310Y640842D03*
X695198Y640842D03*
X679196Y640842D03*
X672338Y640842D03*
X659384Y640842D03*
D28*
X651129Y640842D03*
D43*
X630555Y640842D03*
D40*
X620522Y640842D03*
D43*
X601853Y640842D03*
X771525Y641096D03*
D40*
X757428Y641096D03*
X747776Y641096D03*
X741172Y641096D03*
X730758Y641096D03*
D43*
X715137Y641096D03*
D40*
X702310Y641096D03*
D43*
X695071Y641096D03*
D41*
X679323Y641096D03*
D40*
X672338Y641096D03*
X659384Y641096D03*
D10*
X651383Y641096D03*
D43*
X630555Y641096D03*
X620649Y641096D03*
X601853Y641096D03*
X771525Y641350D03*
D40*
X757428Y641350D03*
D43*
X747649Y641350D03*
X741299Y641350D03*
D40*
X730758Y641350D03*
D43*
X715137Y641350D03*
D40*
X702310Y641350D03*
X694944Y641350D03*
X679450Y641350D03*
X672338Y641350D03*
X659384Y641350D03*
D10*
X651637Y641350D03*
D43*
X630555Y641350D03*
X620649Y641350D03*
X601853Y641350D03*
X771525Y641604D03*
D40*
X757428Y641604D03*
D43*
X747649Y641604D03*
D40*
X741426Y641604D03*
X730758Y641604D03*
D43*
X715137Y641604D03*
D40*
X702310Y641604D03*
X694944Y641604D03*
X679450Y641604D03*
X672338Y641604D03*
X659384Y641604D03*
D20*
X651764Y641604D03*
D43*
X630555Y641604D03*
X620649Y641604D03*
X601853Y641604D03*
X771525Y641858D03*
D41*
X757555Y641858D03*
D40*
X747522Y641858D03*
X741426Y641858D03*
X730758Y641858D03*
D43*
X715137Y641858D03*
D40*
X702310Y641858D03*
X694944Y641858D03*
X679450Y641858D03*
X672338Y641858D03*
X659384Y641858D03*
D41*
X651891Y641858D03*
D43*
X630555Y641858D03*
X620649Y641858D03*
X601853Y641858D03*
X771525Y642112D03*
D40*
X757682Y642112D03*
D43*
X747395Y642112D03*
D40*
X741680Y642112D03*
X730758Y642112D03*
D43*
X715137Y642112D03*
D40*
X702310Y642112D03*
X694944Y642112D03*
D41*
X679577Y642112D03*
D40*
X672338Y642112D03*
X659384Y642112D03*
D41*
X652145Y642112D03*
D43*
X630555Y642112D03*
X620649Y642112D03*
X601853Y642112D03*
X771525Y642366D03*
D40*
X757682Y642366D03*
D43*
X747395Y642366D03*
D40*
X741680Y642366D03*
X730758Y642366D03*
D43*
X715137Y642366D03*
D40*
X702310Y642366D03*
X694690Y642366D03*
D41*
X679577Y642366D03*
D40*
X672338Y642366D03*
X659384Y642366D03*
D41*
X652145Y642366D03*
D43*
X630555Y642366D03*
X620649Y642366D03*
D40*
X601980Y642366D03*
D43*
X771525Y642620D03*
D41*
X757809Y642620D03*
D43*
X747141Y642620D03*
D40*
X741680Y642620D03*
X730758Y642620D03*
D43*
X715137Y642620D03*
D40*
X702310Y642620D03*
X694690Y642620D03*
X679704Y642620D03*
X672338Y642620D03*
X659384Y642620D03*
X652272Y642620D03*
D43*
X630555Y642620D03*
X620649Y642620D03*
D40*
X601980Y642620D03*
D43*
X771525Y642874D03*
D40*
X757936Y642874D03*
D43*
X747141Y642874D03*
D40*
X741934Y642874D03*
X730758Y642874D03*
D43*
X715137Y642874D03*
D40*
X702310Y642874D03*
X694690Y642874D03*
D41*
X679831Y642874D03*
D40*
X672338Y642874D03*
X659384Y642874D03*
X652272Y642874D03*
D43*
X630555Y642874D03*
X620649Y642874D03*
D40*
X601980Y642874D03*
D43*
X771525Y643128D03*
D41*
X758063Y643128D03*
D43*
X747141Y643128D03*
D40*
X741934Y643128D03*
X730758Y643128D03*
D43*
X715137Y643128D03*
D40*
X702310Y643128D03*
D41*
X694563Y643128D03*
X679831Y643128D03*
D40*
X672338Y643128D03*
X659384Y643128D03*
X652272Y643128D03*
D43*
X630555Y643128D03*
X620649Y643128D03*
D40*
X601980Y643128D03*
D43*
X771525Y643382D03*
D40*
X758190Y643382D03*
D43*
X746887Y643382D03*
D40*
X741934Y643382D03*
X730758Y643382D03*
D43*
X715137Y643382D03*
D40*
X702310Y643382D03*
X694436Y643382D03*
X679958Y643382D03*
X672338Y643382D03*
X659384Y643382D03*
X652272Y643382D03*
D43*
X630555Y643382D03*
X620649Y643382D03*
D40*
X601980Y643382D03*
D43*
X771525Y643636D03*
D41*
X758317Y643636D03*
D43*
X746887Y643636D03*
D40*
X742188Y643636D03*
X730758Y643636D03*
D43*
X715137Y643636D03*
D40*
X702310Y643636D03*
D41*
X694309Y643636D03*
X680085Y643636D03*
D40*
X672338Y643636D03*
X659384Y643636D03*
X652272Y643636D03*
D43*
X630555Y643636D03*
X620649Y643636D03*
D40*
X601980Y643636D03*
D43*
X771525Y643890D03*
D41*
X758571Y643890D03*
D43*
X746887Y643890D03*
D40*
X742188Y643890D03*
X730758Y643890D03*
D43*
X715137Y643890D03*
D40*
X702310Y643890D03*
X694182Y643890D03*
D41*
X680085Y643890D03*
D40*
X672338Y643890D03*
X659384Y643890D03*
X652272Y643890D03*
D43*
X630555Y643890D03*
X620649Y643890D03*
X602107Y643890D03*
X771525Y644144D03*
D20*
X758698Y644144D03*
D43*
X746633Y644144D03*
X742315Y644144D03*
D40*
X730758Y644144D03*
D43*
X715137Y644144D03*
D40*
X702310Y644144D03*
D41*
X694055Y644144D03*
X680339Y644144D03*
D40*
X672338Y644144D03*
X659384Y644144D03*
X652272Y644144D03*
D43*
X630555Y644144D03*
X620649Y644144D03*
X602107Y644144D03*
X771525Y644398D03*
D20*
X758952Y644398D03*
D43*
X746633Y644398D03*
D40*
X742442Y644398D03*
X730758Y644398D03*
D43*
X715137Y644398D03*
D40*
X702310Y644398D03*
D41*
X694055Y644398D03*
D20*
X680466Y644398D03*
D40*
X672338Y644398D03*
X659384Y644398D03*
X652272Y644398D03*
D43*
X630555Y644398D03*
X620649Y644398D03*
D40*
X602234Y644398D03*
D43*
X771525Y644652D03*
D10*
X759079Y644652D03*
D43*
X746633Y644652D03*
D40*
X742442Y644652D03*
X730758Y644652D03*
D43*
X715137Y644652D03*
D40*
X702310Y644652D03*
D41*
X693801Y644652D03*
X680593Y644652D03*
D40*
X672338Y644652D03*
X659384Y644652D03*
X652272Y644652D03*
D43*
X630555Y644652D03*
X620649Y644652D03*
D40*
X602234Y644652D03*
D43*
X771525Y644906D03*
D10*
X759333Y644906D03*
D43*
X746379Y644906D03*
X742569Y644906D03*
D40*
X730758Y644906D03*
D43*
X715137Y644906D03*
D40*
X702310Y644906D03*
D20*
X693674Y644906D03*
X680720Y644906D03*
D40*
X672338Y644906D03*
X659384Y644906D03*
X652018Y644906D03*
D44*
X639191Y644906D03*
D43*
X630555Y644906D03*
X620649Y644906D03*
D40*
X602234Y644906D03*
D43*
X771525Y645160D03*
D10*
X759587Y645160D03*
D43*
X746379Y645160D03*
D40*
X742696Y645160D03*
X730758Y645160D03*
D43*
X715137Y645160D03*
D40*
X702310Y645160D03*
D20*
X693420Y645160D03*
X680974Y645160D03*
D40*
X672338Y645160D03*
X659384Y645160D03*
X652018Y645160D03*
D37*
X639318Y645160D03*
D43*
X630555Y645160D03*
X620649Y645160D03*
D40*
X602234Y645160D03*
D43*
X771525Y645414D03*
D42*
X759968Y645414D03*
D11*
X746252Y645414D03*
D40*
X742696Y645414D03*
X730758Y645414D03*
D43*
X715137Y645414D03*
D40*
X702310Y645414D03*
D20*
X693166Y645414D03*
X681228Y645414D03*
D40*
X672338Y645414D03*
X659384Y645414D03*
D41*
X651891Y645414D03*
D21*
X639572Y645414D03*
D43*
X630555Y645414D03*
X620649Y645414D03*
D40*
X602234Y645414D03*
D43*
X771525Y645668D03*
D27*
X760222Y645668D03*
D43*
X746125Y645668D03*
D40*
X742950Y645668D03*
X730758Y645668D03*
D43*
X715137Y645668D03*
D40*
X702310Y645668D03*
D10*
X693039Y645668D03*
X681355Y645668D03*
D40*
X672338Y645668D03*
X659384Y645668D03*
D41*
X651637Y645668D03*
D13*
X639826Y645668D03*
D43*
X630555Y645668D03*
X620649Y645668D03*
D40*
X602234Y645668D03*
D43*
X771525Y645922D03*
D30*
X760730Y645922D03*
D43*
X746125Y645922D03*
D40*
X742950Y645922D03*
X730758Y645922D03*
D43*
X715137Y645922D03*
D40*
X702310Y645922D03*
D10*
X692785Y645922D03*
X681609Y645922D03*
D40*
X672338Y645922D03*
X659384Y645922D03*
D20*
X651510Y645922D03*
D11*
X640080Y645922D03*
D43*
X630555Y645922D03*
X620649Y645922D03*
D40*
X602234Y645922D03*
D43*
X771525Y646176D03*
D12*
X761238Y646176D03*
D43*
X745871Y646176D03*
D40*
X742950Y646176D03*
X730758Y646176D03*
D43*
X715137Y646176D03*
D40*
X702310Y646176D03*
D42*
X692404Y646176D03*
X681990Y646176D03*
D40*
X672338Y646176D03*
X659384Y646176D03*
D10*
X651129Y646176D03*
D41*
X640461Y646176D03*
D43*
X630555Y646176D03*
X620649Y646176D03*
D40*
X602234Y646176D03*
D43*
X771525Y646430D03*
D49*
X762127Y646430D03*
D12*
X744474Y646430D03*
D40*
X730758Y646430D03*
D43*
X715137Y646430D03*
D40*
X702310Y646430D03*
D27*
X692150Y646430D03*
D28*
X682371Y646430D03*
D40*
X672338Y646430D03*
X659384Y646430D03*
D42*
X650748Y646430D03*
X640842Y646430D03*
D43*
X630555Y646430D03*
D40*
X620522Y646430D03*
D41*
X602361Y646430D03*
D53*
X766064Y646684D03*
D12*
X744474Y646684D03*
D40*
X730758Y646684D03*
D43*
X715137Y646684D03*
D40*
X702310Y646684D03*
D31*
X691769Y646684D03*
X682625Y646684D03*
D40*
X672338Y646684D03*
X659384Y646684D03*
D31*
X650367Y646684D03*
X641223Y646684D03*
D43*
X630555Y646684D03*
D53*
X615188Y646684D03*
D41*
X602361Y646684D03*
D61*
X766191Y646938D03*
D30*
X744474Y646938D03*
D40*
X730758Y646938D03*
D43*
X715137Y646938D03*
D40*
X702310Y646938D03*
D14*
X691007Y646938D03*
X683387Y646938D03*
D40*
X672338Y646938D03*
X659384Y646938D03*
D14*
X649605Y646938D03*
D22*
X642112Y646938D03*
D34*
X630682Y646938D03*
D53*
X615188Y646938D03*
D40*
X602488Y646938D03*
D54*
X766318Y647192D03*
D30*
X744474Y647192D03*
D40*
X730758Y647192D03*
D43*
X715137Y647192D03*
D40*
X702310Y647192D03*
D52*
X687197Y647192D03*
D40*
X672338Y647192D03*
X659384Y647192D03*
D61*
X645541Y647192D03*
D32*
X630555Y647192D03*
D53*
X615188Y647192D03*
D40*
X602488Y647192D03*
D60*
X766572Y647446D03*
D30*
X744474Y647446D03*
D40*
X730758Y647446D03*
D43*
X715137Y647446D03*
D40*
X702310Y647446D03*
D58*
X687197Y647446D03*
D40*
X672338Y647446D03*
X659384Y647446D03*
D54*
X645414Y647446D03*
D32*
X630555Y647446D03*
D53*
X615188Y647446D03*
D40*
X602488Y647446D03*
D51*
X766826Y647700D03*
D27*
X744474Y647700D03*
D40*
X730758Y647700D03*
D43*
X715137Y647700D03*
D40*
X702310Y647700D03*
D65*
X687197Y647700D03*
D40*
X672338Y647700D03*
X659384Y647700D03*
D60*
X645160Y647700D03*
D32*
X630555Y647700D03*
D53*
X615188Y647700D03*
D40*
X602488Y647700D03*
D57*
X767080Y647954D03*
D27*
X744474Y647954D03*
D40*
X730758Y647954D03*
D43*
X715137Y647954D03*
D40*
X702310Y647954D03*
D59*
X687197Y647954D03*
D40*
X672338Y647954D03*
X659384Y647954D03*
D51*
X645160Y647954D03*
D32*
X630555Y647954D03*
D53*
X615188Y647954D03*
D40*
X602488Y647954D03*
D59*
X767461Y648208D03*
D28*
X744347Y648208D03*
D40*
X730758Y648208D03*
D43*
X715137Y648208D03*
D40*
X702310Y648208D03*
D15*
X687197Y648208D03*
D40*
X672338Y648208D03*
X659384Y648208D03*
D56*
X645160Y648208D03*
D32*
X630555Y648208D03*
D53*
X615188Y648208D03*
D40*
X602488Y648208D03*
D25*
X767842Y648462D03*
D42*
X744474Y648462D03*
D40*
X730758Y648462D03*
D43*
X715137Y648462D03*
D40*
X702310Y648462D03*
D36*
X687197Y648462D03*
D40*
X672338Y648462D03*
X659384Y648462D03*
D15*
X645287Y648462D03*
D32*
X630555Y648462D03*
D53*
X615188Y648462D03*
D41*
X602615Y648462D03*
D36*
X768477Y648716D03*
D42*
X744474Y648716D03*
D40*
X730758Y648716D03*
D43*
X715137Y648716D03*
D40*
X702310Y648716D03*
D33*
X687197Y648716D03*
D40*
X672338Y648716D03*
X659384Y648716D03*
D32*
X645541Y648716D03*
X630555Y648716D03*
D53*
X615188Y648716D03*
D41*
X602615Y648716D03*
D49*
X687197Y648970D03*
D22*
X645668Y648970D03*
D41*
X602615Y648970D03*
D42*
X687070Y649224D03*
D10*
X645795Y649224D03*
D41*
X602615Y649224D03*
X602615Y649478D03*
X602615Y649732D03*
D40*
X602742Y649986D03*
D41*
X602869Y650240D03*
X602869Y650494D03*
X602869Y650748D03*
X602869Y651002D03*
X602869Y651256D03*
X602869Y651510D03*
X602869Y651764D03*
X602869Y652018D03*
X602869Y652272D03*
D20*
X602996Y652526D03*
X602996Y652780D03*
D41*
X603123Y653034D03*
D37*
X699008Y653288D03*
D41*
X603123Y653288D03*
D37*
X699008Y653542D03*
D41*
X603123Y653542D03*
D37*
X699008Y653796D03*
D41*
X603123Y653796D03*
D37*
X699008Y654050D03*
D41*
X603123Y654050D03*
D21*
X699008Y654304D03*
D41*
X603123Y654304D03*
D18*
X698881Y654558D03*
D41*
X603123Y654558D03*
D18*
X698881Y654812D03*
D20*
X603250Y654812D03*
D21*
X699008Y655066D03*
D20*
X603250Y655066D03*
D21*
X699008Y655320D03*
D20*
X603250Y655320D03*
D21*
X699008Y655574D03*
D20*
X603250Y655574D03*
D21*
X699008Y655828D03*
D20*
X603250Y655828D03*
D21*
X699008Y656082D03*
D41*
X603377Y656082D03*
D17*
X698881Y656336D03*
D41*
X603377Y656336D03*
D17*
X698881Y656590D03*
D41*
X603377Y656590D03*
D17*
X698881Y656844D03*
D20*
X603504Y656844D03*
D17*
X698881Y657098D03*
D20*
X603504Y657098D03*
D17*
X698881Y657352D03*
D20*
X603504Y657352D03*
D17*
X698881Y657606D03*
D20*
X603504Y657606D03*
D17*
X698881Y657860D03*
D20*
X603504Y657860D03*
D17*
X698881Y658114D03*
D20*
X603504Y658114D03*
D13*
X698754Y658368D03*
D20*
X603504Y658368D03*
D13*
X698754Y658622D03*
D10*
X603631Y658622D03*
D13*
X698754Y658876D03*
D20*
X603758Y658876D03*
D13*
X698754Y659130D03*
D10*
X603631Y659130D03*
D23*
X698881Y659384D03*
D20*
X603758Y659384D03*
D13*
X698754Y659638D03*
D20*
X603758Y659638D03*
D55*
X760095Y659892D03*
D13*
X698754Y659892D03*
D20*
X603758Y659892D03*
D66*
X759587Y660146D03*
D13*
X698754Y660146D03*
D20*
X603758Y660146D03*
D67*
X759206Y660400D03*
D23*
X698627Y660400D03*
D20*
X603758Y660400D03*
D68*
X758698Y660654D03*
D23*
X698627Y660654D03*
D10*
X603885Y660654D03*
D69*
X758317Y660908D03*
D23*
X698627Y660908D03*
D10*
X603885Y660908D03*
D70*
X757809Y661162D03*
D23*
X698627Y661162D03*
D10*
X603885Y661162D03*
D71*
X757301Y661416D03*
D23*
X698627Y661416D03*
D10*
X603885Y661416D03*
D29*
X767334Y661670D03*
D65*
X748411Y661670D03*
D23*
X698627Y661670D03*
D10*
X603885Y661670D03*
D38*
X768604Y661924D03*
D19*
X746125Y661924D03*
D23*
X698627Y661924D03*
D20*
X604012Y661924D03*
D30*
X769366Y662178D03*
D45*
X748538Y662178D03*
D34*
X744220Y662178D03*
D11*
X698500Y662178D03*
D20*
X604012Y662178D03*
D28*
X770001Y662432D03*
D47*
X742569Y662432D03*
D43*
X698627Y662432D03*
D10*
X604139Y662432D03*
X770509Y662686D03*
D22*
X740918Y662686D03*
D43*
X698627Y662686D03*
D10*
X604139Y662686D03*
D20*
X770890Y662940D03*
D14*
X739521Y662940D03*
D43*
X698627Y662940D03*
D10*
X604139Y662940D03*
D41*
X771271Y663194D03*
D12*
X738124Y663194D03*
D43*
X698627Y663194D03*
D10*
X604139Y663194D03*
D40*
X771652Y663448D03*
D30*
X736854Y663448D03*
D43*
X698627Y663448D03*
D10*
X604139Y663448D03*
D40*
X771906Y663702D03*
D31*
X735711Y663702D03*
D43*
X698627Y663702D03*
D10*
X604139Y663702D03*
D43*
X772033Y663956D03*
D27*
X734314Y663956D03*
D40*
X698500Y663956D03*
D10*
X604139Y663956D03*
D43*
X772287Y664210D03*
D28*
X733171Y664210D03*
D40*
X698500Y664210D03*
D10*
X604139Y664210D03*
D11*
X772414Y664464D03*
D42*
X732028Y664464D03*
D40*
X698500Y664464D03*
D10*
X604393Y664464D03*
D11*
X772668Y664718D03*
D10*
X730885Y664718D03*
D40*
X698500Y664718D03*
D10*
X604393Y664718D03*
D11*
X772668Y664972D03*
D20*
X729742Y664972D03*
D40*
X698500Y664972D03*
D10*
X604393Y664972D03*
D23*
X772795Y665226D03*
D41*
X728599Y665226D03*
D40*
X698500Y665226D03*
D10*
X604393Y665226D03*
D23*
X772795Y665480D03*
D41*
X727583Y665480D03*
D40*
X698500Y665480D03*
D10*
X604393Y665480D03*
D23*
X772795Y665734D03*
D40*
X726440Y665734D03*
X698246Y665734D03*
D10*
X604393Y665734D03*
D11*
X772922Y665988D03*
D40*
X725424Y665988D03*
X698246Y665988D03*
D10*
X604393Y665988D03*
D11*
X772922Y666242D03*
D40*
X724408Y666242D03*
X698246Y666242D03*
D42*
X604520Y666242D03*
D11*
X772922Y666496D03*
X723392Y666496D03*
D40*
X698246Y666496D03*
D42*
X604520Y666496D03*
D11*
X772922Y666750D03*
X722376Y666750D03*
D40*
X698246Y666750D03*
D42*
X604520Y666750D03*
D11*
X772922Y667004D03*
X721360Y667004D03*
D40*
X698246Y667004D03*
D10*
X604647Y667004D03*
D23*
X772795Y667258D03*
X720471Y667258D03*
D40*
X698246Y667258D03*
D10*
X604647Y667258D03*
D23*
X772795Y667512D03*
D13*
X719582Y667512D03*
D40*
X698246Y667512D03*
D10*
X604647Y667512D03*
D23*
X772795Y667766D03*
D13*
X718566Y667766D03*
D41*
X698119Y667766D03*
D10*
X604647Y667766D03*
D11*
X772668Y668020D03*
D21*
X717550Y668020D03*
D41*
X698119Y668020D03*
D42*
X604774Y668020D03*
D11*
X772668Y668274D03*
D21*
X716534Y668274D03*
D41*
X698119Y668274D03*
D42*
X604774Y668274D03*
D23*
X772541Y668528D03*
D18*
X715645Y668528D03*
D41*
X698119Y668528D03*
D42*
X604774Y668528D03*
D11*
X772414Y668782D03*
D37*
X714756Y668782D03*
D41*
X698119Y668782D03*
D42*
X604774Y668782D03*
D11*
X772414Y669036D03*
D44*
X713867Y669036D03*
D20*
X698246Y669036D03*
D42*
X604774Y669036D03*
D11*
X772160Y669290D03*
D20*
X697992Y669290D03*
D10*
X604901Y669290D03*
D11*
X772160Y669544D03*
D20*
X697992Y669544D03*
D42*
X605028Y669544D03*
D43*
X772033Y669798D03*
D20*
X697992Y669798D03*
D42*
X605028Y669798D03*
D43*
X771779Y670052D03*
D20*
X697992Y670052D03*
D42*
X605028Y670052D03*
D43*
X771779Y670306D03*
D20*
X697992Y670306D03*
D42*
X605028Y670306D03*
D43*
X771525Y670560D03*
D20*
X697992Y670560D03*
D42*
X605028Y670560D03*
D43*
X771525Y670814D03*
D20*
X697992Y670814D03*
D42*
X605028Y670814D03*
D43*
X771271Y671068D03*
D10*
X697865Y671068D03*
D42*
X605028Y671068D03*
D40*
X771144Y671322D03*
D10*
X697865Y671322D03*
D28*
X605155Y671322D03*
D40*
X770890Y671576D03*
D10*
X697865Y671576D03*
D28*
X605155Y671576D03*
D43*
X770763Y671830D03*
D10*
X697865Y671830D03*
D42*
X605282Y671830D03*
D40*
X770636Y672084D03*
D10*
X697865Y672084D03*
D42*
X605282Y672084D03*
D40*
X770382Y672338D03*
D42*
X697738Y672338D03*
X605282Y672338D03*
D40*
X770128Y672592D03*
D42*
X697738Y672592D03*
X605282Y672592D03*
D41*
X770001Y672846D03*
D42*
X697738Y672846D03*
X605282Y672846D03*
D40*
X769874Y673100D03*
D42*
X697738Y673100D03*
D28*
X605409Y673100D03*
D40*
X769620Y673354D03*
D42*
X697738Y673354D03*
D28*
X605409Y673354D03*
D40*
X769366Y673608D03*
D42*
X697738Y673608D03*
D28*
X605409Y673608D03*
D41*
X769239Y673862D03*
D28*
X697611Y673862D03*
X605409Y673862D03*
D41*
X768985Y674116D03*
D28*
X697611Y674116D03*
D42*
X605536Y674116D03*
D41*
X768731Y674370D03*
D28*
X697611Y674370D03*
D42*
X605536Y674370D03*
D41*
X768477Y674624D03*
D42*
X697484Y674624D03*
D28*
X605663Y674624D03*
D20*
X768350Y674878D03*
D42*
X697484Y674878D03*
D28*
X605663Y674878D03*
D20*
X768096Y675132D03*
D28*
X697611Y675132D03*
X605663Y675132D03*
D20*
X767842Y675386D03*
D28*
X697357Y675386D03*
X605663Y675386D03*
D20*
X767588Y675640D03*
D28*
X697357Y675640D03*
X605663Y675640D03*
D20*
X767334Y675894D03*
D28*
X697357Y675894D03*
X605663Y675894D03*
D20*
X767080Y676148D03*
D28*
X697357Y676148D03*
X605663Y676148D03*
D20*
X766826Y676402D03*
D28*
X697357Y676402D03*
X605917Y676402D03*
D20*
X766572Y676656D03*
D27*
X697230Y676656D03*
D28*
X605917Y676656D03*
D10*
X766445Y676910D03*
D27*
X697230Y676910D03*
D28*
X605917Y676910D03*
D10*
X766191Y677164D03*
D27*
X697230Y677164D03*
D28*
X605917Y677164D03*
D10*
X765937Y677418D03*
D27*
X697230Y677418D03*
D28*
X605917Y677418D03*
D10*
X765683Y677672D03*
D27*
X697230Y677672D03*
D28*
X605917Y677672D03*
D10*
X765429Y677926D03*
D31*
X697103Y677926D03*
D27*
X606044Y677926D03*
D10*
X765175Y678180D03*
D31*
X697103Y678180D03*
D45*
X685292Y678180D03*
D27*
X606044Y678180D03*
D42*
X764794Y678434D03*
D31*
X697103Y678434D03*
D45*
X684530Y678434D03*
D28*
X606171Y678434D03*
D42*
X764540Y678688D03*
D31*
X697103Y678688D03*
D45*
X684022Y678688D03*
D28*
X606171Y678688D03*
D10*
X764159Y678942D03*
D31*
X697103Y678942D03*
D44*
X683387Y678942D03*
D28*
X606171Y678942D03*
D10*
X763905Y679196D03*
D31*
X696849Y679196D03*
D44*
X682879Y679196D03*
D28*
X606171Y679196D03*
D10*
X763651Y679450D03*
D31*
X696849Y679450D03*
D37*
X682244Y679450D03*
D27*
X606298Y679450D03*
D42*
X763270Y679704D03*
D31*
X696849Y679704D03*
D37*
X681736Y679704D03*
D27*
X606298Y679704D03*
D42*
X763016Y679958D03*
D31*
X696849Y679958D03*
D37*
X681228Y679958D03*
D27*
X606298Y679958D03*
D42*
X762762Y680212D03*
D31*
X696849Y680212D03*
D18*
X680593Y680212D03*
D27*
X606298Y680212D03*
D42*
X762508Y680466D03*
D30*
X696722Y680466D03*
D18*
X680085Y680466D03*
D27*
X606298Y680466D03*
D42*
X762254Y680720D03*
D30*
X696722Y680720D03*
D37*
X679450Y680720D03*
D28*
X606425Y680720D03*
X761873Y680974D03*
D30*
X696722Y680974D03*
D37*
X678942Y680974D03*
D28*
X606425Y680974D03*
D42*
X761492Y681228D03*
D30*
X696722Y681228D03*
D37*
X678434Y681228D03*
D27*
X606552Y681228D03*
D42*
X761238Y681482D03*
D30*
X696722Y681482D03*
D37*
X677926Y681482D03*
D27*
X606552Y681482D03*
D42*
X760984Y681736D03*
D16*
X696595Y681736D03*
D37*
X677418Y681736D03*
D27*
X606552Y681736D03*
D28*
X760603Y681990D03*
D16*
X696595Y681990D03*
D37*
X676910Y681990D03*
D27*
X606552Y681990D03*
D28*
X760349Y682244D03*
D30*
X696468Y682244D03*
D37*
X676402Y682244D03*
D27*
X606552Y682244D03*
D28*
X760095Y682498D03*
D30*
X696468Y682498D03*
D18*
X676021Y682498D03*
D27*
X606552Y682498D03*
D42*
X759714Y682752D03*
D30*
X696468Y682752D03*
D18*
X675513Y682752D03*
D27*
X606806Y682752D03*
D28*
X759333Y683006D03*
D16*
X696341Y683006D03*
D18*
X675005Y683006D03*
D27*
X606806Y683006D03*
D28*
X759079Y683260D03*
D16*
X696341Y683260D03*
D18*
X674497Y683260D03*
D27*
X606806Y683260D03*
D28*
X758825Y683514D03*
D16*
X696341Y683514D03*
D21*
X674116Y683514D03*
D27*
X606806Y683514D03*
D28*
X758317Y683768D03*
D16*
X696341Y683768D03*
D21*
X673608Y683768D03*
D27*
X606806Y683768D03*
D28*
X758063Y684022D03*
D16*
X696341Y684022D03*
D21*
X673354Y684022D03*
D27*
X606806Y684022D03*
X757682Y684276D03*
D12*
X696214Y684276D03*
D21*
X672846Y684276D03*
D31*
X606933Y684276D03*
D27*
X757428Y684530D03*
D12*
X696214Y684530D03*
D21*
X672338Y684530D03*
D31*
X606933Y684530D03*
X757047Y684784D03*
D12*
X696214Y684784D03*
D17*
X671957Y684784D03*
D27*
X607060Y684784D03*
X756666Y685038D03*
D16*
X696087Y685038D03*
D21*
X671576Y685038D03*
D27*
X607060Y685038D03*
X756412Y685292D03*
D12*
X695960Y685292D03*
D17*
X671195Y685292D03*
D27*
X607060Y685292D03*
D31*
X756031Y685546D03*
D12*
X695960Y685546D03*
D17*
X670687Y685546D03*
D27*
X607060Y685546D03*
X755650Y685800D03*
D12*
X695960Y685800D03*
D17*
X670433Y685800D03*
D31*
X607187Y685800D03*
X755269Y686054D03*
D12*
X695960Y686054D03*
D13*
X670052Y686054D03*
D31*
X607187Y686054D03*
X755015Y686308D03*
D12*
X695960Y686308D03*
D17*
X669671Y686308D03*
D31*
X607187Y686308D03*
X754507Y686562D03*
D14*
X695833Y686562D03*
D13*
X669290Y686562D03*
D31*
X607187Y686562D03*
X754253Y686816D03*
D14*
X695833Y686816D03*
D17*
X668909Y686816D03*
D27*
X607314Y686816D03*
D31*
X753999Y687070D03*
D14*
X695833Y687070D03*
D17*
X668655Y687070D03*
D27*
X607314Y687070D03*
D31*
X753491Y687324D03*
D12*
X695706Y687324D03*
D17*
X668147Y687324D03*
D31*
X607441Y687324D03*
X753237Y687578D03*
D12*
X695706Y687578D03*
D17*
X667893Y687578D03*
D31*
X607441Y687578D03*
D30*
X752856Y687832D03*
D14*
X695579Y687832D03*
D17*
X667639Y687832D03*
D31*
X607441Y687832D03*
X752475Y688086D03*
D14*
X695579Y688086D03*
D17*
X667131Y688086D03*
D31*
X607441Y688086D03*
D30*
X752094Y688340D03*
D14*
X695579Y688340D03*
D17*
X666877Y688340D03*
D31*
X607441Y688340D03*
X751713Y688594D03*
D14*
X695579Y688594D03*
D17*
X666623Y688594D03*
D31*
X607441Y688594D03*
D30*
X751332Y688848D03*
D38*
X695452Y688848D03*
D13*
X666242Y688848D03*
D31*
X607695Y688848D03*
X750951Y689102D03*
D38*
X695452Y689102D03*
D13*
X665988Y689102D03*
D31*
X607695Y689102D03*
D30*
X750570Y689356D03*
D38*
X695452Y689356D03*
D17*
X665607Y689356D03*
D31*
X607695Y689356D03*
D30*
X750316Y689610D03*
D14*
X695325Y689610D03*
D17*
X665353Y689610D03*
D31*
X607695Y689610D03*
D30*
X749808Y689864D03*
D38*
X695198Y689864D03*
D17*
X665099Y689864D03*
D31*
X607695Y689864D03*
D30*
X749554Y690118D03*
D38*
X695198Y690118D03*
D13*
X664718Y690118D03*
D30*
X607822Y690118D03*
D16*
X749173Y690372D03*
D38*
X695198Y690372D03*
D13*
X664464Y690372D03*
D30*
X607822Y690372D03*
X748792Y690626D03*
D38*
X695198Y690626D03*
D13*
X664210Y690626D03*
D30*
X607822Y690626D03*
D16*
X748411Y690880D03*
D38*
X695198Y690880D03*
D13*
X663956Y690880D03*
D31*
X607949Y690880D03*
D16*
X747903Y691134D03*
D49*
X695071Y691134D03*
D13*
X663702Y691134D03*
D31*
X607949Y691134D03*
D16*
X747649Y691388D03*
D49*
X695071Y691388D03*
D13*
X663448Y691388D03*
D31*
X607949Y691388D03*
D16*
X747141Y691642D03*
D38*
X694944Y691642D03*
D13*
X663194Y691642D03*
D30*
X608076Y691642D03*
D16*
X746887Y691896D03*
D38*
X694944Y691896D03*
D13*
X662940Y691896D03*
D30*
X608076Y691896D03*
D16*
X746379Y692150D03*
D49*
X694817Y692150D03*
D13*
X662686Y692150D03*
D30*
X608076Y692150D03*
D12*
X745998Y692404D03*
D49*
X694817Y692404D03*
D13*
X662432Y692404D03*
D30*
X608076Y692404D03*
D12*
X745744Y692658D03*
D49*
X694817Y692658D03*
D13*
X662178Y692658D03*
D31*
X608203Y692658D03*
D12*
X745236Y692912D03*
D49*
X694817Y692912D03*
D13*
X661924Y692912D03*
D31*
X608203Y692912D03*
D12*
X744728Y693166D03*
D22*
X694690Y693166D03*
D13*
X661670Y693166D03*
D31*
X608203Y693166D03*
D12*
X744474Y693420D03*
D22*
X694690Y693420D03*
D13*
X661416Y693420D03*
D30*
X608330Y693420D03*
D12*
X743966Y693674D03*
D49*
X694563Y693674D03*
D23*
X661289Y693674D03*
D30*
X608330Y693674D03*
D12*
X743712Y693928D03*
D49*
X694563Y693928D03*
D23*
X661035Y693928D03*
D30*
X608330Y693928D03*
D12*
X743204Y694182D03*
D49*
X694563Y694182D03*
D23*
X660781Y694182D03*
D30*
X608330Y694182D03*
D16*
X742823Y694436D03*
D22*
X694436Y694436D03*
D23*
X660527Y694436D03*
D31*
X608457Y694436D03*
D12*
X742442Y694690D03*
D22*
X694436Y694690D03*
D13*
X660400Y694690D03*
D31*
X608457Y694690D03*
D12*
X741934Y694944D03*
D22*
X694436Y694944D03*
D13*
X660146Y694944D03*
D30*
X608584Y694944D03*
D12*
X741680Y695198D03*
D22*
X694436Y695198D03*
D23*
X660019Y695198D03*
D30*
X608584Y695198D03*
D12*
X741172Y695452D03*
D22*
X694182Y695452D03*
D23*
X659765Y695452D03*
D30*
X608584Y695452D03*
D14*
X740791Y695706D03*
D22*
X694182Y695706D03*
D13*
X659638Y695706D03*
D30*
X608584Y695706D03*
D12*
X740410Y695960D03*
D22*
X694182Y695960D03*
D13*
X659384Y695960D03*
D30*
X608584Y695960D03*
D14*
X740029Y696214D03*
D22*
X694182Y696214D03*
D23*
X659257Y696214D03*
D31*
X608711Y696214D03*
D14*
X739521Y696468D03*
D24*
X694055Y696468D03*
D23*
X659003Y696468D03*
D30*
X608838Y696468D03*
D12*
X739140Y696722D03*
D24*
X694055Y696722D03*
D13*
X658876Y696722D03*
D30*
X608838Y696722D03*
D14*
X738759Y696976D03*
D24*
X694055Y696976D03*
D13*
X658622Y696976D03*
D30*
X608838Y696976D03*
D14*
X738251Y697230D03*
D22*
X693928Y697230D03*
D23*
X658495Y697230D03*
D30*
X608838Y697230D03*
D38*
X737870Y697484D03*
D24*
X693801Y697484D03*
D23*
X658241Y697484D03*
D30*
X608838Y697484D03*
D38*
X737362Y697738D03*
D24*
X693801Y697738D03*
D13*
X658114Y697738D03*
D30*
X608838Y697738D03*
D14*
X736981Y697992D03*
D24*
X693801Y697992D03*
D23*
X657987Y697992D03*
D30*
X609092Y697992D03*
D38*
X736600Y698246D03*
D24*
X693801Y698246D03*
D23*
X657733Y698246D03*
D30*
X609092Y698246D03*
D38*
X736092Y698500D03*
D24*
X693801Y698500D03*
D13*
X657606Y698500D03*
D30*
X609092Y698500D03*
D49*
X735711Y698754D03*
D24*
X693547Y698754D03*
D23*
X657479Y698754D03*
D30*
X609092Y698754D03*
D38*
X735330Y699008D03*
D24*
X693547Y699008D03*
D23*
X657225Y699008D03*
D30*
X609092Y699008D03*
D38*
X734822Y699262D03*
D24*
X693547Y699262D03*
D13*
X657098Y699262D03*
D30*
X609092Y699262D03*
D49*
X734441Y699516D03*
D24*
X693547Y699516D03*
D23*
X656971Y699516D03*
D16*
X609219Y699516D03*
D38*
X734060Y699770D03*
D48*
X693420Y699770D03*
D23*
X656717Y699770D03*
D30*
X609346Y699770D03*
D38*
X733552Y700024D03*
D48*
X693420Y700024D03*
D23*
X656717Y700024D03*
D30*
X609346Y700024D03*
D38*
X733044Y700278D03*
D24*
X693293Y700278D03*
D23*
X656463Y700278D03*
D30*
X609346Y700278D03*
D49*
X732663Y700532D03*
D24*
X693293Y700532D03*
D13*
X656336Y700532D03*
D30*
X609346Y700532D03*
D38*
X732282Y700786D03*
D48*
X693166Y700786D03*
D23*
X656209Y700786D03*
D16*
X609473Y700786D03*
D38*
X731774Y701040D03*
D48*
X693166Y701040D03*
D23*
X655955Y701040D03*
D16*
X609473Y701040D03*
D38*
X731266Y701294D03*
D48*
X693166Y701294D03*
D23*
X655955Y701294D03*
D16*
X609473Y701294D03*
D49*
X730885Y701548D03*
D48*
X693166Y701548D03*
D23*
X655701Y701548D03*
D30*
X609600Y701548D03*
D49*
X730377Y701802D03*
D48*
X692912Y701802D03*
D23*
X655701Y701802D03*
D30*
X609600Y701802D03*
D38*
X729996Y702056D03*
D48*
X692912Y702056D03*
D23*
X655447Y702056D03*
D30*
X609600Y702056D03*
D49*
X729615Y702310D03*
D48*
X692912Y702310D03*
D23*
X655447Y702310D03*
D16*
X609727Y702310D03*
D49*
X729107Y702564D03*
D48*
X692912Y702564D03*
D23*
X655193Y702564D03*
D16*
X609727Y702564D03*
D49*
X728599Y702818D03*
D47*
X692785Y702818D03*
D11*
X655066Y702818D03*
D16*
X609727Y702818D03*
D22*
X728218Y703072D03*
D47*
X692785Y703072D03*
D23*
X654939Y703072D03*
D16*
X609727Y703072D03*
D22*
X727710Y703326D03*
D48*
X692658Y703326D03*
D11*
X654812Y703326D03*
D30*
X609854Y703326D03*
D22*
X727202Y703580D03*
D48*
X692658Y703580D03*
D23*
X654685Y703580D03*
D16*
X609981Y703580D03*
D22*
X726694Y703834D03*
D47*
X692531Y703834D03*
D11*
X654558Y703834D03*
D16*
X609981Y703834D03*
D22*
X726440Y704088D03*
D47*
X692531Y704088D03*
D23*
X654431Y704088D03*
D16*
X609981Y704088D03*
D22*
X725932Y704342D03*
D47*
X692531Y704342D03*
D23*
X654431Y704342D03*
D16*
X609981Y704342D03*
D22*
X725424Y704596D03*
D47*
X692531Y704596D03*
D11*
X654304Y704596D03*
D16*
X609981Y704596D03*
D22*
X724916Y704850D03*
D47*
X692277Y704850D03*
D23*
X654177Y704850D03*
D16*
X609981Y704850D03*
D24*
X724535Y705104D03*
D47*
X692277Y705104D03*
D11*
X654050Y705104D03*
D16*
X610235Y705104D03*
D24*
X724027Y705358D03*
D47*
X692277Y705358D03*
D23*
X653923Y705358D03*
D16*
X610235Y705358D03*
D24*
X723519Y705612D03*
D47*
X692277Y705612D03*
D11*
X653796Y705612D03*
D16*
X610235Y705612D03*
D24*
X723011Y705866D03*
D29*
X692150Y705866D03*
D11*
X653796Y705866D03*
D16*
X610235Y705866D03*
D24*
X722757Y706120D03*
D29*
X692150Y706120D03*
D11*
X653542Y706120D03*
D16*
X610235Y706120D03*
D22*
X722122Y706374D03*
D47*
X692023Y706374D03*
D11*
X653542Y706374D03*
D12*
X610362Y706374D03*
D24*
X721741Y706628D03*
D47*
X692023Y706628D03*
D23*
X653415Y706628D03*
D12*
X610362Y706628D03*
D24*
X721233Y706882D03*
D29*
X691896Y706882D03*
D11*
X653288Y706882D03*
D16*
X610489Y706882D03*
D24*
X720725Y707136D03*
D29*
X691896Y707136D03*
D11*
X653288Y707136D03*
D16*
X610489Y707136D03*
D24*
X720217Y707390D03*
D29*
X691896Y707390D03*
D23*
X653161Y707390D03*
D16*
X610489Y707390D03*
D24*
X719709Y707644D03*
D29*
X691642Y707644D03*
D11*
X653034Y707644D03*
D12*
X610616Y707644D03*
D22*
X719328Y707898D03*
D29*
X691642Y707898D03*
D11*
X653034Y707898D03*
D12*
X610616Y707898D03*
D24*
X718947Y708152D03*
D29*
X691642Y708152D03*
D11*
X652780Y708152D03*
D12*
X610616Y708152D03*
D24*
X718439Y708406D03*
D29*
X691642Y708406D03*
D11*
X652780Y708406D03*
D16*
X610743Y708406D03*
D24*
X717931Y708660D03*
D33*
X691515Y708660D03*
D11*
X652780Y708660D03*
D12*
X610616Y708660D03*
D24*
X717423Y708914D03*
D29*
X691388Y708914D03*
D11*
X652526Y708914D03*
D12*
X610870Y708914D03*
D24*
X716915Y709168D03*
D29*
X691388Y709168D03*
D11*
X652526Y709168D03*
D12*
X610870Y709168D03*
D24*
X716407Y709422D03*
D29*
X691388Y709422D03*
D43*
X652399Y709422D03*
D12*
X610870Y709422D03*
D48*
X716026Y709676D03*
D33*
X691261Y709676D03*
D11*
X652272Y709676D03*
D12*
X610870Y709676D03*
D48*
X715518Y709930D03*
D33*
X691261Y709930D03*
D11*
X652272Y709930D03*
D12*
X610870Y709930D03*
D48*
X715010Y710184D03*
D29*
X691134Y710184D03*
D43*
X652145Y710184D03*
D12*
X611124Y710184D03*
D47*
X714375Y710438D03*
D33*
X691007Y710438D03*
D11*
X652018Y710438D03*
D12*
X611124Y710438D03*
D47*
X713867Y710692D03*
D33*
X691007Y710692D03*
D11*
X652018Y710692D03*
D12*
X611124Y710692D03*
D47*
X713359Y710946D03*
D33*
X691007Y710946D03*
D43*
X651891Y710946D03*
D12*
X611124Y710946D03*
D47*
X712851Y711200D03*
D33*
X691007Y711200D03*
D11*
X651764Y711200D03*
D12*
X611124Y711200D03*
D29*
X712470Y711454D03*
D34*
X690880Y711454D03*
D11*
X651764Y711454D03*
D14*
X611251Y711454D03*
D29*
X711962Y711708D03*
D33*
X690753Y711708D03*
D43*
X651637Y711708D03*
D14*
X611251Y711708D03*
D29*
X711454Y711962D03*
D33*
X690753Y711962D03*
D11*
X651510Y711962D03*
D12*
X611378Y711962D03*
D29*
X710946Y712216D03*
D34*
X690626Y712216D03*
D11*
X651510Y712216D03*
D12*
X611378Y712216D03*
D47*
X710565Y712470D03*
D34*
X690626Y712470D03*
D43*
X651383Y712470D03*
D12*
X611378Y712470D03*
D47*
X710057Y712724D03*
D34*
X690626Y712724D03*
D43*
X651383Y712724D03*
D14*
X611505Y712724D03*
D47*
X709549Y712978D03*
D33*
X690499Y712978D03*
D11*
X651256Y712978D03*
D14*
X611505Y712978D03*
D47*
X709041Y713232D03*
D34*
X690372Y713232D03*
D11*
X651256Y713232D03*
D14*
X611505Y713232D03*
D47*
X708533Y713486D03*
D34*
X690372Y713486D03*
D43*
X651129Y713486D03*
D12*
X611632Y713486D03*
D47*
X708025Y713740D03*
D34*
X690372Y713740D03*
D43*
X651129Y713740D03*
D14*
X611759Y713740D03*
D47*
X707517Y713994D03*
D32*
X690245Y713994D03*
D11*
X651002Y713994D03*
D14*
X611759Y713994D03*
D47*
X707009Y714248D03*
D34*
X690118Y714248D03*
D43*
X650875Y714248D03*
D14*
X611759Y714248D03*
D47*
X706501Y714502D03*
D34*
X690118Y714502D03*
D43*
X650875Y714502D03*
D14*
X611759Y714502D03*
D49*
X590931Y714502D03*
D18*
X587121Y714502D03*
D47*
X705993Y714756D03*
D32*
X689991Y714756D03*
D43*
X650875Y714756D03*
D14*
X611759Y714756D03*
D57*
X588518Y714756D03*
D47*
X705485Y715010D03*
D32*
X689991Y715010D03*
D11*
X650748Y715010D03*
D14*
X612013Y715010D03*
D58*
X588645Y715010D03*
D47*
X704977Y715264D03*
D34*
X689864Y715264D03*
D43*
X650621Y715264D03*
D14*
X612013Y715264D03*
D50*
X588645Y715264D03*
D29*
X704342Y715518D03*
D34*
X689864Y715518D03*
D43*
X650621Y715518D03*
D14*
X612013Y715518D03*
D60*
X588772Y715518D03*
D29*
X703834Y715772D03*
D32*
X689737Y715772D03*
D43*
X650621Y715772D03*
D14*
X612013Y715772D03*
D54*
X588772Y715772D03*
D29*
X703326Y716026D03*
D32*
X689737Y716026D03*
D11*
X650494Y716026D03*
D14*
X612013Y716026D03*
D61*
X588899Y716026D03*
D29*
X702818Y716280D03*
D32*
X689737Y716280D03*
D43*
X650367Y716280D03*
D38*
X612140Y716280D03*
D53*
X589026Y716280D03*
D29*
X702310Y716534D03*
D32*
X689483Y716534D03*
D43*
X650367Y716534D03*
D14*
X612267Y716534D03*
D63*
X589026Y716534D03*
D33*
X701675Y716788D03*
D32*
X689483Y716788D03*
D43*
X650367Y716788D03*
D14*
X612267Y716788D03*
D66*
X589153Y716788D03*
D33*
X701167Y717042D03*
D32*
X689483Y717042D03*
D40*
X650240Y717042D03*
D14*
X612267Y717042D03*
D72*
X589280Y717042D03*
D33*
X700659Y717296D03*
D35*
X689356Y717296D03*
D43*
X650113Y717296D03*
D38*
X612394Y717296D03*
D73*
X589153Y717296D03*
D33*
X700151Y717550D03*
D35*
X689356Y717550D03*
D43*
X650113Y717550D03*
D38*
X612394Y717550D03*
D74*
X589280Y717550D03*
D33*
X699643Y717804D03*
D32*
X689229Y717804D03*
D43*
X650113Y717804D03*
D14*
X612521Y717804D03*
D64*
X589280Y717804D03*
D33*
X699135Y718058D03*
D32*
X689229Y718058D03*
D43*
X650113Y718058D03*
D14*
X612521Y718058D03*
D75*
X589407Y718058D03*
D33*
X698627Y718312D03*
D35*
X689102Y718312D03*
D40*
X649986Y718312D03*
D14*
X612521Y718312D03*
D76*
X589534Y718312D03*
D33*
X698119Y718566D03*
D35*
X689102Y718566D03*
D43*
X649859Y718566D03*
D38*
X612648Y718566D03*
D77*
X589534Y718566D03*
D34*
X697484Y718820D03*
D35*
X689102Y718820D03*
D43*
X649859Y718820D03*
D38*
X612648Y718820D03*
D78*
X589661Y718820D03*
D76*
X692658Y719074D03*
D43*
X649859Y719074D03*
D38*
X612648Y719074D03*
D79*
X589661Y719074D03*
D64*
X692404Y719328D03*
D40*
X649732Y719328D03*
D14*
X612775Y719328D03*
D79*
X589661Y719328D03*
D74*
X692150Y719582D03*
D40*
X649732Y719582D03*
D38*
X612902Y719582D03*
D67*
X589788Y719582D03*
D73*
X691769Y719836D03*
D40*
X649732Y719836D03*
D38*
X612902Y719836D03*
D80*
X589788Y719836D03*
D66*
X691515Y720090D03*
D43*
X649605Y720090D03*
D38*
X612902Y720090D03*
D81*
X589915Y720090D03*
D62*
X691261Y720344D03*
D43*
X649605Y720344D03*
D38*
X612902Y720344D03*
D82*
X589915Y720344D03*
D61*
X691007Y720598D03*
D40*
X649478Y720598D03*
D14*
X613029Y720598D03*
D83*
X590042Y720598D03*
D54*
X690626Y720852D03*
D40*
X649478Y720852D03*
D38*
X613156Y720852D03*
D84*
X590169Y720852D03*
D60*
X690372Y721106D03*
D40*
X649478Y721106D03*
D38*
X613156Y721106D03*
D85*
X590042Y721106D03*
D51*
X690118Y721360D03*
D40*
X649478Y721360D03*
D38*
X613156Y721360D03*
D86*
X590169Y721360D03*
D65*
X689737Y721614D03*
D43*
X649351Y721614D03*
D38*
X613156Y721614D03*
D87*
X590169Y721614D03*
D56*
X689356Y721868D03*
D40*
X649224Y721868D03*
D38*
X613410Y721868D03*
D87*
X590169Y721868D03*
D46*
X689102Y722122D03*
D40*
X649224Y722122D03*
D38*
X613410Y722122D03*
D87*
X590169Y722122D03*
D25*
X688848Y722376D03*
D40*
X649224Y722376D03*
D38*
X613410Y722376D03*
D88*
X590042Y722376D03*
D15*
X688467Y722630D03*
D40*
X649224Y722630D03*
D38*
X613410Y722630D03*
D87*
X589915Y722630D03*
D19*
X688213Y722884D03*
D40*
X649224Y722884D03*
D38*
X613410Y722884D03*
D88*
X589788Y722884D03*
D36*
X687959Y723138D03*
D41*
X649097Y723138D03*
D49*
X613537Y723138D03*
D87*
X589661Y723138D03*
D36*
X687705Y723392D03*
D40*
X648970Y723392D03*
D38*
X613664Y723392D03*
D87*
X589661Y723392D03*
D19*
X687451Y723646D03*
D40*
X648970Y723646D03*
D38*
X613664Y723646D03*
D88*
X589534Y723646D03*
D15*
X687197Y723900D03*
D40*
X648970Y723900D03*
D38*
X613664Y723900D03*
D87*
X589407Y723900D03*
D55*
X686943Y724154D03*
D40*
X648970Y724154D03*
D49*
X613791Y724154D03*
D87*
X589407Y724154D03*
D46*
X686562Y724408D03*
D40*
X648970Y724408D03*
D49*
X613791Y724408D03*
D88*
X589280Y724408D03*
D56*
X686308Y724662D03*
D41*
X648843Y724662D03*
D38*
X613918Y724662D03*
D87*
X589153Y724662D03*
D58*
X685927Y724916D03*
D41*
X648843Y724916D03*
D38*
X613918Y724916D03*
D87*
X589153Y724916D03*
D50*
X685673Y725170D03*
D41*
X648843Y725170D03*
D38*
X613918Y725170D03*
D87*
X589153Y725170D03*
D60*
X685292Y725424D03*
D40*
X648716Y725424D03*
D49*
X614045Y725424D03*
D86*
X589153Y725424D03*
D54*
X685038Y725678D03*
D40*
X648716Y725678D03*
D49*
X614045Y725678D03*
D85*
X589280Y725678D03*
D62*
X684657Y725932D03*
D40*
X648716Y725932D03*
D38*
X614172Y725932D03*
D83*
X589280Y725932D03*
D66*
X684403Y726186D03*
D41*
X648589Y726186D03*
D49*
X614299Y726186D03*
D82*
X589407Y726186D03*
D72*
X684022Y726440D03*
D41*
X648589Y726440D03*
D49*
X614299Y726440D03*
D89*
X589534Y726440D03*
D74*
X683768Y726694D03*
D41*
X648589Y726694D03*
D49*
X614299Y726694D03*
D80*
X589534Y726694D03*
D75*
X683387Y726948D03*
D41*
X648589Y726948D03*
D49*
X614299Y726948D03*
D90*
X589661Y726948D03*
D76*
X683006Y727202D03*
D41*
X648589Y727202D03*
D38*
X614426Y727202D03*
D67*
X589788Y727202D03*
D77*
X682752Y727456D03*
D41*
X648589Y727456D03*
D38*
X614426Y727456D03*
D91*
X589788Y727456D03*
D79*
X682371Y727710D03*
D41*
X648589Y727710D03*
D49*
X614553Y727710D03*
D78*
X589915Y727710D03*
D19*
X686435Y727964D03*
D35*
X677418Y727964D03*
D41*
X648335Y727964D03*
D49*
X614553Y727964D03*
D77*
X590042Y727964D03*
D39*
X686308Y728218D03*
D32*
X676783Y728218D03*
D41*
X648335Y728218D03*
D49*
X614553Y728218D03*
D76*
X590042Y728218D03*
D39*
X686308Y728472D03*
D35*
X676148Y728472D03*
D41*
X648335Y728472D03*
D38*
X614680Y728472D03*
D75*
X590169Y728472D03*
D39*
X686308Y728726D03*
D35*
X675640Y728726D03*
D41*
X648335Y728726D03*
D49*
X614807Y728726D03*
D64*
X590296Y728726D03*
D19*
X686181Y728980D03*
D36*
X675005Y728980D03*
D41*
X648335Y728980D03*
D49*
X614807Y728980D03*
D74*
X590296Y728980D03*
D39*
X686054Y729234D03*
D35*
X674370Y729234D03*
D41*
X648335Y729234D03*
D49*
X614807Y729234D03*
D73*
X590423Y729234D03*
D39*
X686054Y729488D03*
D36*
X673735Y729488D03*
D41*
X648335Y729488D03*
D38*
X614934Y729488D03*
D72*
X590550Y729488D03*
D19*
X685927Y729742D03*
D36*
X673227Y729742D03*
D20*
X648208Y729742D03*
D49*
X615061Y729742D03*
D66*
X590677Y729742D03*
D45*
X572262Y729742D03*
D39*
X685800Y729996D03*
D36*
X672719Y729996D03*
D20*
X648208Y729996D03*
D49*
X615061Y729996D03*
D62*
X590677Y729996D03*
D45*
X571754Y729996D03*
D39*
X685800Y730250D03*
D36*
X671957Y730250D03*
D20*
X648208Y730250D03*
D49*
X615061Y730250D03*
D53*
X590804Y730250D03*
D45*
X571500Y730250D03*
D19*
X685673Y730504D03*
D36*
X671449Y730504D03*
D20*
X648208Y730504D03*
D49*
X615061Y730504D03*
D61*
X590931Y730504D03*
D44*
X571119Y730504D03*
D19*
X685673Y730758D03*
D36*
X670941Y730758D03*
D20*
X648208Y730758D03*
D49*
X615315Y730758D03*
D52*
X590931Y730758D03*
D44*
X570611Y730758D03*
D39*
X685546Y731012D03*
X670306Y731012D03*
D41*
X648081Y731012D03*
D49*
X615315Y731012D03*
D60*
X591058Y731012D03*
D45*
X570230Y731012D03*
D19*
X685419Y731266D03*
D36*
X669671Y731266D03*
D41*
X648081Y731266D03*
D49*
X615315Y731266D03*
D50*
X591185Y731266D03*
D44*
X569849Y731266D03*
D19*
X685419Y731520D03*
D36*
X669163Y731520D03*
D41*
X648081Y731520D03*
D49*
X615315Y731520D03*
D58*
X591185Y731520D03*
D44*
X569341Y731520D03*
D39*
X685292Y731774D03*
D36*
X668401Y731774D03*
D41*
X648081Y731774D03*
D49*
X615315Y731774D03*
D57*
X591312Y731774D03*
D44*
X569087Y731774D03*
D19*
X685165Y732028D03*
D36*
X667893Y732028D03*
D41*
X648081Y732028D03*
D49*
X615569Y732028D03*
D13*
X595884Y732028D03*
D44*
X568579Y732028D03*
D19*
X685165Y732282D03*
D36*
X667131Y732282D03*
D20*
X647954Y732282D03*
D49*
X615569Y732282D03*
D44*
X568325Y732282D03*
D26*
X685038Y732536D03*
D36*
X666623Y732536D03*
D20*
X647954Y732536D03*
D49*
X615569Y732536D03*
D44*
X567817Y732536D03*
D19*
X684911Y732790D03*
D35*
X665988Y732790D03*
D20*
X647954Y732790D03*
D49*
X615569Y732790D03*
D37*
X567436Y732790D03*
D19*
X684911Y733044D03*
D36*
X665353Y733044D03*
D20*
X647954Y733044D03*
D49*
X615823Y733044D03*
D44*
X567055Y733044D03*
D26*
X684784Y733298D03*
D35*
X664718Y733298D03*
D20*
X647954Y733298D03*
D49*
X615823Y733298D03*
D37*
X566674Y733298D03*
D19*
X684657Y733552D03*
D36*
X664083Y733552D03*
D20*
X647954Y733552D03*
D49*
X615823Y733552D03*
D44*
X566293Y733552D03*
D19*
X684657Y733806D03*
D36*
X663575Y733806D03*
D20*
X647954Y733806D03*
D49*
X615823Y733806D03*
D37*
X565912Y733806D03*
D26*
X684530Y734060D03*
D35*
X662940Y734060D03*
D20*
X647954Y734060D03*
D22*
X615950Y734060D03*
D44*
X565531Y734060D03*
D26*
X684530Y734314D03*
D36*
X662305Y734314D03*
D10*
X647827Y734314D03*
D49*
X616077Y734314D03*
D37*
X565150Y734314D03*
D19*
X684403Y734568D03*
D36*
X661797Y734568D03*
D10*
X647827Y734568D03*
D49*
X616077Y734568D03*
D37*
X564642Y734568D03*
D26*
X684276Y734822D03*
D36*
X661035Y734822D03*
D20*
X647954Y734822D03*
D22*
X616204Y734822D03*
D37*
X564388Y734822D03*
D26*
X684276Y735076D03*
D39*
X660400Y735076D03*
D10*
X647827Y735076D03*
D22*
X616204Y735076D03*
D18*
X564007Y735076D03*
D19*
X684149Y735330D03*
D39*
X659892Y735330D03*
D10*
X647827Y735330D03*
D49*
X616331Y735330D03*
D18*
X563499Y735330D03*
D26*
X684022Y735584D03*
D39*
X659130Y735584D03*
D10*
X647827Y735584D03*
D49*
X616331Y735584D03*
D18*
X563245Y735584D03*
D26*
X684022Y735838D03*
D19*
X658495Y735838D03*
D20*
X647700Y735838D03*
D22*
X616458Y735838D03*
D18*
X562737Y735838D03*
D26*
X683768Y736092D03*
D39*
X657860Y736092D03*
D20*
X647700Y736092D03*
D22*
X616458Y736092D03*
D18*
X562483Y736092D03*
D26*
X683768Y736346D03*
D19*
X657225Y736346D03*
D20*
X647700Y736346D03*
D22*
X616458Y736346D03*
D21*
X562102Y736346D03*
D26*
X683768Y736600D03*
D39*
X656590Y736600D03*
D20*
X647700Y736600D03*
D49*
X616585Y736600D03*
D18*
X561721Y736600D03*
D15*
X683641Y736854D03*
D19*
X655955Y736854D03*
D20*
X647700Y736854D03*
D22*
X616712Y736854D03*
D21*
X561340Y736854D03*
D26*
X683514Y737108D03*
D39*
X655320Y737108D03*
D20*
X647700Y737108D03*
D22*
X616712Y737108D03*
D21*
X561086Y737108D03*
D26*
X683514Y737362D03*
D19*
X654685Y737362D03*
D20*
X647700Y737362D03*
D22*
X616712Y737362D03*
D21*
X560578Y737362D03*
D15*
X683387Y737616D03*
D60*
X652272Y737616D03*
D49*
X616839Y737616D03*
D21*
X560324Y737616D03*
D26*
X683260Y737870D03*
D51*
X652018Y737870D03*
D22*
X616966Y737870D03*
D18*
X559943Y737870D03*
D26*
X683260Y738124D03*
D57*
X651510Y738124D03*
D22*
X616966Y738124D03*
D21*
X559562Y738124D03*
D15*
X683133Y738378D03*
D59*
X651129Y738378D03*
D22*
X616966Y738378D03*
D18*
X559181Y738378D03*
D26*
X683006Y738632D03*
D25*
X650748Y738632D03*
D24*
X617093Y738632D03*
D21*
X558800Y738632D03*
D15*
X682879Y738886D03*
D26*
X650494Y738886D03*
D22*
X617220Y738886D03*
D21*
X558546Y738886D03*
D15*
X682879Y739140D03*
D39*
X649986Y739140D03*
D22*
X617220Y739140D03*
D21*
X558038Y739140D03*
D15*
X682879Y739394D03*
D39*
X649478Y739394D03*
D22*
X617220Y739394D03*
D21*
X557784Y739394D03*
D26*
X682752Y739648D03*
D39*
X648716Y739648D03*
D24*
X617347Y739648D03*
D21*
X557530Y739648D03*
D15*
X682625Y739902D03*
D39*
X648208Y739902D03*
D22*
X617474Y739902D03*
D21*
X557022Y739902D03*
D15*
X682625Y740156D03*
D39*
X647446Y740156D03*
D22*
X617474Y740156D03*
D21*
X556768Y740156D03*
D15*
X682371Y740410D03*
D19*
X646811Y740410D03*
D24*
X617601Y740410D03*
D17*
X556387Y740410D03*
D15*
X682371Y740664D03*
D39*
X646176Y740664D03*
D24*
X617601Y740664D03*
D17*
X556133Y740664D03*
D15*
X682371Y740918D03*
D19*
X645541Y740918D03*
D22*
X617728Y740918D03*
D21*
X555752Y740918D03*
D15*
X682117Y741172D03*
D19*
X644779Y741172D03*
D22*
X617728Y741172D03*
D17*
X555371Y741172D03*
D15*
X682117Y741426D03*
D25*
X644398Y741426D03*
D24*
X617855Y741426D03*
D17*
X555117Y741426D03*
D15*
X682117Y741680D03*
D59*
X644017Y741680D03*
D24*
X617855Y741680D03*
D17*
X554863Y741680D03*
D15*
X681863Y741934D03*
D57*
X643636Y741934D03*
D24*
X617855Y741934D03*
D17*
X554355Y741934D03*
D15*
X681863Y742188D03*
D51*
X643382Y742188D03*
D24*
X618109Y742188D03*
D17*
X554101Y742188D03*
D15*
X681863Y742442D03*
D52*
X643001Y742442D03*
D24*
X618109Y742442D03*
D17*
X553847Y742442D03*
D25*
X681736Y742696D03*
D53*
X642620Y742696D03*
D24*
X618109Y742696D03*
D13*
X553466Y742696D03*
D15*
X681609Y742950D03*
D42*
X647446Y742950D03*
D15*
X639953Y742950D03*
D24*
X618109Y742950D03*
D13*
X553212Y742950D03*
D25*
X681482Y743204D03*
D42*
X647446Y743204D03*
D26*
X639318Y743204D03*
D24*
X618363Y743204D03*
D17*
X552831Y743204D03*
D25*
X681482Y743458D03*
D42*
X647446Y743458D03*
D15*
X638683Y743458D03*
D24*
X618363Y743458D03*
D17*
X552577Y743458D03*
D15*
X681355Y743712D03*
D42*
X647446Y743712D03*
D15*
X637921Y743712D03*
D24*
X618363Y743712D03*
D13*
X552196Y743712D03*
D25*
X681228Y743966D03*
D42*
X647446Y743966D03*
D26*
X637286Y743966D03*
D48*
X618490Y743966D03*
D13*
X551942Y743966D03*
D25*
X681228Y744220D03*
D42*
X647446Y744220D03*
D26*
X636524Y744220D03*
D24*
X618617Y744220D03*
D13*
X551688Y744220D03*
D25*
X680974Y744474D03*
D42*
X647446Y744474D03*
D26*
X635762Y744474D03*
D24*
X618617Y744474D03*
D17*
X551307Y744474D03*
D25*
X680974Y744728D03*
D42*
X647446Y744728D03*
D26*
X635000Y744728D03*
D48*
X618744Y744728D03*
D17*
X551053Y744728D03*
D25*
X680974Y744982D03*
D42*
X647446Y744982D03*
D26*
X634492Y744982D03*
D48*
X618744Y744982D03*
D17*
X550799Y744982D03*
D25*
X680720Y745236D03*
D42*
X647446Y745236D03*
D26*
X633730Y745236D03*
D24*
X618871Y745236D03*
D13*
X550418Y745236D03*
D25*
X680720Y745490D03*
D42*
X647446Y745490D03*
D26*
X632968Y745490D03*
D24*
X618871Y745490D03*
D13*
X550164Y745490D03*
D55*
X680593Y745744D03*
D42*
X647446Y745744D03*
D26*
X632206Y745744D03*
D48*
X618998Y745744D03*
D13*
X549910Y745744D03*
D25*
X680466Y745998D03*
D42*
X647446Y745998D03*
D26*
X631444Y745998D03*
D48*
X618998Y745998D03*
D17*
X549529Y745998D03*
D25*
X680466Y746252D03*
D42*
X647446Y746252D03*
D19*
X630809Y746252D03*
D24*
X619125Y746252D03*
D17*
X549275Y746252D03*
D25*
X680212Y746506D03*
D42*
X647446Y746506D03*
D26*
X630174Y746506D03*
D48*
X619252Y746506D03*
D17*
X549021Y746506D03*
D25*
X680212Y746760D03*
D42*
X647446Y746760D03*
D26*
X629412Y746760D03*
D48*
X619252Y746760D03*
D17*
X548767Y746760D03*
D55*
X680085Y747014D03*
D42*
X647446Y747014D03*
D26*
X628650Y747014D03*
D48*
X619252Y747014D03*
D13*
X548386Y747014D03*
D25*
X679958Y747268D03*
D42*
X647446Y747268D03*
D26*
X627888Y747268D03*
D48*
X619506Y747268D03*
D13*
X548132Y747268D03*
D25*
X679958Y747522D03*
D42*
X647446Y747522D03*
D76*
X624078Y747522D03*
D13*
X547878Y747522D03*
D55*
X679831Y747776D03*
D28*
X647319Y747776D03*
D92*
X623697Y747776D03*
D13*
X547624Y747776D03*
D25*
X679704Y748030D03*
D28*
X647319Y748030D03*
D66*
X623443Y748030D03*
D13*
X547370Y748030D03*
D55*
X679577Y748284D03*
D28*
X647319Y748284D03*
D53*
X623062Y748284D03*
D13*
X547116Y748284D03*
D25*
X679450Y748538D03*
D28*
X647319Y748538D03*
D52*
X622681Y748538D03*
D13*
X546862Y748538D03*
D55*
X679323Y748792D03*
D28*
X647319Y748792D03*
D51*
X622300Y748792D03*
D13*
X546608Y748792D03*
D55*
X679323Y749046D03*
D28*
X647319Y749046D03*
D56*
X622046Y749046D03*
D13*
X546354Y749046D03*
D25*
X679196Y749300D03*
D28*
X647319Y749300D03*
D55*
X621665Y749300D03*
D13*
X546100Y749300D03*
D55*
X679069Y749554D03*
D28*
X647319Y749554D03*
D25*
X621030Y749554D03*
D13*
X545846Y749554D03*
D55*
X679069Y749808D03*
D28*
X647319Y749808D03*
D55*
X620395Y749808D03*
D13*
X545592Y749808D03*
D55*
X678815Y750062D03*
D28*
X647319Y750062D03*
D25*
X619506Y750062D03*
D13*
X545338Y750062D03*
D55*
X678815Y750316D03*
D28*
X647319Y750316D03*
D55*
X618871Y750316D03*
D13*
X545338Y750316D03*
D55*
X678561Y750570D03*
D28*
X647319Y750570D03*
D59*
X618363Y750570D03*
D13*
X545084Y750570D03*
D55*
X678561Y750824D03*
D28*
X647319Y750824D03*
D58*
X618109Y750824D03*
D13*
X544830Y750824D03*
D55*
X678561Y751078D03*
D28*
X647319Y751078D03*
D60*
X617728Y751078D03*
D13*
X544576Y751078D03*
D55*
X678307Y751332D03*
D28*
X647319Y751332D03*
D61*
X617347Y751332D03*
D13*
X544322Y751332D03*
D55*
X678307Y751586D03*
D28*
X647319Y751586D03*
D66*
X617093Y751586D03*
D13*
X544068Y751586D03*
D55*
X678053Y751840D03*
D28*
X647319Y751840D03*
D74*
X616712Y751840D03*
D17*
X543941Y751840D03*
D55*
X678053Y752094D03*
D28*
X647319Y752094D03*
D75*
X616331Y752094D03*
D13*
X543814Y752094D03*
D46*
X677926Y752348D03*
D28*
X647319Y752348D03*
D91*
X615950Y752348D03*
D13*
X543560Y752348D03*
D55*
X677799Y752602D03*
D28*
X647319Y752602D03*
D48*
X621030Y752602D03*
D25*
X611632Y752602D03*
D13*
X543306Y752602D03*
D55*
X677799Y752856D03*
D28*
X647319Y752856D03*
D48*
X621030Y752856D03*
D15*
X610743Y752856D03*
D17*
X543179Y752856D03*
D55*
X677545Y753110D03*
D28*
X647319Y753110D03*
D47*
X621157Y753110D03*
D15*
X609981Y753110D03*
D13*
X543052Y753110D03*
D55*
X677545Y753364D03*
D28*
X647319Y753364D03*
D48*
X621284Y753364D03*
D25*
X609092Y753364D03*
D13*
X542798Y753364D03*
D46*
X677418Y753618D03*
D28*
X647319Y753618D03*
D48*
X621284Y753618D03*
D25*
X608330Y753618D03*
D17*
X542671Y753618D03*
D55*
X677291Y753872D03*
D27*
X647446Y753872D03*
D47*
X621411Y753872D03*
D55*
X607441Y753872D03*
D13*
X542544Y753872D03*
D46*
X677164Y754126D03*
D27*
X647446Y754126D03*
D48*
X621538Y754126D03*
D55*
X606679Y754126D03*
D13*
X542290Y754126D03*
D55*
X677037Y754380D03*
D28*
X647319Y754380D03*
D48*
X621538Y754380D03*
D55*
X605663Y754380D03*
D17*
X542163Y754380D03*
D55*
X677037Y754634D03*
D28*
X647319Y754634D03*
D47*
X621665Y754634D03*
D46*
X604774Y754634D03*
D13*
X542036Y754634D03*
D46*
X676910Y754888D03*
D28*
X647319Y754888D03*
D48*
X621792Y754888D03*
D46*
X604012Y754888D03*
D17*
X541909Y754888D03*
D55*
X676783Y755142D03*
D10*
X647319Y755142D03*
D47*
X621919Y755142D03*
D59*
X603123Y755142D03*
D13*
X541782Y755142D03*
D46*
X676656Y755396D03*
D10*
X647319Y755396D03*
D47*
X621919Y755396D03*
D46*
X602234Y755396D03*
D17*
X541655Y755396D03*
D55*
X676529Y755650D03*
D41*
X647319Y755650D03*
D48*
X622046Y755650D03*
D59*
X601345Y755650D03*
D13*
X541528Y755650D03*
D46*
X676402Y755904D03*
D43*
X647319Y755904D03*
D47*
X622173Y755904D03*
D46*
X600456Y755904D03*
D17*
X541401Y755904D03*
D46*
X676402Y756158D03*
D21*
X647192Y756158D03*
D47*
X622173Y756158D03*
D59*
X599567Y756158D03*
D13*
X541274Y756158D03*
D55*
X676275Y756412D03*
D48*
X622300Y756412D03*
D59*
X598551Y756412D03*
D17*
X541147Y756412D03*
D46*
X676148Y756666D03*
D45*
X652272Y756666D03*
X642112Y756666D03*
D47*
X622427Y756666D03*
D59*
X597789Y756666D03*
D17*
X541147Y756666D03*
D55*
X676021Y756920D03*
D44*
X652145Y756920D03*
X642239Y756920D03*
D47*
X622427Y756920D03*
D59*
X596773Y756920D03*
D13*
X541020Y756920D03*
D46*
X675894Y757174D03*
D44*
X651891Y757174D03*
X642493Y757174D03*
D29*
X622554Y757174D03*
D46*
X595884Y757174D03*
D17*
X540893Y757174D03*
D55*
X675767Y757428D03*
D37*
X651764Y757428D03*
X642620Y757428D03*
D47*
X622681Y757428D03*
D59*
X594995Y757428D03*
D17*
X540893Y757428D03*
D46*
X675640Y757682D03*
D18*
X651637Y757682D03*
X642747Y757682D03*
D47*
X622681Y757682D03*
D59*
X593979Y757682D03*
D17*
X540893Y757682D03*
D46*
X675640Y757936D03*
D18*
X651383Y757936D03*
X643001Y757936D03*
D29*
X622808Y757936D03*
D59*
X592963Y757936D03*
D17*
X540893Y757936D03*
D46*
X675386Y758190D03*
D21*
X651256Y758190D03*
X643128Y758190D03*
D47*
X622935Y758190D03*
D59*
X591947Y758190D03*
D13*
X540766Y758190D03*
D46*
X675386Y758444D03*
D17*
X651129Y758444D03*
D44*
X647319Y758444D03*
D17*
X643255Y758444D03*
D47*
X622935Y758444D03*
D59*
X590931Y758444D03*
D13*
X540766Y758444D03*
D46*
X675132Y758698D03*
D13*
X651002Y758698D03*
D44*
X647319Y758698D03*
D17*
X643509Y758698D03*
D29*
X623062Y758698D03*
D59*
X589915Y758698D03*
D13*
X540766Y758698D03*
D46*
X675132Y758952D03*
D13*
X650748Y758952D03*
D18*
X647319Y758952D03*
D13*
X643636Y758952D03*
D47*
X623189Y758952D03*
D56*
X589026Y758952D03*
D13*
X540766Y758952D03*
D59*
X675005Y759206D03*
D23*
X650621Y759206D03*
D21*
X647192Y759206D03*
D13*
X643890Y759206D03*
D29*
X623316Y759206D03*
D56*
X588010Y759206D03*
D13*
X540766Y759206D03*
D46*
X674878Y759460D03*
D11*
X650494Y759460D03*
D17*
X647319Y759460D03*
D23*
X644017Y759460D03*
D29*
X623316Y759460D03*
D56*
X586994Y759460D03*
D17*
X540893Y759460D03*
D59*
X674751Y759714D03*
D11*
X650240Y759714D03*
D23*
X647319Y759714D03*
D11*
X644144Y759714D03*
D47*
X623443Y759714D03*
D65*
X585851Y759714D03*
D17*
X540893Y759714D03*
D46*
X674624Y759968D03*
D43*
X650113Y759968D03*
D23*
X647319Y759968D03*
D11*
X644398Y759968D03*
D29*
X623570Y759968D03*
D65*
X584835Y759968D03*
D13*
X541020Y759968D03*
D59*
X674497Y760222D03*
D12*
X648716Y760222D03*
D43*
X644525Y760222D03*
D29*
X623570Y760222D03*
D57*
X583692Y760222D03*
D13*
X541020Y760222D03*
D46*
X674370Y760476D03*
D34*
X647192Y760476D03*
D29*
X623824Y760476D03*
D58*
X582549Y760476D03*
D23*
X541147Y760476D03*
D59*
X674243Y760730D03*
D33*
X647319Y760730D03*
D29*
X623824Y760730D03*
D51*
X581406Y760730D03*
D13*
X541274Y760730D03*
D46*
X674116Y760984D03*
D33*
X647319Y760984D03*
D29*
X623824Y760984D03*
D51*
X580136Y760984D03*
D23*
X541401Y760984D03*
D59*
X673989Y761238D03*
D33*
X647319Y761238D03*
D29*
X624078Y761238D03*
D60*
X578866Y761238D03*
D11*
X541782Y761238D03*
D59*
X673989Y761492D03*
D47*
X647319Y761492D03*
D29*
X624078Y761492D03*
D52*
X577723Y761492D03*
D11*
X542036Y761492D03*
D59*
X673735Y761746D03*
D47*
X647319Y761746D03*
D33*
X624205Y761746D03*
D52*
X576453Y761746D03*
D43*
X542163Y761746D03*
D59*
X673735Y762000D03*
D48*
X647446Y762000D03*
D29*
X624332Y762000D03*
D61*
X575183Y762000D03*
D40*
X542544Y762000D03*
D59*
X673481Y762254D03*
D24*
X647319Y762254D03*
D29*
X624332Y762254D03*
D53*
X573786Y762254D03*
D41*
X542925Y762254D03*
D59*
X673481Y762508D03*
D24*
X647319Y762508D03*
D29*
X624586Y762508D03*
D63*
X572262Y762508D03*
D10*
X543433Y762508D03*
D59*
X673227Y762762D03*
D22*
X647446Y762762D03*
D29*
X624586Y762762D03*
D72*
X570738Y762762D03*
D28*
X543941Y762762D03*
D59*
X673227Y763016D03*
D22*
X647446Y763016D03*
D33*
X624713Y763016D03*
D74*
X568960Y763016D03*
D30*
X544576Y763016D03*
D59*
X672973Y763270D03*
D49*
X647319Y763270D03*
D33*
X624713Y763270D03*
D76*
X567182Y763270D03*
D14*
X545465Y763270D03*
D59*
X672973Y763524D03*
D38*
X647446Y763524D03*
D33*
X624967Y763524D03*
D80*
X564642Y763524D03*
D34*
X547116Y763524D03*
D59*
X672719Y763778D03*
D38*
X647446Y763778D03*
D33*
X624967Y763778D03*
D93*
X557911Y763778D03*
D59*
X672719Y764032D03*
D14*
X647319Y764032D03*
D29*
X625094Y764032D03*
D94*
X557276Y764032D03*
D59*
X672465Y764286D03*
D12*
X647446Y764286D03*
D33*
X625221Y764286D03*
D95*
X556895Y764286D03*
D59*
X672465Y764540D03*
D12*
X647446Y764540D03*
D33*
X625221Y764540D03*
D96*
X556387Y764540D03*
D59*
X672211Y764794D03*
D16*
X647319Y764794D03*
D33*
X625475Y764794D03*
D81*
X555879Y764794D03*
D59*
X672211Y765048D03*
D30*
X647446Y765048D03*
D33*
X625475Y765048D03*
D73*
X555371Y765048D03*
D59*
X671957Y765302D03*
D30*
X647446Y765302D03*
D34*
X625602Y765302D03*
D15*
X554863Y765302D03*
D56*
X671830Y765556D03*
D30*
X647446Y765556D03*
D33*
X625729Y765556D03*
D59*
X671703Y765810D03*
D30*
X647446Y765810D03*
D34*
X625856Y765810D03*
D56*
X671576Y766064D03*
D27*
X647446Y766064D03*
D33*
X625983Y766064D03*
D59*
X671449Y766318D03*
D27*
X647446Y766318D03*
D33*
X625983Y766318D03*
D56*
X671322Y766572D03*
D27*
X647446Y766572D03*
D34*
X626110Y766572D03*
D59*
X671195Y766826D03*
D27*
X647446Y766826D03*
D33*
X626237Y766826D03*
D59*
X670941Y767080D03*
D27*
X647446Y767080D03*
D34*
X626364Y767080D03*
D59*
X670941Y767334D03*
D27*
X647446Y767334D03*
D33*
X626491Y767334D03*
D59*
X670687Y767588D03*
D27*
X647446Y767588D03*
D34*
X626618Y767588D03*
D59*
X670687Y767842D03*
D42*
X647446Y767842D03*
D34*
X626618Y767842D03*
D59*
X670433Y768096D03*
D42*
X647446Y768096D03*
D34*
X626872Y768096D03*
D56*
X670306Y768350D03*
D42*
X647446Y768350D03*
D34*
X626872Y768350D03*
D59*
X670179Y768604D03*
D42*
X647446Y768604D03*
D34*
X627126Y768604D03*
D56*
X670052Y768858D03*
D42*
X647446Y768858D03*
D34*
X627126Y768858D03*
D59*
X669925Y769112D03*
D42*
X647446Y769112D03*
D34*
X627380Y769112D03*
D56*
X669798Y769366D03*
D42*
X647446Y769366D03*
D34*
X627380Y769366D03*
D59*
X669671Y769620D03*
D10*
X647573Y769620D03*
D32*
X627507Y769620D03*
D59*
X669417Y769874D03*
D20*
X647446Y769874D03*
D34*
X627634Y769874D03*
D56*
X669290Y770128D03*
D20*
X647446Y770128D03*
D32*
X627761Y770128D03*
D59*
X669163Y770382D03*
D20*
X647446Y770382D03*
D34*
X627888Y770382D03*
D56*
X669036Y770636D03*
D20*
X647446Y770636D03*
D32*
X628015Y770636D03*
D59*
X668909Y770890D03*
D20*
X647446Y770890D03*
D34*
X628142Y770890D03*
D56*
X668782Y771144D03*
D20*
X647446Y771144D03*
D32*
X628269Y771144D03*
D56*
X668528Y771398D03*
D41*
X647573Y771398D03*
D34*
X628396Y771398D03*
D56*
X668528Y771652D03*
D40*
X647446Y771652D03*
D32*
X628523Y771652D03*
D56*
X668274Y771906D03*
D40*
X647446Y771906D03*
D34*
X628650Y771906D03*
D65*
X668147Y772160D03*
D40*
X647446Y772160D03*
D32*
X628777Y772160D03*
D56*
X668020Y772414D03*
D40*
X647446Y772414D03*
D35*
X628904Y772414D03*
D56*
X667766Y772668D03*
D40*
X647446Y772668D03*
D32*
X629031Y772668D03*
D65*
X667639Y772922D03*
D43*
X647573Y772922D03*
D35*
X629158Y772922D03*
D56*
X667512Y773176D03*
D43*
X647573Y773176D03*
D32*
X629285Y773176D03*
D65*
X667385Y773430D03*
D11*
X647446Y773430D03*
D35*
X629412Y773430D03*
D65*
X667131Y773684D03*
D11*
X647446Y773684D03*
D35*
X629666Y773684D03*
D65*
X666877Y773938D03*
D11*
X647446Y773938D03*
D35*
X629666Y773938D03*
D65*
X666877Y774192D03*
D11*
X647446Y774192D03*
D35*
X629920Y774192D03*
D65*
X666623Y774446D03*
D11*
X647446Y774446D03*
D35*
X629920Y774446D03*
D65*
X666369Y774700D03*
D23*
X647573Y774700D03*
D35*
X630174Y774700D03*
D65*
X666369Y774954D03*
D23*
X647573Y774954D03*
D36*
X630301Y774954D03*
D65*
X666115Y775208D03*
D23*
X647573Y775208D03*
D35*
X630428Y775208D03*
D65*
X665861Y775462D03*
D13*
X647446Y775462D03*
D36*
X630555Y775462D03*
D57*
X665734Y775716D03*
D13*
X647446Y775716D03*
D36*
X630809Y775716D03*
D65*
X665607Y775970D03*
D13*
X647446Y775970D03*
D35*
X630936Y775970D03*
D65*
X665353Y776224D03*
D13*
X647446Y776224D03*
D36*
X631063Y776224D03*
D57*
X665226Y776478D03*
D17*
X647573Y776478D03*
D36*
X631317Y776478D03*
D57*
X664972Y776732D03*
D17*
X647573Y776732D03*
D36*
X631317Y776732D03*
D65*
X664845Y776986D03*
D17*
X647573Y776986D03*
D36*
X631571Y776986D03*
D57*
X664718Y777240D03*
D21*
X647446Y777240D03*
D39*
X631698Y777240D03*
D57*
X664464Y777494D03*
D21*
X647446Y777494D03*
D39*
X631698Y777494D03*
D57*
X664210Y777748D03*
D21*
X647446Y777748D03*
D39*
X631952Y777748D03*
D57*
X663956Y778002D03*
D18*
X647573Y778002D03*
D39*
X632206Y778002D03*
D58*
X663829Y778256D03*
D18*
X647573Y778256D03*
D19*
X632333Y778256D03*
D58*
X663575Y778510D03*
D18*
X647573Y778510D03*
D39*
X632460Y778510D03*
D57*
X663448Y778764D03*
D18*
X647573Y778764D03*
D19*
X632587Y778764D03*
D57*
X663194Y779018D03*
D37*
X647446Y779018D03*
D19*
X632841Y779018D03*
D58*
X663067Y779272D03*
D37*
X647446Y779272D03*
D19*
X633095Y779272D03*
D58*
X662813Y779526D03*
D37*
X647446Y779526D03*
D26*
X633222Y779526D03*
D58*
X662559Y779780D03*
D44*
X647573Y779780D03*
D26*
X633476Y779780D03*
D51*
X662432Y780034D03*
D44*
X647573Y780034D03*
D15*
X633603Y780034D03*
D51*
X662178Y780288D03*
D44*
X647573Y780288D03*
D26*
X633730Y780288D03*
D51*
X661924Y780542D03*
D44*
X647573Y780542D03*
D26*
X633984Y780542D03*
D51*
X661670Y780796D03*
D44*
X647573Y780796D03*
D15*
X634111Y780796D03*
D51*
X661416Y781050D03*
D45*
X647446Y781050D03*
D15*
X634365Y781050D03*
D50*
X661289Y781304D03*
D15*
X634619Y781304D03*
D60*
X660908Y781558D03*
D55*
X634873Y781558D03*
D60*
X660654Y781812D03*
D55*
X635127Y781812D03*
D60*
X660400Y782066D03*
D55*
X635381Y782066D03*
D60*
X660146Y782320D03*
D55*
X635635Y782320D03*
D52*
X660019Y782574D03*
D46*
X635762Y782574D03*
D54*
X659638Y782828D03*
D46*
X636016Y782828D03*
D54*
X659384Y783082D03*
D59*
X636397Y783082D03*
D61*
X659003Y783336D03*
D56*
X636524Y783336D03*
D61*
X658749Y783590D03*
D65*
X636905Y783590D03*
D53*
X658368Y783844D03*
D65*
X637159Y783844D03*
D62*
X657987Y784098D03*
D57*
X637540Y784098D03*
D63*
X657606Y784352D03*
D58*
X637921Y784352D03*
D72*
X657098Y784606D03*
D60*
X638302Y784606D03*
D74*
X656590Y784860D03*
D54*
X638810Y784860D03*
D97*
X648208Y785114D03*
D98*
X648208Y785368D03*
D99*
X648208Y785622D03*
D100*
X648208Y785876D03*
D101*
X648208Y786130D03*
D102*
X648081Y786384D03*
D93*
X648081Y786638D03*
D103*
X648081Y786892D03*
D104*
X648081Y787146D03*
D105*
X648081Y787400D03*
D94*
X647954Y787654D03*
D106*
X647954Y787908D03*
D107*
X647954Y788162D03*
D70*
X648081Y788416D03*
D108*
X647954Y788670D03*
D109*
X647954Y788924D03*
D110*
X647954Y789178D03*
D111*
X647954Y789432D03*
D112*
X647954Y789686D03*
D87*
X647827Y789940D03*
D84*
X647827Y790194D03*
D82*
X647827Y790448D03*
D90*
X647827Y790702D03*
D78*
X647827Y790956D03*
D76*
X647700Y791210D03*
D74*
X647700Y791464D03*
D63*
X647700Y791718D03*
D52*
X647827Y791972D03*
D57*
X647700Y792226D03*
D25*
X647700Y792480D03*
D35*
X647700Y792734D03*
D49*
X647573Y792988D03*
D43*
X647827Y793242D03*
D113*
X769098Y593979D02*
X774319Y593979D01*
X769098Y593979D02*
X774319Y584581D01*
X769098Y584581D01*
X765392Y588236D02*
X759127Y588236D01*
X762260Y585103D02*
X762260Y591368D01*
X747412Y584581D02*
X747323Y584583D01*
X747235Y584589D01*
X747147Y584598D01*
X747059Y584611D01*
X746972Y584628D01*
X746886Y584648D01*
X746801Y584673D01*
X746716Y584700D01*
X746633Y584732D01*
X746552Y584766D01*
X746472Y584805D01*
X746394Y584846D01*
X746317Y584891D01*
X746243Y584939D01*
X746170Y584990D01*
X746100Y585044D01*
X746033Y585102D01*
X745967Y585162D01*
X745905Y585224D01*
X745845Y585290D01*
X745787Y585357D01*
X745733Y585427D01*
X745682Y585500D01*
X745634Y585574D01*
X745589Y585651D01*
X745548Y585729D01*
X745509Y585809D01*
X745475Y585890D01*
X745443Y585973D01*
X745416Y586058D01*
X745391Y586143D01*
X745371Y586229D01*
X745354Y586316D01*
X745341Y586404D01*
X745332Y586492D01*
X745326Y586580D01*
X745324Y586669D01*
X747412Y584581D02*
X747541Y584583D01*
X747670Y584589D01*
X747799Y584598D01*
X747927Y584611D01*
X748055Y584628D01*
X748182Y584649D01*
X748309Y584673D01*
X748435Y584701D01*
X748560Y584733D01*
X748684Y584768D01*
X748807Y584807D01*
X748929Y584850D01*
X749049Y584896D01*
X749168Y584946D01*
X749286Y584999D01*
X749402Y585055D01*
X749516Y585115D01*
X749629Y585178D01*
X749739Y585245D01*
X749848Y585314D01*
X749954Y585387D01*
X750059Y585463D01*
X750161Y585542D01*
X750261Y585624D01*
X750358Y585708D01*
X750453Y585796D01*
X750545Y585886D01*
X750283Y591891D02*
X750281Y591980D01*
X750275Y592068D01*
X750266Y592156D01*
X750253Y592244D01*
X750236Y592331D01*
X750216Y592417D01*
X750191Y592502D01*
X750164Y592587D01*
X750132Y592670D01*
X750098Y592751D01*
X750059Y592831D01*
X750018Y592909D01*
X749973Y592986D01*
X749925Y593060D01*
X749874Y593133D01*
X749820Y593203D01*
X749762Y593270D01*
X749702Y593336D01*
X749640Y593398D01*
X749574Y593458D01*
X749507Y593516D01*
X749437Y593570D01*
X749364Y593621D01*
X749290Y593669D01*
X749213Y593714D01*
X749135Y593755D01*
X749055Y593794D01*
X748974Y593828D01*
X748891Y593860D01*
X748806Y593887D01*
X748721Y593912D01*
X748635Y593932D01*
X748548Y593949D01*
X748460Y593962D01*
X748372Y593971D01*
X748284Y593977D01*
X748195Y593979D01*
X748075Y593977D01*
X747955Y593972D01*
X747836Y593962D01*
X747716Y593950D01*
X747597Y593933D01*
X747479Y593913D01*
X747361Y593889D01*
X747245Y593862D01*
X747129Y593831D01*
X747014Y593797D01*
X746900Y593759D01*
X746787Y593717D01*
X746676Y593672D01*
X746566Y593624D01*
X746458Y593573D01*
X746351Y593518D01*
X746246Y593460D01*
X746143Y593398D01*
X746042Y593334D01*
X745942Y593266D01*
X745845Y593196D01*
X749240Y590064D02*
X749318Y590112D01*
X749394Y590164D01*
X749467Y590218D01*
X749538Y590276D01*
X749607Y590337D01*
X749673Y590401D01*
X749736Y590468D01*
X749796Y590537D01*
X749853Y590609D01*
X749907Y590683D01*
X749957Y590760D01*
X750005Y590839D01*
X750048Y590919D01*
X750089Y591002D01*
X750125Y591086D01*
X750158Y591171D01*
X750187Y591258D01*
X750213Y591347D01*
X750235Y591436D01*
X750252Y591526D01*
X750266Y591616D01*
X750276Y591708D01*
X750282Y591799D01*
X750284Y591891D01*
X746368Y588496D02*
X746290Y588448D01*
X746214Y588396D01*
X746141Y588342D01*
X746070Y588284D01*
X746001Y588223D01*
X745935Y588159D01*
X745872Y588092D01*
X745812Y588023D01*
X745755Y587951D01*
X745701Y587877D01*
X745651Y587800D01*
X745603Y587721D01*
X745560Y587641D01*
X745519Y587558D01*
X745483Y587474D01*
X745450Y587389D01*
X745421Y587302D01*
X745395Y587213D01*
X745373Y587124D01*
X745356Y587034D01*
X745342Y586944D01*
X745332Y586852D01*
X745326Y586761D01*
X745324Y586669D01*
X746368Y588497D02*
X749239Y590063D01*
X741401Y587192D02*
X741401Y593979D01*
X741401Y587192D02*
X741399Y587091D01*
X741393Y586990D01*
X741383Y586889D01*
X741370Y586789D01*
X741352Y586689D01*
X741331Y586590D01*
X741305Y586492D01*
X741276Y586395D01*
X741244Y586299D01*
X741207Y586205D01*
X741167Y586112D01*
X741123Y586020D01*
X741076Y585931D01*
X741025Y585843D01*
X740971Y585757D01*
X740914Y585674D01*
X740854Y585592D01*
X740790Y585514D01*
X740724Y585437D01*
X740654Y585364D01*
X740582Y585293D01*
X740507Y585225D01*
X740429Y585160D01*
X740349Y585098D01*
X740267Y585039D01*
X740182Y584983D01*
X740096Y584931D01*
X740007Y584882D01*
X739916Y584836D01*
X739824Y584795D01*
X739730Y584756D01*
X739635Y584722D01*
X739539Y584691D01*
X739441Y584664D01*
X739343Y584640D01*
X739243Y584621D01*
X739143Y584605D01*
X739043Y584593D01*
X738942Y584585D01*
X738841Y584581D01*
X738739Y584581D01*
X738638Y584585D01*
X738537Y584593D01*
X738437Y584605D01*
X738337Y584621D01*
X738237Y584640D01*
X738139Y584664D01*
X738041Y584691D01*
X737945Y584722D01*
X737850Y584756D01*
X737756Y584795D01*
X737664Y584836D01*
X737573Y584882D01*
X737485Y584931D01*
X737398Y584983D01*
X737313Y585039D01*
X737231Y585098D01*
X737151Y585160D01*
X737073Y585225D01*
X736998Y585293D01*
X736926Y585364D01*
X736856Y585437D01*
X736790Y585514D01*
X736726Y585592D01*
X736666Y585674D01*
X736609Y585757D01*
X736555Y585843D01*
X736504Y585931D01*
X736457Y586020D01*
X736413Y586112D01*
X736373Y586205D01*
X736336Y586299D01*
X736304Y586395D01*
X736275Y586492D01*
X736249Y586590D01*
X736228Y586689D01*
X736210Y586789D01*
X736197Y586889D01*
X736187Y586990D01*
X736181Y587091D01*
X736179Y587192D01*
X736180Y587192D02*
X736180Y593979D01*
X731647Y593979D02*
X731647Y584581D01*
X726426Y584581D02*
X731647Y593979D01*
X726426Y593979D02*
X726426Y584581D01*
X714494Y584581D02*
X714405Y584583D01*
X714317Y584589D01*
X714229Y584598D01*
X714141Y584611D01*
X714054Y584628D01*
X713968Y584648D01*
X713883Y584673D01*
X713798Y584700D01*
X713715Y584732D01*
X713634Y584766D01*
X713554Y584805D01*
X713476Y584846D01*
X713399Y584891D01*
X713325Y584939D01*
X713252Y584990D01*
X713182Y585044D01*
X713115Y585102D01*
X713049Y585162D01*
X712987Y585224D01*
X712927Y585290D01*
X712869Y585357D01*
X712815Y585427D01*
X712764Y585500D01*
X712716Y585574D01*
X712671Y585651D01*
X712630Y585729D01*
X712591Y585809D01*
X712557Y585890D01*
X712525Y585973D01*
X712498Y586058D01*
X712473Y586143D01*
X712453Y586229D01*
X712436Y586316D01*
X712423Y586404D01*
X712414Y586492D01*
X712408Y586580D01*
X712406Y586669D01*
X714494Y584581D02*
X714623Y584583D01*
X714752Y584589D01*
X714881Y584598D01*
X715009Y584611D01*
X715137Y584628D01*
X715264Y584649D01*
X715391Y584673D01*
X715517Y584701D01*
X715642Y584733D01*
X715766Y584768D01*
X715889Y584807D01*
X716011Y584850D01*
X716131Y584896D01*
X716250Y584946D01*
X716368Y584999D01*
X716484Y585055D01*
X716598Y585115D01*
X716711Y585178D01*
X716821Y585245D01*
X716930Y585314D01*
X717036Y585387D01*
X717141Y585463D01*
X717243Y585542D01*
X717343Y585624D01*
X717440Y585708D01*
X717535Y585796D01*
X717627Y585886D01*
X717365Y591891D02*
X717363Y591980D01*
X717357Y592068D01*
X717348Y592156D01*
X717335Y592244D01*
X717318Y592331D01*
X717298Y592417D01*
X717273Y592502D01*
X717246Y592587D01*
X717214Y592670D01*
X717180Y592751D01*
X717141Y592831D01*
X717100Y592909D01*
X717055Y592986D01*
X717007Y593060D01*
X716956Y593133D01*
X716902Y593203D01*
X716844Y593270D01*
X716784Y593336D01*
X716722Y593398D01*
X716656Y593458D01*
X716589Y593516D01*
X716519Y593570D01*
X716446Y593621D01*
X716372Y593669D01*
X716295Y593714D01*
X716217Y593755D01*
X716137Y593794D01*
X716056Y593828D01*
X715973Y593860D01*
X715888Y593887D01*
X715803Y593912D01*
X715717Y593932D01*
X715630Y593949D01*
X715542Y593962D01*
X715454Y593971D01*
X715366Y593977D01*
X715277Y593979D01*
X715157Y593977D01*
X715037Y593972D01*
X714918Y593962D01*
X714798Y593950D01*
X714679Y593933D01*
X714561Y593913D01*
X714443Y593889D01*
X714327Y593862D01*
X714211Y593831D01*
X714096Y593797D01*
X713982Y593759D01*
X713869Y593717D01*
X713758Y593672D01*
X713648Y593624D01*
X713540Y593573D01*
X713433Y593518D01*
X713328Y593460D01*
X713225Y593398D01*
X713124Y593334D01*
X713024Y593266D01*
X712927Y593196D01*
X716321Y590064D02*
X716399Y590112D01*
X716475Y590164D01*
X716548Y590218D01*
X716619Y590276D01*
X716688Y590337D01*
X716754Y590401D01*
X716817Y590468D01*
X716877Y590537D01*
X716934Y590609D01*
X716988Y590683D01*
X717038Y590760D01*
X717086Y590839D01*
X717129Y590919D01*
X717170Y591002D01*
X717206Y591086D01*
X717239Y591171D01*
X717268Y591258D01*
X717294Y591347D01*
X717316Y591436D01*
X717333Y591526D01*
X717347Y591616D01*
X717357Y591708D01*
X717363Y591799D01*
X717365Y591891D01*
X713449Y588496D02*
X713371Y588448D01*
X713295Y588396D01*
X713222Y588342D01*
X713151Y588284D01*
X713082Y588223D01*
X713016Y588159D01*
X712953Y588092D01*
X712893Y588023D01*
X712836Y587951D01*
X712782Y587877D01*
X712732Y587800D01*
X712684Y587721D01*
X712641Y587641D01*
X712600Y587558D01*
X712564Y587474D01*
X712531Y587389D01*
X712502Y587302D01*
X712476Y587213D01*
X712454Y587124D01*
X712437Y587034D01*
X712423Y586944D01*
X712413Y586852D01*
X712407Y586761D01*
X712405Y586669D01*
X713450Y588497D02*
X716321Y590063D01*
X708465Y584581D02*
X704288Y584581D01*
X708465Y584581D02*
X708465Y593979D01*
X704288Y593979D01*
X705332Y589802D02*
X708465Y589802D01*
X700558Y593979D02*
X700558Y584581D01*
X695337Y584581D02*
X700558Y593979D01*
X695337Y593979D02*
X695337Y584581D01*
X688281Y584581D02*
X688192Y584583D01*
X688104Y584589D01*
X688016Y584598D01*
X687928Y584611D01*
X687841Y584628D01*
X687755Y584648D01*
X687670Y584673D01*
X687585Y584700D01*
X687502Y584732D01*
X687421Y584766D01*
X687341Y584805D01*
X687263Y584846D01*
X687186Y584891D01*
X687112Y584939D01*
X687039Y584990D01*
X686969Y585044D01*
X686902Y585102D01*
X686836Y585162D01*
X686774Y585224D01*
X686714Y585290D01*
X686656Y585357D01*
X686602Y585427D01*
X686551Y585500D01*
X686503Y585574D01*
X686458Y585651D01*
X686417Y585729D01*
X686378Y585809D01*
X686344Y585890D01*
X686312Y585973D01*
X686285Y586058D01*
X686260Y586143D01*
X686240Y586229D01*
X686223Y586316D01*
X686210Y586404D01*
X686201Y586492D01*
X686195Y586580D01*
X686193Y586669D01*
X688281Y584581D02*
X688410Y584583D01*
X688539Y584589D01*
X688668Y584598D01*
X688796Y584611D01*
X688924Y584628D01*
X689051Y584649D01*
X689178Y584673D01*
X689304Y584701D01*
X689429Y584733D01*
X689553Y584768D01*
X689676Y584807D01*
X689798Y584850D01*
X689918Y584896D01*
X690037Y584946D01*
X690155Y584999D01*
X690271Y585055D01*
X690385Y585115D01*
X690498Y585178D01*
X690608Y585245D01*
X690717Y585314D01*
X690823Y585387D01*
X690928Y585463D01*
X691030Y585542D01*
X691130Y585624D01*
X691227Y585708D01*
X691322Y585796D01*
X691414Y585886D01*
X691152Y591891D02*
X691150Y591980D01*
X691144Y592068D01*
X691135Y592156D01*
X691122Y592244D01*
X691105Y592331D01*
X691085Y592417D01*
X691060Y592502D01*
X691033Y592587D01*
X691001Y592670D01*
X690967Y592751D01*
X690928Y592831D01*
X690887Y592909D01*
X690842Y592986D01*
X690794Y593060D01*
X690743Y593133D01*
X690689Y593203D01*
X690631Y593270D01*
X690571Y593336D01*
X690509Y593398D01*
X690443Y593458D01*
X690376Y593516D01*
X690306Y593570D01*
X690233Y593621D01*
X690159Y593669D01*
X690082Y593714D01*
X690004Y593755D01*
X689924Y593794D01*
X689843Y593828D01*
X689760Y593860D01*
X689675Y593887D01*
X689590Y593912D01*
X689504Y593932D01*
X689417Y593949D01*
X689329Y593962D01*
X689241Y593971D01*
X689153Y593977D01*
X689064Y593979D01*
X688944Y593977D01*
X688824Y593972D01*
X688705Y593962D01*
X688585Y593950D01*
X688466Y593933D01*
X688348Y593913D01*
X688230Y593889D01*
X688114Y593862D01*
X687998Y593831D01*
X687883Y593797D01*
X687769Y593759D01*
X687656Y593717D01*
X687545Y593672D01*
X687435Y593624D01*
X687327Y593573D01*
X687220Y593518D01*
X687115Y593460D01*
X687012Y593398D01*
X686911Y593334D01*
X686811Y593266D01*
X686714Y593196D01*
X690109Y590064D02*
X690187Y590112D01*
X690263Y590164D01*
X690336Y590218D01*
X690407Y590276D01*
X690476Y590337D01*
X690542Y590401D01*
X690605Y590468D01*
X690665Y590537D01*
X690722Y590609D01*
X690776Y590683D01*
X690826Y590760D01*
X690874Y590839D01*
X690917Y590919D01*
X690958Y591002D01*
X690994Y591086D01*
X691027Y591171D01*
X691056Y591258D01*
X691082Y591347D01*
X691104Y591436D01*
X691121Y591526D01*
X691135Y591616D01*
X691145Y591708D01*
X691151Y591799D01*
X691153Y591891D01*
X687237Y588496D02*
X687159Y588448D01*
X687083Y588396D01*
X687010Y588342D01*
X686939Y588284D01*
X686870Y588223D01*
X686804Y588159D01*
X686741Y588092D01*
X686681Y588023D01*
X686624Y587951D01*
X686570Y587877D01*
X686520Y587800D01*
X686472Y587721D01*
X686429Y587641D01*
X686388Y587558D01*
X686352Y587474D01*
X686319Y587389D01*
X686290Y587302D01*
X686264Y587213D01*
X686242Y587124D01*
X686225Y587034D01*
X686211Y586944D01*
X686201Y586852D01*
X686195Y586761D01*
X686193Y586669D01*
X687237Y588497D02*
X690109Y590063D01*
X682252Y584581D02*
X678075Y584581D01*
X682252Y584581D02*
X682252Y593979D01*
X678075Y593979D01*
X679120Y589802D02*
X682252Y589802D01*
X669337Y589802D02*
X666727Y589802D01*
X666727Y589803D02*
X666626Y589801D01*
X666525Y589795D01*
X666424Y589785D01*
X666324Y589772D01*
X666224Y589754D01*
X666125Y589733D01*
X666027Y589707D01*
X665930Y589678D01*
X665834Y589646D01*
X665740Y589609D01*
X665647Y589569D01*
X665555Y589525D01*
X665466Y589478D01*
X665378Y589427D01*
X665292Y589373D01*
X665209Y589316D01*
X665127Y589256D01*
X665049Y589192D01*
X664972Y589126D01*
X664899Y589056D01*
X664828Y588984D01*
X664760Y588909D01*
X664695Y588831D01*
X664633Y588751D01*
X664574Y588669D01*
X664518Y588584D01*
X664466Y588498D01*
X664417Y588409D01*
X664371Y588318D01*
X664330Y588226D01*
X664291Y588132D01*
X664257Y588037D01*
X664226Y587941D01*
X664199Y587843D01*
X664175Y587745D01*
X664156Y587645D01*
X664140Y587545D01*
X664128Y587445D01*
X664120Y587344D01*
X664116Y587243D01*
X664116Y587141D01*
X664120Y587040D01*
X664128Y586939D01*
X664140Y586839D01*
X664156Y586739D01*
X664175Y586639D01*
X664199Y586541D01*
X664226Y586443D01*
X664257Y586347D01*
X664291Y586252D01*
X664330Y586158D01*
X664371Y586066D01*
X664417Y585975D01*
X664466Y585887D01*
X664518Y585800D01*
X664574Y585715D01*
X664633Y585633D01*
X664695Y585553D01*
X664760Y585475D01*
X664828Y585400D01*
X664899Y585328D01*
X664972Y585258D01*
X665049Y585192D01*
X665127Y585128D01*
X665209Y585068D01*
X665292Y585011D01*
X665378Y584957D01*
X665466Y584906D01*
X665555Y584859D01*
X665647Y584815D01*
X665740Y584775D01*
X665834Y584738D01*
X665930Y584706D01*
X666027Y584677D01*
X666125Y584651D01*
X666224Y584630D01*
X666324Y584612D01*
X666424Y584599D01*
X666525Y584589D01*
X666626Y584583D01*
X666727Y584581D01*
X669337Y584581D01*
X669337Y593979D01*
X666727Y593979D01*
X666637Y593977D01*
X666548Y593971D01*
X666458Y593962D01*
X666369Y593948D01*
X666281Y593931D01*
X666194Y593910D01*
X666107Y593885D01*
X666022Y593856D01*
X665938Y593824D01*
X665856Y593789D01*
X665775Y593749D01*
X665696Y593707D01*
X665619Y593661D01*
X665544Y593611D01*
X665471Y593559D01*
X665400Y593503D01*
X665332Y593445D01*
X665267Y593383D01*
X665204Y593319D01*
X665144Y593252D01*
X665087Y593183D01*
X665033Y593111D01*
X664982Y593037D01*
X664934Y592961D01*
X664890Y592883D01*
X664849Y592803D01*
X664811Y592721D01*
X664777Y592638D01*
X664747Y592553D01*
X664720Y592467D01*
X664697Y592381D01*
X664678Y592293D01*
X664663Y592204D01*
X664651Y592115D01*
X664643Y592026D01*
X664639Y591936D01*
X664639Y591846D01*
X664643Y591756D01*
X664651Y591667D01*
X664663Y591578D01*
X664678Y591489D01*
X664697Y591401D01*
X664720Y591315D01*
X664747Y591229D01*
X664777Y591144D01*
X664811Y591061D01*
X664849Y590979D01*
X664890Y590899D01*
X664934Y590821D01*
X664982Y590745D01*
X665033Y590671D01*
X665087Y590599D01*
X665144Y590530D01*
X665204Y590463D01*
X665267Y590399D01*
X665332Y590337D01*
X665400Y590279D01*
X665471Y590223D01*
X665544Y590171D01*
X665619Y590121D01*
X665696Y590075D01*
X665775Y590033D01*
X665856Y589993D01*
X665938Y589958D01*
X666022Y589926D01*
X666107Y589897D01*
X666194Y589872D01*
X666281Y589851D01*
X666369Y589834D01*
X666458Y589820D01*
X666548Y589811D01*
X666637Y589805D01*
X666727Y589803D01*
X660629Y591368D02*
X660629Y587192D01*
X660630Y591368D02*
X660628Y591469D01*
X660622Y591570D01*
X660612Y591671D01*
X660599Y591771D01*
X660581Y591871D01*
X660560Y591970D01*
X660534Y592068D01*
X660505Y592165D01*
X660473Y592261D01*
X660436Y592355D01*
X660396Y592448D01*
X660352Y592540D01*
X660305Y592629D01*
X660254Y592717D01*
X660200Y592803D01*
X660143Y592886D01*
X660083Y592968D01*
X660019Y593046D01*
X659953Y593123D01*
X659883Y593196D01*
X659811Y593267D01*
X659736Y593335D01*
X659658Y593400D01*
X659578Y593462D01*
X659496Y593521D01*
X659411Y593577D01*
X659325Y593629D01*
X659236Y593678D01*
X659145Y593724D01*
X659053Y593765D01*
X658959Y593804D01*
X658864Y593838D01*
X658768Y593869D01*
X658670Y593896D01*
X658572Y593920D01*
X658472Y593939D01*
X658372Y593955D01*
X658272Y593967D01*
X658171Y593975D01*
X658070Y593979D01*
X657968Y593979D01*
X657867Y593975D01*
X657766Y593967D01*
X657666Y593955D01*
X657566Y593939D01*
X657466Y593920D01*
X657368Y593896D01*
X657270Y593869D01*
X657174Y593838D01*
X657079Y593804D01*
X656985Y593765D01*
X656893Y593724D01*
X656802Y593678D01*
X656714Y593629D01*
X656627Y593577D01*
X656542Y593521D01*
X656460Y593462D01*
X656380Y593400D01*
X656302Y593335D01*
X656227Y593267D01*
X656155Y593196D01*
X656085Y593123D01*
X656019Y593046D01*
X655955Y592968D01*
X655895Y592886D01*
X655838Y592803D01*
X655784Y592717D01*
X655733Y592629D01*
X655686Y592540D01*
X655642Y592448D01*
X655602Y592355D01*
X655565Y592261D01*
X655533Y592165D01*
X655504Y592068D01*
X655478Y591970D01*
X655457Y591871D01*
X655439Y591771D01*
X655426Y591671D01*
X655416Y591570D01*
X655410Y591469D01*
X655408Y591368D01*
X655408Y587192D01*
X655410Y587091D01*
X655416Y586990D01*
X655426Y586889D01*
X655439Y586789D01*
X655457Y586689D01*
X655478Y586590D01*
X655504Y586492D01*
X655533Y586395D01*
X655565Y586299D01*
X655602Y586205D01*
X655642Y586112D01*
X655686Y586020D01*
X655733Y585931D01*
X655784Y585843D01*
X655838Y585757D01*
X655895Y585674D01*
X655955Y585592D01*
X656019Y585514D01*
X656085Y585437D01*
X656155Y585364D01*
X656227Y585293D01*
X656302Y585225D01*
X656380Y585160D01*
X656460Y585098D01*
X656542Y585039D01*
X656627Y584983D01*
X656714Y584931D01*
X656802Y584882D01*
X656893Y584836D01*
X656985Y584795D01*
X657079Y584756D01*
X657174Y584722D01*
X657270Y584691D01*
X657368Y584664D01*
X657466Y584640D01*
X657566Y584621D01*
X657666Y584605D01*
X657766Y584593D01*
X657867Y584585D01*
X657968Y584581D01*
X658070Y584581D01*
X658171Y584585D01*
X658272Y584593D01*
X658372Y584605D01*
X658472Y584621D01*
X658572Y584640D01*
X658670Y584664D01*
X658768Y584691D01*
X658864Y584722D01*
X658959Y584756D01*
X659053Y584795D01*
X659145Y584836D01*
X659236Y584882D01*
X659325Y584931D01*
X659411Y584983D01*
X659496Y585039D01*
X659578Y585098D01*
X659658Y585160D01*
X659736Y585225D01*
X659811Y585293D01*
X659883Y585364D01*
X659953Y585437D01*
X660019Y585514D01*
X660083Y585592D01*
X660143Y585674D01*
X660200Y585757D01*
X660254Y585843D01*
X660305Y585931D01*
X660352Y586020D01*
X660396Y586112D01*
X660436Y586205D01*
X660473Y586299D01*
X660505Y586395D01*
X660534Y586492D01*
X660560Y586590D01*
X660581Y586689D01*
X660599Y586789D01*
X660612Y586889D01*
X660622Y586990D01*
X660628Y587091D01*
X660630Y587192D01*
X652007Y584581D02*
X648875Y593979D01*
X645742Y584581D01*
X646525Y586931D02*
X651224Y586931D01*
X641979Y584581D02*
X641979Y593979D01*
X639369Y593979D01*
X639268Y593977D01*
X639167Y593971D01*
X639066Y593961D01*
X638966Y593948D01*
X638866Y593930D01*
X638767Y593909D01*
X638669Y593883D01*
X638572Y593854D01*
X638476Y593822D01*
X638382Y593785D01*
X638289Y593745D01*
X638197Y593701D01*
X638108Y593654D01*
X638020Y593603D01*
X637934Y593549D01*
X637851Y593492D01*
X637769Y593432D01*
X637691Y593368D01*
X637614Y593302D01*
X637541Y593232D01*
X637470Y593160D01*
X637402Y593085D01*
X637337Y593007D01*
X637275Y592927D01*
X637216Y592845D01*
X637160Y592760D01*
X637108Y592674D01*
X637059Y592585D01*
X637013Y592494D01*
X636972Y592402D01*
X636933Y592308D01*
X636899Y592213D01*
X636868Y592117D01*
X636841Y592019D01*
X636817Y591921D01*
X636798Y591821D01*
X636782Y591721D01*
X636770Y591621D01*
X636762Y591520D01*
X636758Y591419D01*
X636758Y591317D01*
X636762Y591216D01*
X636770Y591115D01*
X636782Y591015D01*
X636798Y590915D01*
X636817Y590815D01*
X636841Y590717D01*
X636868Y590619D01*
X636899Y590523D01*
X636933Y590428D01*
X636972Y590334D01*
X637013Y590242D01*
X637059Y590151D01*
X637108Y590063D01*
X637160Y589976D01*
X637216Y589891D01*
X637275Y589809D01*
X637337Y589729D01*
X637402Y589651D01*
X637470Y589576D01*
X637541Y589504D01*
X637614Y589434D01*
X637691Y589368D01*
X637769Y589304D01*
X637851Y589244D01*
X637934Y589187D01*
X638020Y589133D01*
X638108Y589082D01*
X638197Y589035D01*
X638289Y588991D01*
X638382Y588951D01*
X638476Y588914D01*
X638572Y588882D01*
X638669Y588853D01*
X638767Y588827D01*
X638866Y588806D01*
X638966Y588788D01*
X639066Y588775D01*
X639167Y588765D01*
X639268Y588759D01*
X639369Y588757D01*
X639369Y588758D02*
X641979Y588758D01*
X638847Y588758D02*
X636758Y584581D01*
X632588Y584581D02*
X632588Y593979D01*
X629977Y593979D01*
X629877Y593977D01*
X629777Y593971D01*
X629678Y593962D01*
X629578Y593948D01*
X629480Y593931D01*
X629382Y593910D01*
X629285Y593886D01*
X629189Y593857D01*
X629094Y593825D01*
X629001Y593790D01*
X628909Y593751D01*
X628818Y593708D01*
X628730Y593662D01*
X628643Y593612D01*
X628558Y593560D01*
X628475Y593504D01*
X628394Y593445D01*
X628316Y593382D01*
X628240Y593317D01*
X628166Y593249D01*
X628096Y593179D01*
X628028Y593105D01*
X627963Y593029D01*
X627900Y592951D01*
X627841Y592870D01*
X627785Y592787D01*
X627733Y592702D01*
X627683Y592615D01*
X627637Y592527D01*
X627594Y592436D01*
X627555Y592344D01*
X627520Y592251D01*
X627488Y592156D01*
X627459Y592060D01*
X627435Y591963D01*
X627414Y591865D01*
X627397Y591767D01*
X627383Y591667D01*
X627374Y591568D01*
X627368Y591468D01*
X627366Y591368D01*
X627367Y591368D02*
X627367Y587192D01*
X627366Y587192D02*
X627368Y587092D01*
X627374Y586992D01*
X627383Y586893D01*
X627397Y586793D01*
X627414Y586695D01*
X627435Y586597D01*
X627459Y586500D01*
X627488Y586404D01*
X627520Y586309D01*
X627555Y586216D01*
X627594Y586124D01*
X627637Y586033D01*
X627683Y585945D01*
X627733Y585858D01*
X627785Y585773D01*
X627841Y585690D01*
X627900Y585609D01*
X627963Y585531D01*
X628028Y585455D01*
X628096Y585381D01*
X628166Y585311D01*
X628240Y585243D01*
X628316Y585178D01*
X628394Y585115D01*
X628475Y585056D01*
X628558Y585000D01*
X628643Y584948D01*
X628730Y584898D01*
X628818Y584852D01*
X628909Y584809D01*
X629001Y584770D01*
X629094Y584735D01*
X629189Y584703D01*
X629285Y584674D01*
X629382Y584650D01*
X629480Y584629D01*
X629578Y584612D01*
X629678Y584598D01*
X629777Y584589D01*
X629877Y584583D01*
X629977Y584581D01*
X632588Y584581D01*
X618175Y588236D02*
X611909Y588236D01*
X602660Y584581D02*
X602660Y593979D01*
X600050Y593979D01*
X599949Y593977D01*
X599848Y593971D01*
X599747Y593961D01*
X599647Y593948D01*
X599547Y593930D01*
X599448Y593909D01*
X599350Y593883D01*
X599253Y593854D01*
X599157Y593822D01*
X599063Y593785D01*
X598970Y593745D01*
X598878Y593701D01*
X598789Y593654D01*
X598701Y593603D01*
X598615Y593549D01*
X598532Y593492D01*
X598450Y593432D01*
X598372Y593368D01*
X598295Y593302D01*
X598222Y593232D01*
X598151Y593160D01*
X598083Y593085D01*
X598018Y593007D01*
X597956Y592927D01*
X597897Y592845D01*
X597841Y592760D01*
X597789Y592674D01*
X597740Y592585D01*
X597694Y592494D01*
X597653Y592402D01*
X597614Y592308D01*
X597580Y592213D01*
X597549Y592117D01*
X597522Y592019D01*
X597498Y591921D01*
X597479Y591821D01*
X597463Y591721D01*
X597451Y591621D01*
X597443Y591520D01*
X597439Y591419D01*
X597439Y591317D01*
X597443Y591216D01*
X597451Y591115D01*
X597463Y591015D01*
X597479Y590915D01*
X597498Y590815D01*
X597522Y590717D01*
X597549Y590619D01*
X597580Y590523D01*
X597614Y590428D01*
X597653Y590334D01*
X597694Y590242D01*
X597740Y590151D01*
X597789Y590063D01*
X597841Y589976D01*
X597897Y589891D01*
X597956Y589809D01*
X598018Y589729D01*
X598083Y589651D01*
X598151Y589576D01*
X598222Y589504D01*
X598295Y589434D01*
X598372Y589368D01*
X598450Y589304D01*
X598532Y589244D01*
X598615Y589187D01*
X598701Y589133D01*
X598789Y589082D01*
X598878Y589035D01*
X598970Y588991D01*
X599063Y588951D01*
X599157Y588914D01*
X599253Y588882D01*
X599350Y588853D01*
X599448Y588827D01*
X599547Y588806D01*
X599647Y588788D01*
X599747Y588775D01*
X599848Y588765D01*
X599949Y588759D01*
X600050Y588757D01*
X600050Y588758D02*
X602660Y588758D01*
X599528Y588758D02*
X597439Y584581D01*
X592095Y584581D02*
X589484Y584581D01*
X592095Y584581D02*
X592172Y584583D01*
X592248Y584589D01*
X592325Y584598D01*
X592401Y584611D01*
X592476Y584628D01*
X592550Y584648D01*
X592623Y584673D01*
X592694Y584700D01*
X592765Y584731D01*
X592833Y584766D01*
X592900Y584804D01*
X592965Y584845D01*
X593028Y584889D01*
X593088Y584936D01*
X593147Y584987D01*
X593202Y585040D01*
X593255Y585095D01*
X593306Y585154D01*
X593353Y585214D01*
X593397Y585277D01*
X593438Y585342D01*
X593476Y585409D01*
X593511Y585477D01*
X593542Y585548D01*
X593569Y585619D01*
X593594Y585692D01*
X593614Y585766D01*
X593631Y585841D01*
X593644Y585917D01*
X593653Y585994D01*
X593659Y586070D01*
X593661Y586147D01*
X593661Y588758D01*
X593659Y588848D01*
X593653Y588937D01*
X593644Y589027D01*
X593630Y589116D01*
X593613Y589204D01*
X593592Y589291D01*
X593567Y589378D01*
X593538Y589463D01*
X593506Y589547D01*
X593471Y589629D01*
X593431Y589710D01*
X593389Y589789D01*
X593343Y589866D01*
X593293Y589941D01*
X593241Y590014D01*
X593185Y590085D01*
X593127Y590153D01*
X593065Y590218D01*
X593001Y590281D01*
X592934Y590341D01*
X592865Y590398D01*
X592793Y590452D01*
X592719Y590503D01*
X592643Y590551D01*
X592565Y590595D01*
X592485Y590636D01*
X592403Y590674D01*
X592320Y590708D01*
X592235Y590738D01*
X592149Y590765D01*
X592063Y590788D01*
X591975Y590807D01*
X591886Y590822D01*
X591797Y590834D01*
X591708Y590842D01*
X591618Y590846D01*
X591528Y590846D01*
X591438Y590842D01*
X591349Y590834D01*
X591260Y590822D01*
X591171Y590807D01*
X591083Y590788D01*
X590997Y590765D01*
X590911Y590738D01*
X590826Y590708D01*
X590743Y590674D01*
X590661Y590636D01*
X590581Y590595D01*
X590503Y590551D01*
X590427Y590503D01*
X590353Y590452D01*
X590281Y590398D01*
X590212Y590341D01*
X590145Y590281D01*
X590081Y590218D01*
X590019Y590153D01*
X589961Y590085D01*
X589905Y590014D01*
X589853Y589941D01*
X589803Y589866D01*
X589757Y589789D01*
X589715Y589710D01*
X589675Y589629D01*
X589640Y589547D01*
X589608Y589463D01*
X589579Y589378D01*
X589554Y589291D01*
X589533Y589204D01*
X589516Y589116D01*
X589502Y589027D01*
X589493Y588937D01*
X589487Y588848D01*
X589485Y588758D01*
X589484Y588758D02*
X589484Y587714D01*
X593661Y587714D01*
X586041Y590846D02*
X583953Y584581D01*
X581864Y590846D01*
X573979Y584581D02*
X570846Y593979D01*
X567714Y584581D01*
X568497Y586931D02*
X573196Y586931D01*
X774319Y578104D02*
X774319Y568706D01*
X774319Y578104D02*
X771708Y578104D01*
X771608Y578102D01*
X771508Y578096D01*
X771409Y578087D01*
X771309Y578073D01*
X771211Y578056D01*
X771113Y578035D01*
X771016Y578011D01*
X770920Y577982D01*
X770825Y577950D01*
X770732Y577915D01*
X770640Y577876D01*
X770549Y577833D01*
X770461Y577787D01*
X770374Y577737D01*
X770289Y577685D01*
X770206Y577629D01*
X770125Y577570D01*
X770047Y577507D01*
X769971Y577442D01*
X769897Y577374D01*
X769827Y577304D01*
X769759Y577230D01*
X769694Y577154D01*
X769631Y577076D01*
X769572Y576995D01*
X769516Y576912D01*
X769464Y576827D01*
X769414Y576740D01*
X769368Y576652D01*
X769325Y576561D01*
X769286Y576469D01*
X769251Y576376D01*
X769219Y576281D01*
X769190Y576185D01*
X769166Y576088D01*
X769145Y575990D01*
X769128Y575892D01*
X769114Y575792D01*
X769105Y575693D01*
X769099Y575593D01*
X769097Y575493D01*
X769098Y575493D02*
X769098Y571317D01*
X769097Y571317D02*
X769099Y571217D01*
X769105Y571117D01*
X769114Y571018D01*
X769128Y570918D01*
X769145Y570820D01*
X769166Y570722D01*
X769190Y570625D01*
X769219Y570529D01*
X769251Y570434D01*
X769286Y570341D01*
X769325Y570249D01*
X769368Y570158D01*
X769414Y570070D01*
X769464Y569983D01*
X769516Y569898D01*
X769572Y569815D01*
X769631Y569734D01*
X769694Y569656D01*
X769759Y569580D01*
X769827Y569506D01*
X769897Y569436D01*
X769971Y569368D01*
X770047Y569303D01*
X770125Y569240D01*
X770206Y569181D01*
X770289Y569125D01*
X770374Y569073D01*
X770461Y569023D01*
X770549Y568977D01*
X770640Y568934D01*
X770732Y568895D01*
X770825Y568860D01*
X770920Y568828D01*
X771016Y568799D01*
X771113Y568775D01*
X771211Y568754D01*
X771309Y568737D01*
X771409Y568723D01*
X771508Y568714D01*
X771608Y568708D01*
X771708Y568706D01*
X774319Y568706D01*
X763391Y568706D02*
X760781Y568706D01*
X763391Y568706D02*
X763468Y568708D01*
X763544Y568714D01*
X763621Y568723D01*
X763697Y568736D01*
X763772Y568753D01*
X763846Y568773D01*
X763919Y568798D01*
X763990Y568825D01*
X764061Y568856D01*
X764129Y568891D01*
X764196Y568929D01*
X764261Y568970D01*
X764324Y569014D01*
X764384Y569061D01*
X764443Y569112D01*
X764498Y569165D01*
X764551Y569220D01*
X764602Y569279D01*
X764649Y569339D01*
X764693Y569402D01*
X764734Y569467D01*
X764772Y569534D01*
X764807Y569602D01*
X764838Y569673D01*
X764865Y569744D01*
X764890Y569817D01*
X764910Y569891D01*
X764927Y569966D01*
X764940Y570042D01*
X764949Y570119D01*
X764955Y570195D01*
X764957Y570272D01*
X764958Y570272D02*
X764958Y572883D01*
X764957Y572883D02*
X764955Y572973D01*
X764949Y573062D01*
X764940Y573152D01*
X764926Y573241D01*
X764909Y573329D01*
X764888Y573416D01*
X764863Y573503D01*
X764834Y573588D01*
X764802Y573672D01*
X764767Y573754D01*
X764727Y573835D01*
X764685Y573914D01*
X764639Y573991D01*
X764589Y574066D01*
X764537Y574139D01*
X764481Y574210D01*
X764423Y574278D01*
X764361Y574343D01*
X764297Y574406D01*
X764230Y574466D01*
X764161Y574523D01*
X764089Y574577D01*
X764015Y574628D01*
X763939Y574676D01*
X763861Y574720D01*
X763781Y574761D01*
X763699Y574799D01*
X763616Y574833D01*
X763531Y574863D01*
X763445Y574890D01*
X763359Y574913D01*
X763271Y574932D01*
X763182Y574947D01*
X763093Y574959D01*
X763004Y574967D01*
X762914Y574971D01*
X762824Y574971D01*
X762734Y574967D01*
X762645Y574959D01*
X762556Y574947D01*
X762467Y574932D01*
X762379Y574913D01*
X762293Y574890D01*
X762207Y574863D01*
X762122Y574833D01*
X762039Y574799D01*
X761957Y574761D01*
X761877Y574720D01*
X761799Y574676D01*
X761723Y574628D01*
X761649Y574577D01*
X761577Y574523D01*
X761508Y574466D01*
X761441Y574406D01*
X761377Y574343D01*
X761315Y574278D01*
X761257Y574210D01*
X761201Y574139D01*
X761149Y574066D01*
X761099Y573991D01*
X761053Y573914D01*
X761011Y573835D01*
X760971Y573754D01*
X760936Y573672D01*
X760904Y573588D01*
X760875Y573503D01*
X760850Y573416D01*
X760829Y573329D01*
X760812Y573241D01*
X760798Y573152D01*
X760789Y573062D01*
X760783Y572973D01*
X760781Y572883D01*
X760781Y571839D01*
X764958Y571839D01*
X756250Y572361D02*
X753639Y571317D01*
X756250Y572361D02*
X756316Y572389D01*
X756381Y572422D01*
X756444Y572457D01*
X756505Y572496D01*
X756564Y572538D01*
X756620Y572583D01*
X756674Y572631D01*
X756725Y572682D01*
X756774Y572735D01*
X756819Y572792D01*
X756862Y572850D01*
X756901Y572910D01*
X756938Y572973D01*
X756970Y573038D01*
X756999Y573104D01*
X757025Y573171D01*
X757047Y573240D01*
X757065Y573310D01*
X757080Y573381D01*
X757091Y573452D01*
X757098Y573524D01*
X757101Y573596D01*
X757100Y573668D01*
X757095Y573741D01*
X757087Y573812D01*
X757075Y573884D01*
X757059Y573954D01*
X757039Y574023D01*
X757015Y574092D01*
X756988Y574159D01*
X756958Y574224D01*
X756924Y574288D01*
X756886Y574350D01*
X756846Y574410D01*
X756802Y574467D01*
X756755Y574522D01*
X756705Y574575D01*
X756653Y574624D01*
X756598Y574671D01*
X756541Y574715D01*
X756481Y574756D01*
X756419Y574793D01*
X756355Y574828D01*
X756290Y574858D01*
X756223Y574886D01*
X756155Y574909D01*
X756085Y574929D01*
X756015Y574945D01*
X755944Y574958D01*
X755872Y574966D01*
X755800Y574971D01*
X755728Y574972D01*
X755727Y574971D02*
X755576Y574967D01*
X755425Y574959D01*
X755274Y574948D01*
X755123Y574932D01*
X754973Y574912D01*
X754823Y574889D01*
X754674Y574862D01*
X754526Y574831D01*
X754378Y574796D01*
X754232Y574758D01*
X754086Y574715D01*
X753942Y574669D01*
X753799Y574620D01*
X753657Y574567D01*
X753517Y574510D01*
X753378Y574449D01*
X753639Y571317D02*
X753573Y571289D01*
X753508Y571256D01*
X753445Y571221D01*
X753384Y571182D01*
X753325Y571140D01*
X753269Y571095D01*
X753215Y571047D01*
X753164Y570996D01*
X753115Y570943D01*
X753070Y570886D01*
X753027Y570828D01*
X752988Y570768D01*
X752951Y570705D01*
X752919Y570640D01*
X752890Y570574D01*
X752864Y570507D01*
X752842Y570438D01*
X752824Y570368D01*
X752809Y570297D01*
X752798Y570226D01*
X752791Y570154D01*
X752788Y570082D01*
X752789Y570010D01*
X752794Y569937D01*
X752802Y569866D01*
X752814Y569794D01*
X752830Y569724D01*
X752850Y569655D01*
X752874Y569586D01*
X752901Y569519D01*
X752931Y569454D01*
X752965Y569390D01*
X753003Y569328D01*
X753043Y569268D01*
X753087Y569211D01*
X753134Y569156D01*
X753184Y569103D01*
X753236Y569054D01*
X753291Y569007D01*
X753348Y568963D01*
X753408Y568922D01*
X753470Y568885D01*
X753534Y568850D01*
X753599Y568820D01*
X753666Y568792D01*
X753734Y568769D01*
X753804Y568749D01*
X753874Y568733D01*
X753945Y568720D01*
X754017Y568712D01*
X754089Y568707D01*
X754161Y568706D01*
X754371Y568711D01*
X754580Y568722D01*
X754789Y568737D01*
X754997Y568757D01*
X755205Y568783D01*
X755412Y568813D01*
X755619Y568848D01*
X755824Y568888D01*
X756029Y568932D01*
X756232Y568982D01*
X756435Y569036D01*
X756636Y569096D01*
X756835Y569159D01*
X757033Y569228D01*
X749153Y568706D02*
X749153Y574971D01*
X749414Y577582D02*
X749414Y578104D01*
X748892Y578104D01*
X748892Y577582D01*
X749414Y577582D01*
X743930Y568706D02*
X741319Y568706D01*
X743930Y568706D02*
X744007Y568708D01*
X744083Y568714D01*
X744160Y568723D01*
X744236Y568736D01*
X744311Y568753D01*
X744385Y568773D01*
X744458Y568798D01*
X744529Y568825D01*
X744600Y568856D01*
X744668Y568891D01*
X744735Y568929D01*
X744800Y568970D01*
X744863Y569014D01*
X744923Y569061D01*
X744982Y569112D01*
X745037Y569165D01*
X745090Y569220D01*
X745141Y569279D01*
X745188Y569339D01*
X745232Y569402D01*
X745273Y569467D01*
X745311Y569534D01*
X745346Y569602D01*
X745377Y569673D01*
X745404Y569744D01*
X745429Y569817D01*
X745449Y569891D01*
X745466Y569966D01*
X745479Y570042D01*
X745488Y570119D01*
X745494Y570195D01*
X745496Y570272D01*
X745496Y573405D01*
X745494Y573482D01*
X745488Y573558D01*
X745479Y573635D01*
X745466Y573711D01*
X745449Y573786D01*
X745429Y573860D01*
X745404Y573933D01*
X745377Y574004D01*
X745346Y574075D01*
X745311Y574143D01*
X745273Y574210D01*
X745232Y574275D01*
X745188Y574338D01*
X745141Y574398D01*
X745090Y574457D01*
X745037Y574512D01*
X744982Y574565D01*
X744923Y574616D01*
X744863Y574663D01*
X744800Y574707D01*
X744735Y574748D01*
X744668Y574786D01*
X744600Y574821D01*
X744529Y574852D01*
X744458Y574879D01*
X744385Y574904D01*
X744311Y574924D01*
X744236Y574941D01*
X744160Y574954D01*
X744083Y574963D01*
X744007Y574969D01*
X743930Y574971D01*
X741319Y574971D01*
X741319Y567140D01*
X741320Y567140D02*
X741322Y567063D01*
X741328Y566987D01*
X741337Y566910D01*
X741350Y566834D01*
X741367Y566759D01*
X741387Y566685D01*
X741412Y566612D01*
X741439Y566541D01*
X741470Y566470D01*
X741505Y566402D01*
X741543Y566335D01*
X741584Y566270D01*
X741628Y566207D01*
X741675Y566147D01*
X741726Y566088D01*
X741779Y566033D01*
X741834Y565980D01*
X741893Y565929D01*
X741953Y565882D01*
X742016Y565838D01*
X742081Y565797D01*
X742148Y565759D01*
X742216Y565724D01*
X742287Y565693D01*
X742358Y565666D01*
X742431Y565641D01*
X742505Y565621D01*
X742580Y565604D01*
X742656Y565591D01*
X742733Y565582D01*
X742809Y565576D01*
X742886Y565574D01*
X742886Y565573D02*
X744974Y565573D01*
X736916Y568706D02*
X736916Y574971D01*
X734306Y574971D01*
X734229Y574969D01*
X734153Y574963D01*
X734076Y574954D01*
X734000Y574941D01*
X733926Y574924D01*
X733851Y574904D01*
X733778Y574879D01*
X733707Y574852D01*
X733636Y574821D01*
X733568Y574786D01*
X733501Y574748D01*
X733436Y574707D01*
X733373Y574663D01*
X733313Y574616D01*
X733254Y574565D01*
X733199Y574512D01*
X733146Y574457D01*
X733095Y574398D01*
X733048Y574338D01*
X733004Y574275D01*
X732963Y574210D01*
X732925Y574143D01*
X732890Y574075D01*
X732859Y574004D01*
X732832Y573933D01*
X732807Y573860D01*
X732787Y573786D01*
X732770Y573711D01*
X732757Y573635D01*
X732748Y573559D01*
X732742Y573482D01*
X732740Y573405D01*
X732739Y573405D02*
X732739Y568706D01*
X727120Y568706D02*
X724510Y568706D01*
X727120Y568706D02*
X727197Y568708D01*
X727273Y568714D01*
X727350Y568723D01*
X727426Y568736D01*
X727501Y568753D01*
X727575Y568773D01*
X727648Y568798D01*
X727719Y568825D01*
X727790Y568856D01*
X727858Y568891D01*
X727925Y568929D01*
X727990Y568970D01*
X728053Y569014D01*
X728113Y569061D01*
X728172Y569112D01*
X728227Y569165D01*
X728280Y569220D01*
X728331Y569279D01*
X728378Y569339D01*
X728422Y569402D01*
X728463Y569467D01*
X728501Y569534D01*
X728536Y569602D01*
X728567Y569673D01*
X728594Y569744D01*
X728619Y569817D01*
X728639Y569891D01*
X728656Y569966D01*
X728669Y570042D01*
X728678Y570119D01*
X728684Y570195D01*
X728686Y570272D01*
X728687Y570272D02*
X728687Y572883D01*
X728686Y572883D02*
X728684Y572973D01*
X728678Y573062D01*
X728669Y573152D01*
X728655Y573241D01*
X728638Y573329D01*
X728617Y573416D01*
X728592Y573503D01*
X728563Y573588D01*
X728531Y573672D01*
X728496Y573754D01*
X728456Y573835D01*
X728414Y573914D01*
X728368Y573991D01*
X728318Y574066D01*
X728266Y574139D01*
X728210Y574210D01*
X728152Y574278D01*
X728090Y574343D01*
X728026Y574406D01*
X727959Y574466D01*
X727890Y574523D01*
X727818Y574577D01*
X727744Y574628D01*
X727668Y574676D01*
X727590Y574720D01*
X727510Y574761D01*
X727428Y574799D01*
X727345Y574833D01*
X727260Y574863D01*
X727174Y574890D01*
X727088Y574913D01*
X727000Y574932D01*
X726911Y574947D01*
X726822Y574959D01*
X726733Y574967D01*
X726643Y574971D01*
X726553Y574971D01*
X726463Y574967D01*
X726374Y574959D01*
X726285Y574947D01*
X726196Y574932D01*
X726108Y574913D01*
X726022Y574890D01*
X725936Y574863D01*
X725851Y574833D01*
X725768Y574799D01*
X725686Y574761D01*
X725606Y574720D01*
X725528Y574676D01*
X725452Y574628D01*
X725378Y574577D01*
X725306Y574523D01*
X725237Y574466D01*
X725170Y574406D01*
X725106Y574343D01*
X725044Y574278D01*
X724986Y574210D01*
X724930Y574139D01*
X724878Y574066D01*
X724828Y573991D01*
X724782Y573914D01*
X724740Y573835D01*
X724700Y573754D01*
X724665Y573672D01*
X724633Y573588D01*
X724604Y573503D01*
X724579Y573416D01*
X724558Y573329D01*
X724541Y573241D01*
X724527Y573152D01*
X724518Y573062D01*
X724512Y572973D01*
X724510Y572883D01*
X724510Y571839D01*
X728687Y571839D01*
X716631Y568706D02*
X716631Y578104D01*
X716631Y568706D02*
X719241Y568706D01*
X719318Y568708D01*
X719394Y568714D01*
X719471Y568723D01*
X719547Y568736D01*
X719622Y568753D01*
X719696Y568773D01*
X719769Y568798D01*
X719840Y568825D01*
X719911Y568856D01*
X719979Y568891D01*
X720046Y568929D01*
X720111Y568970D01*
X720174Y569014D01*
X720234Y569061D01*
X720293Y569112D01*
X720348Y569165D01*
X720401Y569220D01*
X720452Y569279D01*
X720499Y569339D01*
X720543Y569402D01*
X720584Y569467D01*
X720622Y569534D01*
X720657Y569602D01*
X720688Y569673D01*
X720715Y569744D01*
X720740Y569817D01*
X720760Y569891D01*
X720777Y569966D01*
X720790Y570042D01*
X720799Y570119D01*
X720805Y570195D01*
X720807Y570272D01*
X720808Y570272D02*
X720808Y573405D01*
X720807Y573405D02*
X720805Y573482D01*
X720799Y573558D01*
X720790Y573635D01*
X720777Y573711D01*
X720760Y573786D01*
X720740Y573860D01*
X720715Y573933D01*
X720688Y574004D01*
X720657Y574075D01*
X720622Y574143D01*
X720584Y574210D01*
X720543Y574275D01*
X720499Y574338D01*
X720452Y574398D01*
X720401Y574457D01*
X720348Y574512D01*
X720293Y574565D01*
X720234Y574616D01*
X720174Y574663D01*
X720111Y574707D01*
X720046Y574748D01*
X719979Y574786D01*
X719911Y574821D01*
X719840Y574852D01*
X719769Y574879D01*
X719696Y574904D01*
X719622Y574924D01*
X719547Y574941D01*
X719471Y574954D01*
X719394Y574963D01*
X719318Y574969D01*
X719241Y574971D01*
X716631Y574971D01*
X707305Y578104D02*
X707305Y568706D01*
X704695Y568706D01*
X704618Y568708D01*
X704542Y568714D01*
X704465Y568723D01*
X704389Y568736D01*
X704315Y568753D01*
X704240Y568773D01*
X704167Y568798D01*
X704096Y568825D01*
X704025Y568856D01*
X703957Y568891D01*
X703890Y568929D01*
X703825Y568970D01*
X703762Y569014D01*
X703702Y569061D01*
X703643Y569112D01*
X703588Y569165D01*
X703535Y569220D01*
X703484Y569279D01*
X703437Y569339D01*
X703393Y569402D01*
X703352Y569467D01*
X703314Y569534D01*
X703279Y569602D01*
X703248Y569673D01*
X703221Y569744D01*
X703196Y569817D01*
X703176Y569891D01*
X703159Y569966D01*
X703146Y570042D01*
X703137Y570118D01*
X703131Y570195D01*
X703129Y570272D01*
X703128Y570272D02*
X703128Y573405D01*
X703129Y573405D02*
X703131Y573482D01*
X703137Y573558D01*
X703146Y573635D01*
X703159Y573711D01*
X703176Y573786D01*
X703196Y573860D01*
X703221Y573933D01*
X703248Y574004D01*
X703279Y574075D01*
X703314Y574143D01*
X703352Y574210D01*
X703393Y574275D01*
X703437Y574338D01*
X703484Y574398D01*
X703535Y574457D01*
X703588Y574512D01*
X703643Y574565D01*
X703702Y574616D01*
X703762Y574663D01*
X703825Y574707D01*
X703890Y574748D01*
X703957Y574786D01*
X704025Y574821D01*
X704096Y574852D01*
X704167Y574879D01*
X704240Y574904D01*
X704315Y574924D01*
X704390Y574941D01*
X704465Y574954D01*
X704542Y574963D01*
X704618Y574969D01*
X704695Y574971D01*
X707305Y574971D01*
X699731Y565573D02*
X698687Y565573D01*
X695554Y574971D01*
X699731Y574971D02*
X697643Y568706D01*
X685146Y568706D02*
X685146Y578104D01*
X687756Y578104D02*
X682535Y578104D01*
X679616Y569228D02*
X679616Y568706D01*
X679616Y569228D02*
X679094Y569228D01*
X679094Y568706D01*
X679616Y568706D01*
X668625Y568706D02*
X666537Y568706D01*
X668625Y568706D02*
X668714Y568708D01*
X668802Y568714D01*
X668890Y568723D01*
X668978Y568736D01*
X669065Y568753D01*
X669151Y568773D01*
X669236Y568798D01*
X669321Y568825D01*
X669404Y568857D01*
X669485Y568891D01*
X669565Y568930D01*
X669643Y568971D01*
X669720Y569016D01*
X669794Y569064D01*
X669867Y569115D01*
X669937Y569169D01*
X670004Y569227D01*
X670070Y569287D01*
X670132Y569349D01*
X670192Y569415D01*
X670250Y569482D01*
X670304Y569552D01*
X670355Y569625D01*
X670403Y569699D01*
X670448Y569776D01*
X670489Y569854D01*
X670528Y569934D01*
X670562Y570015D01*
X670594Y570098D01*
X670621Y570183D01*
X670646Y570268D01*
X670666Y570354D01*
X670683Y570441D01*
X670696Y570529D01*
X670705Y570617D01*
X670711Y570705D01*
X670713Y570794D01*
X670713Y576016D01*
X670711Y576105D01*
X670705Y576193D01*
X670696Y576281D01*
X670683Y576369D01*
X670666Y576456D01*
X670646Y576542D01*
X670621Y576627D01*
X670594Y576712D01*
X670562Y576795D01*
X670528Y576876D01*
X670489Y576956D01*
X670448Y577034D01*
X670403Y577111D01*
X670355Y577185D01*
X670304Y577258D01*
X670250Y577328D01*
X670192Y577395D01*
X670132Y577461D01*
X670070Y577523D01*
X670004Y577583D01*
X669937Y577641D01*
X669867Y577695D01*
X669794Y577746D01*
X669720Y577794D01*
X669643Y577839D01*
X669565Y577880D01*
X669485Y577919D01*
X669404Y577953D01*
X669321Y577985D01*
X669236Y578012D01*
X669151Y578037D01*
X669065Y578057D01*
X668978Y578074D01*
X668890Y578087D01*
X668802Y578096D01*
X668714Y578102D01*
X668625Y578104D01*
X666537Y578104D01*
X662850Y578104D02*
X662850Y568706D01*
X662850Y574971D02*
X660240Y574971D01*
X660163Y574969D01*
X660087Y574963D01*
X660010Y574954D01*
X659934Y574941D01*
X659860Y574924D01*
X659785Y574904D01*
X659712Y574879D01*
X659641Y574852D01*
X659570Y574821D01*
X659502Y574786D01*
X659435Y574748D01*
X659370Y574707D01*
X659307Y574663D01*
X659247Y574616D01*
X659188Y574565D01*
X659133Y574512D01*
X659080Y574457D01*
X659029Y574398D01*
X658982Y574338D01*
X658938Y574275D01*
X658897Y574210D01*
X658859Y574143D01*
X658824Y574075D01*
X658793Y574004D01*
X658766Y573933D01*
X658741Y573860D01*
X658721Y573786D01*
X658704Y573711D01*
X658691Y573635D01*
X658682Y573559D01*
X658676Y573482D01*
X658674Y573405D01*
X658674Y568706D01*
X654265Y568706D02*
X654265Y574971D01*
X651132Y574971D01*
X651132Y573927D01*
X648265Y574971D02*
X648265Y568706D01*
X648526Y577582D02*
X648526Y578104D01*
X648004Y578104D01*
X648004Y577582D01*
X648526Y577582D01*
X643779Y572361D02*
X641169Y571317D01*
X643780Y572361D02*
X643846Y572389D01*
X643911Y572422D01*
X643974Y572457D01*
X644035Y572496D01*
X644094Y572538D01*
X644150Y572583D01*
X644204Y572631D01*
X644255Y572682D01*
X644304Y572735D01*
X644349Y572792D01*
X644392Y572850D01*
X644431Y572910D01*
X644468Y572973D01*
X644500Y573038D01*
X644529Y573104D01*
X644555Y573171D01*
X644577Y573240D01*
X644595Y573310D01*
X644610Y573381D01*
X644621Y573452D01*
X644628Y573524D01*
X644631Y573596D01*
X644630Y573668D01*
X644625Y573741D01*
X644617Y573812D01*
X644605Y573884D01*
X644589Y573954D01*
X644569Y574023D01*
X644545Y574092D01*
X644518Y574159D01*
X644488Y574224D01*
X644454Y574288D01*
X644416Y574350D01*
X644376Y574410D01*
X644332Y574467D01*
X644285Y574522D01*
X644235Y574575D01*
X644183Y574624D01*
X644128Y574671D01*
X644071Y574715D01*
X644011Y574756D01*
X643949Y574793D01*
X643885Y574828D01*
X643820Y574858D01*
X643753Y574886D01*
X643685Y574909D01*
X643615Y574929D01*
X643545Y574945D01*
X643474Y574958D01*
X643402Y574966D01*
X643330Y574971D01*
X643258Y574972D01*
X643257Y574971D02*
X643106Y574967D01*
X642955Y574959D01*
X642804Y574948D01*
X642653Y574932D01*
X642503Y574912D01*
X642353Y574889D01*
X642204Y574862D01*
X642056Y574831D01*
X641908Y574796D01*
X641762Y574758D01*
X641616Y574715D01*
X641472Y574669D01*
X641329Y574620D01*
X641187Y574567D01*
X641047Y574510D01*
X640908Y574449D01*
X641169Y571317D02*
X641103Y571289D01*
X641038Y571256D01*
X640975Y571221D01*
X640914Y571182D01*
X640855Y571140D01*
X640799Y571095D01*
X640745Y571047D01*
X640694Y570996D01*
X640645Y570943D01*
X640600Y570886D01*
X640557Y570828D01*
X640518Y570768D01*
X640481Y570705D01*
X640449Y570640D01*
X640420Y570574D01*
X640394Y570507D01*
X640372Y570438D01*
X640354Y570368D01*
X640339Y570297D01*
X640328Y570226D01*
X640321Y570154D01*
X640318Y570082D01*
X640319Y570010D01*
X640324Y569937D01*
X640332Y569866D01*
X640344Y569794D01*
X640360Y569724D01*
X640380Y569655D01*
X640404Y569586D01*
X640431Y569519D01*
X640461Y569454D01*
X640495Y569390D01*
X640533Y569328D01*
X640573Y569268D01*
X640617Y569211D01*
X640664Y569156D01*
X640714Y569103D01*
X640766Y569054D01*
X640821Y569007D01*
X640878Y568963D01*
X640938Y568922D01*
X641000Y568885D01*
X641064Y568850D01*
X641129Y568820D01*
X641196Y568792D01*
X641264Y568769D01*
X641334Y568749D01*
X641404Y568733D01*
X641475Y568720D01*
X641547Y568712D01*
X641619Y568707D01*
X641691Y568706D01*
X641901Y568711D01*
X642110Y568722D01*
X642319Y568737D01*
X642527Y568757D01*
X642735Y568783D01*
X642942Y568813D01*
X643149Y568848D01*
X643354Y568888D01*
X643559Y568932D01*
X643762Y568982D01*
X643965Y569036D01*
X644166Y569096D01*
X644365Y569159D01*
X644563Y569228D01*
X637406Y574971D02*
X634274Y574971D01*
X636362Y578104D02*
X636362Y570272D01*
X636360Y570195D01*
X636354Y570119D01*
X636345Y570042D01*
X636332Y569966D01*
X636315Y569891D01*
X636295Y569817D01*
X636270Y569744D01*
X636243Y569673D01*
X636212Y569602D01*
X636177Y569534D01*
X636139Y569467D01*
X636098Y569402D01*
X636054Y569339D01*
X636007Y569279D01*
X635956Y569220D01*
X635903Y569165D01*
X635848Y569112D01*
X635789Y569061D01*
X635729Y569014D01*
X635666Y568970D01*
X635601Y568929D01*
X635534Y568891D01*
X635466Y568856D01*
X635395Y568825D01*
X635324Y568798D01*
X635251Y568773D01*
X635177Y568753D01*
X635102Y568736D01*
X635026Y568723D01*
X634949Y568714D01*
X634873Y568708D01*
X634796Y568706D01*
X634274Y568706D01*
X630892Y568706D02*
X630892Y574971D01*
X631153Y577582D02*
X631153Y578104D01*
X630631Y578104D01*
X630631Y577582D01*
X631153Y577582D01*
X626406Y572361D02*
X623795Y571317D01*
X626406Y572361D02*
X626472Y572389D01*
X626537Y572422D01*
X626600Y572457D01*
X626661Y572496D01*
X626720Y572538D01*
X626776Y572583D01*
X626830Y572631D01*
X626881Y572682D01*
X626930Y572735D01*
X626975Y572792D01*
X627018Y572850D01*
X627057Y572910D01*
X627094Y572973D01*
X627126Y573038D01*
X627155Y573104D01*
X627181Y573171D01*
X627203Y573240D01*
X627221Y573310D01*
X627236Y573381D01*
X627247Y573452D01*
X627254Y573524D01*
X627257Y573596D01*
X627256Y573668D01*
X627251Y573741D01*
X627243Y573812D01*
X627231Y573884D01*
X627215Y573954D01*
X627195Y574023D01*
X627171Y574092D01*
X627144Y574159D01*
X627114Y574224D01*
X627080Y574288D01*
X627042Y574350D01*
X627002Y574410D01*
X626958Y574467D01*
X626911Y574522D01*
X626861Y574575D01*
X626809Y574624D01*
X626754Y574671D01*
X626697Y574715D01*
X626637Y574756D01*
X626575Y574793D01*
X626511Y574828D01*
X626446Y574858D01*
X626379Y574886D01*
X626311Y574909D01*
X626241Y574929D01*
X626171Y574945D01*
X626100Y574958D01*
X626028Y574966D01*
X625956Y574971D01*
X625884Y574972D01*
X625883Y574971D02*
X625732Y574967D01*
X625581Y574959D01*
X625430Y574948D01*
X625279Y574932D01*
X625129Y574912D01*
X624979Y574889D01*
X624830Y574862D01*
X624682Y574831D01*
X624534Y574796D01*
X624388Y574758D01*
X624242Y574715D01*
X624098Y574669D01*
X623955Y574620D01*
X623813Y574567D01*
X623673Y574510D01*
X623534Y574449D01*
X623795Y571317D02*
X623729Y571289D01*
X623664Y571256D01*
X623601Y571221D01*
X623540Y571182D01*
X623481Y571140D01*
X623425Y571095D01*
X623371Y571047D01*
X623320Y570996D01*
X623271Y570943D01*
X623226Y570886D01*
X623183Y570828D01*
X623144Y570768D01*
X623107Y570705D01*
X623075Y570640D01*
X623046Y570574D01*
X623020Y570507D01*
X622998Y570438D01*
X622980Y570368D01*
X622965Y570297D01*
X622954Y570226D01*
X622947Y570154D01*
X622944Y570082D01*
X622945Y570010D01*
X622950Y569937D01*
X622958Y569866D01*
X622970Y569794D01*
X622986Y569724D01*
X623006Y569655D01*
X623030Y569586D01*
X623057Y569519D01*
X623087Y569454D01*
X623121Y569390D01*
X623159Y569328D01*
X623199Y569268D01*
X623243Y569211D01*
X623290Y569156D01*
X623340Y569103D01*
X623392Y569054D01*
X623447Y569007D01*
X623504Y568963D01*
X623564Y568922D01*
X623626Y568885D01*
X623690Y568850D01*
X623755Y568820D01*
X623822Y568792D01*
X623890Y568769D01*
X623960Y568749D01*
X624030Y568733D01*
X624101Y568720D01*
X624173Y568712D01*
X624245Y568707D01*
X624317Y568706D01*
X624527Y568711D01*
X624736Y568722D01*
X624945Y568737D01*
X625153Y568757D01*
X625361Y568783D01*
X625568Y568813D01*
X625775Y568848D01*
X625980Y568888D01*
X626185Y568932D01*
X626388Y568982D01*
X626591Y569036D01*
X626792Y569096D01*
X626991Y569159D01*
X627189Y569228D01*
X619264Y570794D02*
X619264Y572883D01*
X619262Y572973D01*
X619256Y573062D01*
X619247Y573152D01*
X619233Y573241D01*
X619216Y573329D01*
X619195Y573416D01*
X619170Y573503D01*
X619141Y573588D01*
X619109Y573672D01*
X619074Y573754D01*
X619034Y573835D01*
X618992Y573914D01*
X618946Y573991D01*
X618896Y574066D01*
X618844Y574139D01*
X618788Y574210D01*
X618730Y574278D01*
X618668Y574343D01*
X618604Y574406D01*
X618537Y574466D01*
X618468Y574523D01*
X618396Y574577D01*
X618322Y574628D01*
X618246Y574676D01*
X618168Y574720D01*
X618088Y574761D01*
X618006Y574799D01*
X617923Y574833D01*
X617838Y574863D01*
X617752Y574890D01*
X617666Y574913D01*
X617578Y574932D01*
X617489Y574947D01*
X617400Y574959D01*
X617311Y574967D01*
X617221Y574971D01*
X617131Y574971D01*
X617041Y574967D01*
X616952Y574959D01*
X616863Y574947D01*
X616774Y574932D01*
X616686Y574913D01*
X616600Y574890D01*
X616514Y574863D01*
X616429Y574833D01*
X616346Y574799D01*
X616264Y574761D01*
X616184Y574720D01*
X616106Y574676D01*
X616030Y574628D01*
X615956Y574577D01*
X615884Y574523D01*
X615815Y574466D01*
X615748Y574406D01*
X615684Y574343D01*
X615622Y574278D01*
X615564Y574210D01*
X615508Y574139D01*
X615456Y574066D01*
X615406Y573991D01*
X615360Y573914D01*
X615318Y573835D01*
X615278Y573754D01*
X615243Y573672D01*
X615211Y573588D01*
X615182Y573503D01*
X615157Y573416D01*
X615136Y573329D01*
X615119Y573241D01*
X615105Y573152D01*
X615096Y573062D01*
X615090Y572973D01*
X615088Y572883D01*
X615087Y572883D02*
X615087Y570794D01*
X615088Y570794D02*
X615090Y570704D01*
X615096Y570615D01*
X615105Y570525D01*
X615119Y570436D01*
X615136Y570348D01*
X615157Y570261D01*
X615182Y570174D01*
X615211Y570089D01*
X615243Y570005D01*
X615278Y569923D01*
X615318Y569842D01*
X615360Y569763D01*
X615406Y569686D01*
X615456Y569611D01*
X615508Y569538D01*
X615564Y569467D01*
X615622Y569399D01*
X615684Y569334D01*
X615748Y569271D01*
X615815Y569211D01*
X615884Y569154D01*
X615956Y569100D01*
X616030Y569049D01*
X616106Y569001D01*
X616184Y568957D01*
X616264Y568916D01*
X616346Y568878D01*
X616429Y568844D01*
X616514Y568814D01*
X616600Y568787D01*
X616686Y568764D01*
X616774Y568745D01*
X616863Y568730D01*
X616952Y568718D01*
X617041Y568710D01*
X617131Y568706D01*
X617221Y568706D01*
X617311Y568710D01*
X617400Y568718D01*
X617489Y568730D01*
X617578Y568745D01*
X617666Y568764D01*
X617752Y568787D01*
X617838Y568814D01*
X617923Y568844D01*
X618006Y568878D01*
X618088Y568916D01*
X618168Y568957D01*
X618246Y569001D01*
X618322Y569049D01*
X618396Y569100D01*
X618468Y569154D01*
X618537Y569211D01*
X618604Y569271D01*
X618668Y569334D01*
X618730Y569399D01*
X618788Y569467D01*
X618844Y569538D01*
X618896Y569611D01*
X618946Y569686D01*
X618992Y569763D01*
X619034Y569842D01*
X619074Y569923D01*
X619109Y570005D01*
X619141Y570089D01*
X619170Y570174D01*
X619195Y570261D01*
X619216Y570348D01*
X619233Y570436D01*
X619247Y570525D01*
X619256Y570615D01*
X619262Y570704D01*
X619264Y570794D01*
X611035Y568706D02*
X611035Y574971D01*
X608424Y574971D01*
X608347Y574969D01*
X608271Y574963D01*
X608194Y574954D01*
X608118Y574941D01*
X608044Y574924D01*
X607969Y574904D01*
X607896Y574879D01*
X607825Y574852D01*
X607754Y574821D01*
X607686Y574786D01*
X607619Y574748D01*
X607554Y574707D01*
X607491Y574663D01*
X607431Y574616D01*
X607372Y574565D01*
X607317Y574512D01*
X607264Y574457D01*
X607213Y574398D01*
X607166Y574338D01*
X607122Y574275D01*
X607081Y574210D01*
X607043Y574143D01*
X607008Y574075D01*
X606977Y574004D01*
X606950Y573933D01*
X606925Y573860D01*
X606905Y573786D01*
X606888Y573711D01*
X606875Y573635D01*
X606866Y573559D01*
X606860Y573482D01*
X606858Y573405D01*
X606858Y568706D01*
D114*
X167100Y450850D02*
X167138Y453918D01*
X167251Y456983D01*
X167439Y460046D01*
X167702Y463102D01*
X168040Y466151D01*
X168453Y469191D01*
X168940Y472220D01*
X169502Y475236D01*
X170137Y478238D01*
X170846Y481223D01*
X171628Y484189D01*
X172482Y487136D01*
X173409Y490060D01*
X174407Y492961D01*
X175476Y495837D01*
X176615Y498685D01*
X177824Y501505D01*
X179101Y504294D01*
X180447Y507051D01*
X181860Y509775D01*
X183339Y512462D01*
X184884Y515113D01*
X186493Y517725D01*
X188166Y520296D01*
X189902Y522826D01*
X191699Y525312D01*
X193557Y527754D01*
X195474Y530149D01*
X197449Y532497D01*
X199481Y534795D01*
X201569Y537043D01*
X203712Y539238D01*
X205907Y541381D01*
X208155Y543469D01*
X210453Y545501D01*
X212801Y547476D01*
X215196Y549393D01*
X217638Y551251D01*
X220124Y553048D01*
X222654Y554784D01*
X225225Y556457D01*
X227837Y558066D01*
X230488Y559611D01*
X233175Y561090D01*
X235899Y562503D01*
X238656Y563849D01*
X241445Y565126D01*
X244265Y566335D01*
X247113Y567474D01*
X249989Y568543D01*
X252890Y569541D01*
X255814Y570468D01*
X258761Y571322D01*
X261727Y572104D01*
X264712Y572813D01*
X267714Y573448D01*
X270730Y574010D01*
X273759Y574497D01*
X276799Y574910D01*
X279848Y575248D01*
X282904Y575511D01*
X285967Y575699D01*
X289032Y575812D01*
X292100Y575850D01*
X295168Y575812D01*
X298233Y575699D01*
X301296Y575511D01*
X304352Y575248D01*
X307401Y574910D01*
X310441Y574497D01*
X313470Y574010D01*
X316486Y573448D01*
X319488Y572813D01*
X322473Y572104D01*
X325439Y571322D01*
X328386Y570468D01*
X331310Y569541D01*
X334211Y568543D01*
X337087Y567474D01*
X339935Y566335D01*
X342755Y565126D01*
X345544Y563849D01*
X348301Y562503D01*
X351025Y561090D01*
X353712Y559611D01*
X356363Y558066D01*
X358975Y556457D01*
X361546Y554784D01*
X364076Y553048D01*
X366562Y551251D01*
X369004Y549393D01*
X371399Y547476D01*
X373747Y545501D01*
X376045Y543469D01*
X378293Y541381D01*
X380488Y539238D01*
X382631Y537043D01*
X384719Y534795D01*
X386751Y532497D01*
X388726Y530149D01*
X390643Y527754D01*
X392501Y525312D01*
X394298Y522826D01*
X396034Y520296D01*
X397707Y517725D01*
X399316Y515113D01*
X400861Y512462D01*
X402340Y509775D01*
X403753Y507051D01*
X405099Y504294D01*
X406376Y501505D01*
X407585Y498685D01*
X408724Y495837D01*
X409793Y492961D01*
X410791Y490060D01*
X411718Y487136D01*
X412572Y484189D01*
X413354Y481223D01*
X414063Y478238D01*
X414698Y475236D01*
X415260Y472220D01*
X415747Y469191D01*
X416160Y466151D01*
X416498Y463102D01*
X416761Y460046D01*
X416949Y456983D01*
X417062Y453918D01*
X417100Y450850D01*
X417062Y447782D01*
X416949Y444717D01*
X416761Y441654D01*
X416498Y438598D01*
X416160Y435549D01*
X415747Y432509D01*
X415260Y429480D01*
X414698Y426464D01*
X414063Y423462D01*
X413354Y420477D01*
X412572Y417511D01*
X411718Y414564D01*
X410791Y411640D01*
X409793Y408739D01*
X408724Y405863D01*
X407585Y403015D01*
X406376Y400195D01*
X405099Y397406D01*
X403753Y394649D01*
X402340Y391925D01*
X400861Y389238D01*
X399316Y386587D01*
X397707Y383975D01*
X396034Y381404D01*
X394298Y378874D01*
X392501Y376388D01*
X390643Y373946D01*
X388726Y371551D01*
X386751Y369203D01*
X384719Y366905D01*
X382631Y364657D01*
X380488Y362462D01*
X378293Y360319D01*
X376045Y358231D01*
X373747Y356199D01*
X371399Y354224D01*
X369004Y352307D01*
X366562Y350449D01*
X364076Y348652D01*
X361546Y346916D01*
X358975Y345243D01*
X356363Y343634D01*
X353712Y342089D01*
X351025Y340610D01*
X348301Y339197D01*
X345544Y337851D01*
X342755Y336574D01*
X339935Y335365D01*
X337087Y334226D01*
X334211Y333157D01*
X331310Y332159D01*
X328386Y331232D01*
X325439Y330378D01*
X322473Y329596D01*
X319488Y328887D01*
X316486Y328252D01*
X313470Y327690D01*
X310441Y327203D01*
X307401Y326790D01*
X304352Y326452D01*
X301296Y326189D01*
X298233Y326001D01*
X295168Y325888D01*
X292100Y325850D01*
X289032Y325888D01*
X285967Y326001D01*
X282904Y326189D01*
X279848Y326452D01*
X276799Y326790D01*
X273759Y327203D01*
X270730Y327690D01*
X267714Y328252D01*
X264712Y328887D01*
X261727Y329596D01*
X258761Y330378D01*
X255814Y331232D01*
X252890Y332159D01*
X249989Y333157D01*
X247113Y334226D01*
X244265Y335365D01*
X241445Y336574D01*
X238656Y337851D01*
X235899Y339197D01*
X233175Y340610D01*
X230488Y342089D01*
X227837Y343634D01*
X225225Y345243D01*
X222654Y346916D01*
X220124Y348652D01*
X217638Y350449D01*
X215196Y352307D01*
X212801Y354224D01*
X210453Y356199D01*
X208155Y358231D01*
X205907Y360319D01*
X203712Y362462D01*
X201569Y364657D01*
X199481Y366905D01*
X197449Y369203D01*
X195474Y371551D01*
X193557Y373946D01*
X191699Y376388D01*
X189902Y378874D01*
X188166Y381404D01*
X186493Y383975D01*
X184884Y386587D01*
X183339Y389238D01*
X181860Y391925D01*
X180447Y394649D01*
X179101Y397406D01*
X177824Y400195D01*
X176615Y403015D01*
X175476Y405863D01*
X174407Y408739D01*
X173409Y411640D01*
X172482Y414564D01*
X171628Y417511D01*
X170846Y420477D01*
X170137Y423462D01*
X169502Y426464D01*
X168940Y429480D01*
X168453Y432509D01*
X168040Y435549D01*
X167702Y438598D01*
X167439Y441654D01*
X167251Y444717D01*
X167138Y447782D01*
X167100Y450850D01*
M02*
