G04 EAGLE Gerber RS-274X export*
G75*
%MOMM*%
%FSLAX34Y34*%
%LPD*%
%INSoldermask Top*%
%IPPOS*%
%AMOC8*
5,1,8,0,0,1.08239X$1,22.5*%
G01*
%ADD10C,14.703200*%
%ADD11R,0.903200X0.803200*%
%ADD12R,1.103200X0.903200*%
%ADD13R,2.006600X0.558800*%
%ADD14C,1.221200*%
%ADD15R,1.703200X1.503200*%
%ADD16R,2.003200X2.003200*%
%ADD17C,2.003200*%
%ADD18C,8.203200*%
%ADD19C,5.703200*%
%ADD20R,1.727200X1.727200*%
%ADD21C,1.727200*%
%ADD22C,6.553200*%
%ADD23C,0.959600*%

G36*
X588581Y562213D02*
X588581Y562213D01*
X588588Y562218D01*
X588593Y562214D01*
X588746Y562251D01*
X588749Y562256D01*
X588753Y562254D01*
X588898Y562314D01*
X588901Y562319D01*
X588905Y562317D01*
X589039Y562399D01*
X589041Y562405D01*
X589045Y562404D01*
X589164Y562506D01*
X589165Y562511D01*
X589169Y562511D01*
X589271Y562630D01*
X589272Y562636D01*
X589276Y562636D01*
X589358Y562770D01*
X589357Y562776D01*
X589358Y562776D01*
X589362Y562777D01*
X589422Y562922D01*
X589421Y562925D01*
X589423Y562926D01*
X589421Y562928D01*
X589424Y562929D01*
X589461Y563082D01*
X589459Y563088D01*
X589462Y563090D01*
X589474Y563246D01*
X589473Y563249D01*
X589474Y563250D01*
X589474Y572350D01*
X589472Y572352D01*
X589474Y572354D01*
X589462Y572510D01*
X589458Y572514D01*
X589461Y572518D01*
X589424Y572671D01*
X589419Y572674D01*
X589422Y572678D01*
X589362Y572823D01*
X589356Y572826D01*
X589358Y572830D01*
X589276Y572964D01*
X589271Y572966D01*
X589271Y572970D01*
X589169Y573089D01*
X589164Y573090D01*
X589164Y573094D01*
X589045Y573196D01*
X589039Y573197D01*
X589039Y573201D01*
X588905Y573283D01*
X588899Y573282D01*
X588898Y573287D01*
X588753Y573347D01*
X588747Y573345D01*
X588746Y573349D01*
X588593Y573386D01*
X588587Y573384D01*
X588585Y573387D01*
X588429Y573399D01*
X588426Y573397D01*
X588425Y573399D01*
X586469Y573387D01*
X586462Y573382D01*
X586457Y573386D01*
X586304Y573349D01*
X586301Y573344D01*
X586297Y573347D01*
X586152Y573287D01*
X586149Y573281D01*
X586145Y573283D01*
X586011Y573201D01*
X586009Y573196D01*
X586005Y573196D01*
X585886Y573094D01*
X585885Y573089D01*
X585881Y573089D01*
X585779Y572970D01*
X585778Y572964D01*
X585774Y572964D01*
X585692Y572830D01*
X585693Y572824D01*
X585689Y572823D01*
X585629Y572678D01*
X585630Y572672D01*
X585626Y572671D01*
X585589Y572518D01*
X585592Y572512D01*
X585588Y572510D01*
X585576Y572354D01*
X585578Y572351D01*
X585576Y572350D01*
X585576Y563250D01*
X585578Y563248D01*
X585576Y563246D01*
X585588Y563090D01*
X585592Y563086D01*
X585589Y563082D01*
X585626Y562929D01*
X585631Y562926D01*
X585629Y562922D01*
X585689Y562777D01*
X585694Y562774D01*
X585692Y562770D01*
X585774Y562636D01*
X585780Y562634D01*
X585779Y562630D01*
X585881Y562511D01*
X585886Y562510D01*
X585886Y562506D01*
X586005Y562404D01*
X586011Y562403D01*
X586011Y562399D01*
X586145Y562317D01*
X586151Y562318D01*
X586152Y562314D01*
X586297Y562254D01*
X586303Y562255D01*
X586304Y562251D01*
X586457Y562214D01*
X586463Y562217D01*
X586465Y562213D01*
X586621Y562201D01*
X586624Y562203D01*
X586625Y562201D01*
X588581Y562213D01*
G37*
G36*
X575581Y562213D02*
X575581Y562213D01*
X575588Y562218D01*
X575593Y562214D01*
X575746Y562251D01*
X575749Y562256D01*
X575753Y562254D01*
X575898Y562314D01*
X575901Y562319D01*
X575905Y562317D01*
X576039Y562399D01*
X576041Y562405D01*
X576045Y562404D01*
X576164Y562506D01*
X576165Y562511D01*
X576169Y562511D01*
X576271Y562630D01*
X576272Y562636D01*
X576276Y562636D01*
X576358Y562770D01*
X576357Y562776D01*
X576358Y562776D01*
X576362Y562777D01*
X576422Y562922D01*
X576421Y562925D01*
X576423Y562926D01*
X576421Y562928D01*
X576424Y562929D01*
X576461Y563082D01*
X576459Y563088D01*
X576462Y563090D01*
X576474Y563246D01*
X576473Y563249D01*
X576474Y563250D01*
X576474Y572350D01*
X576472Y572352D01*
X576474Y572354D01*
X576462Y572510D01*
X576458Y572514D01*
X576461Y572518D01*
X576424Y572671D01*
X576419Y572674D01*
X576422Y572678D01*
X576362Y572823D01*
X576356Y572826D01*
X576358Y572830D01*
X576276Y572964D01*
X576271Y572966D01*
X576271Y572970D01*
X576169Y573089D01*
X576164Y573090D01*
X576164Y573094D01*
X576045Y573196D01*
X576039Y573197D01*
X576039Y573201D01*
X575905Y573283D01*
X575899Y573282D01*
X575898Y573287D01*
X575753Y573347D01*
X575747Y573345D01*
X575746Y573349D01*
X575593Y573386D01*
X575587Y573384D01*
X575585Y573387D01*
X575429Y573399D01*
X575426Y573397D01*
X575425Y573399D01*
X573469Y573387D01*
X573462Y573382D01*
X573457Y573386D01*
X573304Y573349D01*
X573301Y573344D01*
X573297Y573347D01*
X573152Y573287D01*
X573149Y573281D01*
X573145Y573283D01*
X573011Y573201D01*
X573009Y573196D01*
X573005Y573196D01*
X572886Y573094D01*
X572885Y573089D01*
X572881Y573089D01*
X572779Y572970D01*
X572778Y572964D01*
X572774Y572964D01*
X572692Y572830D01*
X572693Y572824D01*
X572689Y572823D01*
X572629Y572678D01*
X572630Y572672D01*
X572626Y572671D01*
X572589Y572518D01*
X572592Y572512D01*
X572588Y572510D01*
X572576Y572354D01*
X572578Y572351D01*
X572576Y572350D01*
X572576Y563250D01*
X572578Y563248D01*
X572576Y563246D01*
X572588Y563090D01*
X572592Y563086D01*
X572589Y563082D01*
X572626Y562929D01*
X572631Y562926D01*
X572629Y562922D01*
X572689Y562777D01*
X572694Y562774D01*
X572692Y562770D01*
X572774Y562636D01*
X572780Y562634D01*
X572779Y562630D01*
X572881Y562511D01*
X572886Y562510D01*
X572886Y562506D01*
X573005Y562404D01*
X573011Y562403D01*
X573011Y562399D01*
X573145Y562317D01*
X573151Y562318D01*
X573152Y562314D01*
X573297Y562254D01*
X573303Y562255D01*
X573304Y562251D01*
X573457Y562214D01*
X573463Y562217D01*
X573465Y562213D01*
X573621Y562201D01*
X573624Y562203D01*
X573625Y562201D01*
X575581Y562213D01*
G37*
G36*
X582081Y544213D02*
X582081Y544213D01*
X582088Y544218D01*
X582093Y544214D01*
X582246Y544251D01*
X582249Y544256D01*
X582253Y544254D01*
X582398Y544314D01*
X582401Y544319D01*
X582405Y544317D01*
X582539Y544399D01*
X582541Y544405D01*
X582545Y544404D01*
X582664Y544506D01*
X582665Y544511D01*
X582669Y544511D01*
X582771Y544630D01*
X582772Y544636D01*
X582776Y544636D01*
X582858Y544770D01*
X582857Y544776D01*
X582858Y544776D01*
X582862Y544777D01*
X582922Y544922D01*
X582921Y544925D01*
X582923Y544926D01*
X582921Y544928D01*
X582924Y544929D01*
X582961Y545082D01*
X582959Y545088D01*
X582962Y545090D01*
X582974Y545246D01*
X582973Y545249D01*
X582974Y545250D01*
X582974Y554350D01*
X582972Y554352D01*
X582974Y554354D01*
X582962Y554510D01*
X582958Y554514D01*
X582961Y554518D01*
X582924Y554671D01*
X582919Y554674D01*
X582922Y554678D01*
X582862Y554823D01*
X582856Y554826D01*
X582858Y554830D01*
X582776Y554964D01*
X582771Y554966D01*
X582771Y554970D01*
X582669Y555089D01*
X582664Y555090D01*
X582664Y555094D01*
X582545Y555196D01*
X582539Y555197D01*
X582539Y555201D01*
X582405Y555283D01*
X582399Y555282D01*
X582398Y555287D01*
X582253Y555347D01*
X582247Y555345D01*
X582246Y555349D01*
X582093Y555386D01*
X582087Y555384D01*
X582085Y555387D01*
X581929Y555399D01*
X581926Y555397D01*
X581925Y555399D01*
X579969Y555387D01*
X579962Y555382D01*
X579957Y555386D01*
X579804Y555349D01*
X579801Y555344D01*
X579797Y555347D01*
X579652Y555287D01*
X579649Y555281D01*
X579645Y555283D01*
X579511Y555201D01*
X579509Y555196D01*
X579505Y555196D01*
X579386Y555094D01*
X579385Y555089D01*
X579381Y555089D01*
X579279Y554970D01*
X579278Y554964D01*
X579274Y554964D01*
X579192Y554830D01*
X579193Y554824D01*
X579189Y554823D01*
X579129Y554678D01*
X579130Y554672D01*
X579126Y554671D01*
X579089Y554518D01*
X579092Y554512D01*
X579088Y554510D01*
X579076Y554354D01*
X579078Y554351D01*
X579076Y554350D01*
X579076Y545250D01*
X579078Y545248D01*
X579076Y545246D01*
X579088Y545090D01*
X579092Y545086D01*
X579089Y545082D01*
X579126Y544929D01*
X579131Y544926D01*
X579129Y544922D01*
X579189Y544777D01*
X579194Y544774D01*
X579192Y544770D01*
X579274Y544636D01*
X579280Y544634D01*
X579279Y544630D01*
X579381Y544511D01*
X579386Y544510D01*
X579386Y544506D01*
X579505Y544404D01*
X579511Y544403D01*
X579511Y544399D01*
X579645Y544317D01*
X579651Y544318D01*
X579652Y544314D01*
X579797Y544254D01*
X579803Y544255D01*
X579804Y544251D01*
X579957Y544214D01*
X579963Y544217D01*
X579965Y544213D01*
X580121Y544201D01*
X580124Y544203D01*
X580125Y544201D01*
X582081Y544213D01*
G37*
G36*
X588581Y544213D02*
X588581Y544213D01*
X588588Y544218D01*
X588593Y544214D01*
X588746Y544251D01*
X588749Y544256D01*
X588753Y544254D01*
X588898Y544314D01*
X588901Y544319D01*
X588905Y544317D01*
X589039Y544399D01*
X589041Y544405D01*
X589045Y544404D01*
X589164Y544506D01*
X589165Y544511D01*
X589169Y544511D01*
X589271Y544630D01*
X589272Y544636D01*
X589276Y544636D01*
X589358Y544770D01*
X589357Y544776D01*
X589358Y544776D01*
X589362Y544777D01*
X589422Y544922D01*
X589421Y544925D01*
X589423Y544926D01*
X589421Y544928D01*
X589424Y544929D01*
X589461Y545082D01*
X589459Y545088D01*
X589462Y545090D01*
X589474Y545246D01*
X589473Y545249D01*
X589474Y545250D01*
X589474Y554350D01*
X589472Y554352D01*
X589474Y554354D01*
X589462Y554510D01*
X589458Y554514D01*
X589461Y554518D01*
X589424Y554671D01*
X589419Y554674D01*
X589422Y554678D01*
X589362Y554823D01*
X589356Y554826D01*
X589358Y554830D01*
X589276Y554964D01*
X589271Y554966D01*
X589271Y554970D01*
X589169Y555089D01*
X589164Y555090D01*
X589164Y555094D01*
X589045Y555196D01*
X589039Y555197D01*
X589039Y555201D01*
X588905Y555283D01*
X588899Y555282D01*
X588898Y555287D01*
X588753Y555347D01*
X588747Y555345D01*
X588746Y555349D01*
X588593Y555386D01*
X588587Y555384D01*
X588585Y555387D01*
X588429Y555399D01*
X588426Y555397D01*
X588425Y555399D01*
X586469Y555387D01*
X586462Y555382D01*
X586457Y555386D01*
X586304Y555349D01*
X586301Y555344D01*
X586297Y555347D01*
X586152Y555287D01*
X586149Y555281D01*
X586145Y555283D01*
X586011Y555201D01*
X586009Y555196D01*
X586005Y555196D01*
X585886Y555094D01*
X585885Y555089D01*
X585881Y555089D01*
X585779Y554970D01*
X585778Y554964D01*
X585774Y554964D01*
X585692Y554830D01*
X585693Y554824D01*
X585689Y554823D01*
X585629Y554678D01*
X585630Y554672D01*
X585626Y554671D01*
X585589Y554518D01*
X585592Y554512D01*
X585588Y554510D01*
X585576Y554354D01*
X585578Y554351D01*
X585576Y554350D01*
X585576Y545250D01*
X585578Y545248D01*
X585576Y545246D01*
X585588Y545090D01*
X585592Y545086D01*
X585589Y545082D01*
X585626Y544929D01*
X585631Y544926D01*
X585629Y544922D01*
X585689Y544777D01*
X585694Y544774D01*
X585692Y544770D01*
X585774Y544636D01*
X585780Y544634D01*
X585779Y544630D01*
X585881Y544511D01*
X585886Y544510D01*
X585886Y544506D01*
X586005Y544404D01*
X586011Y544403D01*
X586011Y544399D01*
X586145Y544317D01*
X586151Y544318D01*
X586152Y544314D01*
X586297Y544254D01*
X586303Y544255D01*
X586304Y544251D01*
X586457Y544214D01*
X586463Y544217D01*
X586465Y544213D01*
X586621Y544201D01*
X586624Y544203D01*
X586625Y544201D01*
X588581Y544213D01*
G37*
G36*
X575581Y544213D02*
X575581Y544213D01*
X575588Y544218D01*
X575593Y544214D01*
X575746Y544251D01*
X575749Y544256D01*
X575753Y544254D01*
X575898Y544314D01*
X575901Y544319D01*
X575905Y544317D01*
X576039Y544399D01*
X576041Y544405D01*
X576045Y544404D01*
X576164Y544506D01*
X576165Y544511D01*
X576169Y544511D01*
X576271Y544630D01*
X576272Y544636D01*
X576276Y544636D01*
X576358Y544770D01*
X576357Y544776D01*
X576358Y544776D01*
X576362Y544777D01*
X576422Y544922D01*
X576421Y544925D01*
X576423Y544926D01*
X576421Y544928D01*
X576424Y544929D01*
X576461Y545082D01*
X576459Y545088D01*
X576462Y545090D01*
X576474Y545246D01*
X576473Y545249D01*
X576474Y545250D01*
X576474Y554350D01*
X576472Y554352D01*
X576474Y554354D01*
X576462Y554510D01*
X576458Y554514D01*
X576461Y554518D01*
X576424Y554671D01*
X576419Y554674D01*
X576422Y554678D01*
X576362Y554823D01*
X576356Y554826D01*
X576358Y554830D01*
X576276Y554964D01*
X576271Y554966D01*
X576271Y554970D01*
X576169Y555089D01*
X576164Y555090D01*
X576164Y555094D01*
X576045Y555196D01*
X576039Y555197D01*
X576039Y555201D01*
X575905Y555283D01*
X575899Y555282D01*
X575898Y555287D01*
X575753Y555347D01*
X575747Y555345D01*
X575746Y555349D01*
X575593Y555386D01*
X575587Y555384D01*
X575585Y555387D01*
X575429Y555399D01*
X575426Y555397D01*
X575425Y555399D01*
X573469Y555387D01*
X573462Y555382D01*
X573457Y555386D01*
X573304Y555349D01*
X573301Y555344D01*
X573297Y555347D01*
X573152Y555287D01*
X573149Y555281D01*
X573145Y555283D01*
X573011Y555201D01*
X573009Y555196D01*
X573005Y555196D01*
X572886Y555094D01*
X572885Y555089D01*
X572881Y555089D01*
X572779Y554970D01*
X572778Y554964D01*
X572774Y554964D01*
X572692Y554830D01*
X572693Y554824D01*
X572689Y554823D01*
X572629Y554678D01*
X572630Y554672D01*
X572626Y554671D01*
X572589Y554518D01*
X572592Y554512D01*
X572588Y554510D01*
X572576Y554354D01*
X572578Y554351D01*
X572576Y554350D01*
X572576Y545250D01*
X572578Y545248D01*
X572576Y545246D01*
X572588Y545090D01*
X572592Y545086D01*
X572589Y545082D01*
X572626Y544929D01*
X572631Y544926D01*
X572629Y544922D01*
X572689Y544777D01*
X572694Y544774D01*
X572692Y544770D01*
X572774Y544636D01*
X572780Y544634D01*
X572779Y544630D01*
X572881Y544511D01*
X572886Y544510D01*
X572886Y544506D01*
X573005Y544404D01*
X573011Y544403D01*
X573011Y544399D01*
X573145Y544317D01*
X573151Y544318D01*
X573152Y544314D01*
X573297Y544254D01*
X573303Y544255D01*
X573304Y544251D01*
X573457Y544214D01*
X573463Y544217D01*
X573465Y544213D01*
X573621Y544201D01*
X573624Y544203D01*
X573625Y544201D01*
X575581Y544213D01*
G37*
G36*
X588581Y511613D02*
X588581Y511613D01*
X588588Y511618D01*
X588593Y511614D01*
X588746Y511651D01*
X588749Y511656D01*
X588753Y511654D01*
X588898Y511714D01*
X588901Y511719D01*
X588905Y511717D01*
X589039Y511799D01*
X589041Y511805D01*
X589045Y511804D01*
X589164Y511906D01*
X589165Y511911D01*
X589169Y511911D01*
X589271Y512030D01*
X589272Y512036D01*
X589276Y512036D01*
X589358Y512170D01*
X589357Y512176D01*
X589358Y512176D01*
X589362Y512177D01*
X589422Y512322D01*
X589421Y512325D01*
X589423Y512326D01*
X589421Y512328D01*
X589424Y512329D01*
X589461Y512482D01*
X589459Y512488D01*
X589462Y512490D01*
X589474Y512646D01*
X589473Y512649D01*
X589474Y512650D01*
X589474Y521550D01*
X589472Y521552D01*
X589474Y521554D01*
X589462Y521710D01*
X589458Y521714D01*
X589461Y521718D01*
X589424Y521871D01*
X589419Y521874D01*
X589422Y521878D01*
X589362Y522023D01*
X589356Y522026D01*
X589358Y522030D01*
X589276Y522164D01*
X589271Y522166D01*
X589271Y522170D01*
X589169Y522289D01*
X589164Y522290D01*
X589164Y522294D01*
X589045Y522396D01*
X589039Y522397D01*
X589039Y522401D01*
X588905Y522483D01*
X588899Y522482D01*
X588898Y522487D01*
X588753Y522547D01*
X588747Y522545D01*
X588746Y522549D01*
X588593Y522586D01*
X588587Y522584D01*
X588585Y522587D01*
X588429Y522599D01*
X588426Y522597D01*
X588425Y522599D01*
X586469Y522587D01*
X586464Y522584D01*
X586460Y522584D01*
X586457Y522586D01*
X586304Y522549D01*
X586301Y522544D01*
X586297Y522547D01*
X586152Y522487D01*
X586149Y522481D01*
X586145Y522483D01*
X586011Y522401D01*
X586009Y522396D01*
X586005Y522396D01*
X585886Y522294D01*
X585885Y522289D01*
X585881Y522289D01*
X585779Y522170D01*
X585778Y522164D01*
X585774Y522164D01*
X585692Y522030D01*
X585693Y522024D01*
X585689Y522023D01*
X585629Y521878D01*
X585630Y521872D01*
X585626Y521871D01*
X585589Y521718D01*
X585591Y521712D01*
X585590Y521711D01*
X585588Y521710D01*
X585576Y521554D01*
X585578Y521551D01*
X585576Y521550D01*
X585576Y512650D01*
X585578Y512648D01*
X585576Y512646D01*
X585588Y512490D01*
X585592Y512486D01*
X585589Y512482D01*
X585626Y512329D01*
X585631Y512326D01*
X585629Y512322D01*
X585689Y512177D01*
X585694Y512174D01*
X585692Y512170D01*
X585774Y512036D01*
X585780Y512034D01*
X585779Y512030D01*
X585881Y511911D01*
X585886Y511910D01*
X585886Y511906D01*
X586005Y511804D01*
X586011Y511803D01*
X586011Y511799D01*
X586145Y511717D01*
X586151Y511718D01*
X586152Y511714D01*
X586297Y511654D01*
X586303Y511655D01*
X586304Y511651D01*
X586457Y511614D01*
X586463Y511617D01*
X586465Y511613D01*
X586621Y511601D01*
X586624Y511603D01*
X586625Y511601D01*
X588581Y511613D01*
G37*
G36*
X575581Y511613D02*
X575581Y511613D01*
X575588Y511618D01*
X575593Y511614D01*
X575746Y511651D01*
X575749Y511656D01*
X575753Y511654D01*
X575898Y511714D01*
X575901Y511719D01*
X575905Y511717D01*
X576039Y511799D01*
X576041Y511805D01*
X576045Y511804D01*
X576164Y511906D01*
X576165Y511911D01*
X576169Y511911D01*
X576271Y512030D01*
X576272Y512036D01*
X576276Y512036D01*
X576358Y512170D01*
X576357Y512176D01*
X576358Y512176D01*
X576362Y512177D01*
X576422Y512322D01*
X576421Y512325D01*
X576423Y512326D01*
X576421Y512328D01*
X576424Y512329D01*
X576461Y512482D01*
X576459Y512488D01*
X576462Y512490D01*
X576474Y512646D01*
X576473Y512649D01*
X576474Y512650D01*
X576474Y521550D01*
X576472Y521552D01*
X576474Y521554D01*
X576462Y521710D01*
X576458Y521714D01*
X576461Y521718D01*
X576424Y521871D01*
X576419Y521874D01*
X576422Y521878D01*
X576362Y522023D01*
X576356Y522026D01*
X576358Y522030D01*
X576276Y522164D01*
X576271Y522166D01*
X576271Y522170D01*
X576169Y522289D01*
X576164Y522290D01*
X576164Y522294D01*
X576045Y522396D01*
X576039Y522397D01*
X576039Y522401D01*
X575905Y522483D01*
X575899Y522482D01*
X575898Y522487D01*
X575753Y522547D01*
X575747Y522545D01*
X575746Y522549D01*
X575593Y522586D01*
X575587Y522584D01*
X575585Y522587D01*
X575429Y522599D01*
X575426Y522597D01*
X575425Y522599D01*
X573469Y522587D01*
X573464Y522584D01*
X573460Y522584D01*
X573457Y522586D01*
X573304Y522549D01*
X573301Y522544D01*
X573297Y522547D01*
X573152Y522487D01*
X573149Y522481D01*
X573145Y522483D01*
X573011Y522401D01*
X573009Y522396D01*
X573005Y522396D01*
X572886Y522294D01*
X572885Y522289D01*
X572881Y522289D01*
X572779Y522170D01*
X572778Y522164D01*
X572774Y522164D01*
X572692Y522030D01*
X572693Y522024D01*
X572689Y522023D01*
X572629Y521878D01*
X572630Y521872D01*
X572626Y521871D01*
X572589Y521718D01*
X572591Y521712D01*
X572590Y521711D01*
X572588Y521710D01*
X572576Y521554D01*
X572578Y521551D01*
X572576Y521550D01*
X572576Y512650D01*
X572578Y512648D01*
X572576Y512646D01*
X572588Y512490D01*
X572592Y512486D01*
X572589Y512482D01*
X572626Y512329D01*
X572631Y512326D01*
X572629Y512322D01*
X572689Y512177D01*
X572694Y512174D01*
X572692Y512170D01*
X572774Y512036D01*
X572780Y512034D01*
X572779Y512030D01*
X572881Y511911D01*
X572886Y511910D01*
X572886Y511906D01*
X573005Y511804D01*
X573011Y511803D01*
X573011Y511799D01*
X573145Y511717D01*
X573151Y511718D01*
X573152Y511714D01*
X573297Y511654D01*
X573303Y511655D01*
X573304Y511651D01*
X573457Y511614D01*
X573463Y511617D01*
X573465Y511613D01*
X573621Y511601D01*
X573624Y511603D01*
X573625Y511601D01*
X575581Y511613D01*
G37*
G36*
X588581Y493413D02*
X588581Y493413D01*
X588588Y493418D01*
X588593Y493414D01*
X588746Y493451D01*
X588749Y493456D01*
X588753Y493454D01*
X588898Y493514D01*
X588901Y493519D01*
X588905Y493517D01*
X589039Y493599D01*
X589041Y493605D01*
X589045Y493604D01*
X589164Y493706D01*
X589165Y493711D01*
X589169Y493711D01*
X589271Y493830D01*
X589272Y493836D01*
X589276Y493836D01*
X589358Y493970D01*
X589357Y493976D01*
X589358Y493976D01*
X589362Y493977D01*
X589422Y494122D01*
X589421Y494125D01*
X589423Y494126D01*
X589421Y494128D01*
X589424Y494129D01*
X589461Y494282D01*
X589459Y494288D01*
X589462Y494290D01*
X589474Y494446D01*
X589473Y494449D01*
X589474Y494450D01*
X589474Y503350D01*
X589472Y503352D01*
X589474Y503354D01*
X589462Y503510D01*
X589458Y503514D01*
X589461Y503518D01*
X589424Y503671D01*
X589419Y503674D01*
X589422Y503678D01*
X589362Y503823D01*
X589356Y503826D01*
X589358Y503830D01*
X589276Y503964D01*
X589271Y503966D01*
X589271Y503970D01*
X589169Y504089D01*
X589164Y504090D01*
X589164Y504094D01*
X589045Y504196D01*
X589039Y504197D01*
X589039Y504201D01*
X588905Y504283D01*
X588899Y504282D01*
X588898Y504287D01*
X588753Y504347D01*
X588747Y504345D01*
X588746Y504349D01*
X588593Y504386D01*
X588587Y504384D01*
X588585Y504387D01*
X588429Y504399D01*
X588426Y504397D01*
X588425Y504399D01*
X586469Y504387D01*
X586464Y504384D01*
X586460Y504384D01*
X586457Y504386D01*
X586304Y504349D01*
X586301Y504344D01*
X586297Y504347D01*
X586152Y504287D01*
X586149Y504281D01*
X586145Y504283D01*
X586011Y504201D01*
X586009Y504196D01*
X586005Y504196D01*
X585886Y504094D01*
X585885Y504089D01*
X585881Y504089D01*
X585779Y503970D01*
X585778Y503964D01*
X585774Y503964D01*
X585692Y503830D01*
X585693Y503824D01*
X585689Y503823D01*
X585629Y503678D01*
X585630Y503672D01*
X585626Y503671D01*
X585589Y503518D01*
X585591Y503512D01*
X585590Y503511D01*
X585588Y503510D01*
X585576Y503354D01*
X585578Y503351D01*
X585576Y503350D01*
X585576Y494450D01*
X585578Y494448D01*
X585576Y494446D01*
X585588Y494290D01*
X585592Y494286D01*
X585589Y494282D01*
X585626Y494129D01*
X585631Y494126D01*
X585629Y494122D01*
X585689Y493977D01*
X585694Y493974D01*
X585692Y493970D01*
X585774Y493836D01*
X585780Y493834D01*
X585779Y493830D01*
X585881Y493711D01*
X585886Y493710D01*
X585886Y493706D01*
X586005Y493604D01*
X586011Y493603D01*
X586011Y493599D01*
X586145Y493517D01*
X586151Y493518D01*
X586152Y493514D01*
X586297Y493454D01*
X586303Y493455D01*
X586304Y493451D01*
X586457Y493414D01*
X586463Y493417D01*
X586465Y493413D01*
X586621Y493401D01*
X586624Y493403D01*
X586625Y493401D01*
X588581Y493413D01*
G37*
G36*
X575581Y493413D02*
X575581Y493413D01*
X575588Y493418D01*
X575593Y493414D01*
X575746Y493451D01*
X575749Y493456D01*
X575753Y493454D01*
X575898Y493514D01*
X575901Y493519D01*
X575905Y493517D01*
X576039Y493599D01*
X576041Y493605D01*
X576045Y493604D01*
X576164Y493706D01*
X576165Y493711D01*
X576169Y493711D01*
X576271Y493830D01*
X576272Y493836D01*
X576276Y493836D01*
X576358Y493970D01*
X576357Y493976D01*
X576358Y493976D01*
X576362Y493977D01*
X576422Y494122D01*
X576421Y494125D01*
X576423Y494126D01*
X576421Y494128D01*
X576424Y494129D01*
X576461Y494282D01*
X576459Y494288D01*
X576462Y494290D01*
X576474Y494446D01*
X576473Y494449D01*
X576474Y494450D01*
X576474Y503350D01*
X576472Y503352D01*
X576474Y503354D01*
X576462Y503510D01*
X576458Y503514D01*
X576461Y503518D01*
X576424Y503671D01*
X576419Y503674D01*
X576422Y503678D01*
X576362Y503823D01*
X576356Y503826D01*
X576358Y503830D01*
X576276Y503964D01*
X576271Y503966D01*
X576271Y503970D01*
X576169Y504089D01*
X576164Y504090D01*
X576164Y504094D01*
X576045Y504196D01*
X576039Y504197D01*
X576039Y504201D01*
X575905Y504283D01*
X575899Y504282D01*
X575898Y504287D01*
X575753Y504347D01*
X575747Y504345D01*
X575746Y504349D01*
X575593Y504386D01*
X575587Y504384D01*
X575585Y504387D01*
X575429Y504399D01*
X575426Y504397D01*
X575425Y504399D01*
X573469Y504387D01*
X573464Y504384D01*
X573460Y504384D01*
X573457Y504386D01*
X573304Y504349D01*
X573301Y504344D01*
X573297Y504347D01*
X573152Y504287D01*
X573149Y504281D01*
X573145Y504283D01*
X573011Y504201D01*
X573009Y504196D01*
X573005Y504196D01*
X572886Y504094D01*
X572885Y504089D01*
X572881Y504089D01*
X572779Y503970D01*
X572778Y503964D01*
X572774Y503964D01*
X572692Y503830D01*
X572693Y503824D01*
X572689Y503823D01*
X572629Y503678D01*
X572630Y503672D01*
X572626Y503671D01*
X572589Y503518D01*
X572591Y503512D01*
X572590Y503511D01*
X572588Y503510D01*
X572576Y503354D01*
X572578Y503351D01*
X572576Y503350D01*
X572576Y494450D01*
X572578Y494448D01*
X572576Y494446D01*
X572588Y494290D01*
X572592Y494286D01*
X572589Y494282D01*
X572626Y494129D01*
X572631Y494126D01*
X572629Y494122D01*
X572689Y493977D01*
X572694Y493974D01*
X572692Y493970D01*
X572774Y493836D01*
X572780Y493834D01*
X572779Y493830D01*
X572881Y493711D01*
X572886Y493710D01*
X572886Y493706D01*
X573005Y493604D01*
X573011Y493603D01*
X573011Y493599D01*
X573145Y493517D01*
X573151Y493518D01*
X573152Y493514D01*
X573297Y493454D01*
X573303Y493455D01*
X573304Y493451D01*
X573457Y493414D01*
X573463Y493417D01*
X573465Y493413D01*
X573621Y493401D01*
X573624Y493403D01*
X573625Y493401D01*
X575581Y493413D01*
G37*
G36*
X582081Y493413D02*
X582081Y493413D01*
X582088Y493418D01*
X582093Y493414D01*
X582246Y493451D01*
X582249Y493456D01*
X582253Y493454D01*
X582398Y493514D01*
X582401Y493519D01*
X582405Y493517D01*
X582539Y493599D01*
X582541Y493605D01*
X582545Y493604D01*
X582664Y493706D01*
X582665Y493711D01*
X582669Y493711D01*
X582771Y493830D01*
X582772Y493836D01*
X582776Y493836D01*
X582858Y493970D01*
X582857Y493976D01*
X582858Y493976D01*
X582862Y493977D01*
X582922Y494122D01*
X582921Y494125D01*
X582923Y494126D01*
X582921Y494128D01*
X582924Y494129D01*
X582961Y494282D01*
X582959Y494288D01*
X582962Y494290D01*
X582974Y494446D01*
X582973Y494449D01*
X582974Y494450D01*
X582974Y503350D01*
X582972Y503352D01*
X582974Y503354D01*
X582962Y503510D01*
X582958Y503514D01*
X582961Y503518D01*
X582924Y503671D01*
X582919Y503674D01*
X582922Y503678D01*
X582862Y503823D01*
X582856Y503826D01*
X582858Y503830D01*
X582776Y503964D01*
X582771Y503966D01*
X582771Y503970D01*
X582669Y504089D01*
X582664Y504090D01*
X582664Y504094D01*
X582545Y504196D01*
X582539Y504197D01*
X582539Y504201D01*
X582405Y504283D01*
X582399Y504282D01*
X582398Y504287D01*
X582253Y504347D01*
X582247Y504345D01*
X582246Y504349D01*
X582093Y504386D01*
X582087Y504384D01*
X582085Y504387D01*
X581929Y504399D01*
X581926Y504397D01*
X581925Y504399D01*
X579969Y504387D01*
X579964Y504384D01*
X579960Y504384D01*
X579957Y504386D01*
X579804Y504349D01*
X579801Y504344D01*
X579797Y504347D01*
X579652Y504287D01*
X579649Y504281D01*
X579645Y504283D01*
X579511Y504201D01*
X579509Y504196D01*
X579505Y504196D01*
X579386Y504094D01*
X579385Y504089D01*
X579381Y504089D01*
X579279Y503970D01*
X579278Y503964D01*
X579274Y503964D01*
X579192Y503830D01*
X579193Y503824D01*
X579189Y503823D01*
X579129Y503678D01*
X579130Y503672D01*
X579126Y503671D01*
X579089Y503518D01*
X579091Y503512D01*
X579090Y503511D01*
X579088Y503510D01*
X579076Y503354D01*
X579078Y503351D01*
X579076Y503350D01*
X579076Y494450D01*
X579078Y494448D01*
X579076Y494446D01*
X579088Y494290D01*
X579092Y494286D01*
X579089Y494282D01*
X579126Y494129D01*
X579131Y494126D01*
X579129Y494122D01*
X579189Y493977D01*
X579194Y493974D01*
X579192Y493970D01*
X579274Y493836D01*
X579280Y493834D01*
X579279Y493830D01*
X579381Y493711D01*
X579386Y493710D01*
X579386Y493706D01*
X579505Y493604D01*
X579511Y493603D01*
X579511Y493599D01*
X579645Y493517D01*
X579651Y493518D01*
X579652Y493514D01*
X579797Y493454D01*
X579803Y493455D01*
X579804Y493451D01*
X579957Y493414D01*
X579963Y493417D01*
X579965Y493413D01*
X580121Y493401D01*
X580124Y493403D01*
X580125Y493401D01*
X582081Y493413D01*
G37*
G36*
X588581Y454463D02*
X588581Y454463D01*
X588588Y454468D01*
X588593Y454464D01*
X588746Y454501D01*
X588749Y454506D01*
X588753Y454504D01*
X588898Y454564D01*
X588901Y454569D01*
X588905Y454567D01*
X589039Y454649D01*
X589041Y454655D01*
X589045Y454654D01*
X589164Y454756D01*
X589165Y454761D01*
X589169Y454761D01*
X589271Y454880D01*
X589272Y454886D01*
X589276Y454886D01*
X589358Y455020D01*
X589357Y455026D01*
X589358Y455026D01*
X589362Y455027D01*
X589422Y455172D01*
X589421Y455175D01*
X589423Y455176D01*
X589421Y455178D01*
X589424Y455179D01*
X589461Y455332D01*
X589459Y455338D01*
X589462Y455340D01*
X589474Y455496D01*
X589473Y455499D01*
X589474Y455500D01*
X589474Y464400D01*
X589472Y464402D01*
X589474Y464404D01*
X589462Y464560D01*
X589458Y464564D01*
X589461Y464568D01*
X589424Y464721D01*
X589419Y464724D01*
X589422Y464728D01*
X589362Y464873D01*
X589356Y464876D01*
X589358Y464880D01*
X589276Y465014D01*
X589271Y465016D01*
X589271Y465020D01*
X589169Y465139D01*
X589164Y465140D01*
X589164Y465144D01*
X589045Y465246D01*
X589039Y465247D01*
X589039Y465251D01*
X588905Y465333D01*
X588899Y465332D01*
X588898Y465337D01*
X588753Y465397D01*
X588747Y465395D01*
X588746Y465399D01*
X588593Y465436D01*
X588587Y465434D01*
X588585Y465437D01*
X588429Y465449D01*
X588426Y465447D01*
X588425Y465449D01*
X586469Y465437D01*
X586464Y465434D01*
X586460Y465434D01*
X586457Y465436D01*
X586304Y465399D01*
X586301Y465394D01*
X586297Y465397D01*
X586152Y465337D01*
X586149Y465331D01*
X586145Y465333D01*
X586011Y465251D01*
X586009Y465246D01*
X586005Y465246D01*
X585886Y465144D01*
X585885Y465139D01*
X585881Y465139D01*
X585779Y465020D01*
X585778Y465014D01*
X585774Y465014D01*
X585692Y464880D01*
X585693Y464874D01*
X585689Y464873D01*
X585629Y464728D01*
X585630Y464722D01*
X585626Y464721D01*
X585589Y464568D01*
X585591Y464562D01*
X585590Y464561D01*
X585588Y464560D01*
X585576Y464404D01*
X585578Y464401D01*
X585576Y464400D01*
X585576Y455500D01*
X585578Y455498D01*
X585576Y455496D01*
X585588Y455340D01*
X585592Y455336D01*
X585589Y455332D01*
X585626Y455179D01*
X585631Y455176D01*
X585629Y455172D01*
X585689Y455027D01*
X585694Y455024D01*
X585692Y455020D01*
X585774Y454886D01*
X585780Y454884D01*
X585779Y454880D01*
X585881Y454761D01*
X585886Y454760D01*
X585886Y454756D01*
X586005Y454654D01*
X586011Y454653D01*
X586011Y454649D01*
X586145Y454567D01*
X586151Y454568D01*
X586152Y454564D01*
X586297Y454504D01*
X586303Y454505D01*
X586304Y454501D01*
X586457Y454464D01*
X586463Y454467D01*
X586465Y454463D01*
X586621Y454451D01*
X586624Y454453D01*
X586625Y454451D01*
X588581Y454463D01*
G37*
G36*
X575581Y454463D02*
X575581Y454463D01*
X575588Y454468D01*
X575593Y454464D01*
X575746Y454501D01*
X575749Y454506D01*
X575753Y454504D01*
X575898Y454564D01*
X575901Y454569D01*
X575905Y454567D01*
X576039Y454649D01*
X576041Y454655D01*
X576045Y454654D01*
X576164Y454756D01*
X576165Y454761D01*
X576169Y454761D01*
X576271Y454880D01*
X576272Y454886D01*
X576276Y454886D01*
X576358Y455020D01*
X576357Y455026D01*
X576358Y455026D01*
X576362Y455027D01*
X576422Y455172D01*
X576421Y455175D01*
X576423Y455176D01*
X576421Y455178D01*
X576424Y455179D01*
X576461Y455332D01*
X576459Y455338D01*
X576462Y455340D01*
X576474Y455496D01*
X576473Y455499D01*
X576474Y455500D01*
X576474Y464400D01*
X576472Y464402D01*
X576474Y464404D01*
X576462Y464560D01*
X576458Y464564D01*
X576461Y464568D01*
X576424Y464721D01*
X576419Y464724D01*
X576422Y464728D01*
X576362Y464873D01*
X576356Y464876D01*
X576358Y464880D01*
X576276Y465014D01*
X576271Y465016D01*
X576271Y465020D01*
X576169Y465139D01*
X576164Y465140D01*
X576164Y465144D01*
X576045Y465246D01*
X576039Y465247D01*
X576039Y465251D01*
X575905Y465333D01*
X575899Y465332D01*
X575898Y465337D01*
X575753Y465397D01*
X575747Y465395D01*
X575746Y465399D01*
X575593Y465436D01*
X575587Y465434D01*
X575585Y465437D01*
X575429Y465449D01*
X575426Y465447D01*
X575425Y465449D01*
X573469Y465437D01*
X573464Y465434D01*
X573460Y465434D01*
X573457Y465436D01*
X573304Y465399D01*
X573301Y465394D01*
X573297Y465397D01*
X573152Y465337D01*
X573149Y465331D01*
X573145Y465333D01*
X573011Y465251D01*
X573009Y465246D01*
X573005Y465246D01*
X572886Y465144D01*
X572885Y465139D01*
X572881Y465139D01*
X572779Y465020D01*
X572778Y465014D01*
X572774Y465014D01*
X572692Y464880D01*
X572693Y464874D01*
X572689Y464873D01*
X572629Y464728D01*
X572630Y464722D01*
X572626Y464721D01*
X572589Y464568D01*
X572591Y464562D01*
X572590Y464561D01*
X572588Y464560D01*
X572576Y464404D01*
X572578Y464401D01*
X572576Y464400D01*
X572576Y455500D01*
X572578Y455498D01*
X572576Y455496D01*
X572588Y455340D01*
X572592Y455336D01*
X572589Y455332D01*
X572626Y455179D01*
X572631Y455176D01*
X572629Y455172D01*
X572689Y455027D01*
X572694Y455024D01*
X572692Y455020D01*
X572774Y454886D01*
X572780Y454884D01*
X572779Y454880D01*
X572881Y454761D01*
X572886Y454760D01*
X572886Y454756D01*
X573005Y454654D01*
X573011Y454653D01*
X573011Y454649D01*
X573145Y454567D01*
X573151Y454568D01*
X573152Y454564D01*
X573297Y454504D01*
X573303Y454505D01*
X573304Y454501D01*
X573457Y454464D01*
X573463Y454467D01*
X573465Y454463D01*
X573621Y454451D01*
X573624Y454453D01*
X573625Y454451D01*
X575581Y454463D01*
G37*
G36*
X575581Y436263D02*
X575581Y436263D01*
X575588Y436268D01*
X575593Y436264D01*
X575746Y436301D01*
X575749Y436306D01*
X575753Y436304D01*
X575898Y436364D01*
X575901Y436369D01*
X575905Y436367D01*
X576039Y436449D01*
X576041Y436455D01*
X576045Y436454D01*
X576164Y436556D01*
X576165Y436561D01*
X576169Y436561D01*
X576271Y436680D01*
X576272Y436686D01*
X576276Y436686D01*
X576358Y436820D01*
X576357Y436826D01*
X576358Y436826D01*
X576362Y436827D01*
X576422Y436972D01*
X576421Y436975D01*
X576423Y436976D01*
X576421Y436978D01*
X576424Y436979D01*
X576461Y437132D01*
X576459Y437138D01*
X576462Y437140D01*
X576474Y437296D01*
X576473Y437299D01*
X576474Y437300D01*
X576474Y446200D01*
X576472Y446202D01*
X576474Y446204D01*
X576462Y446360D01*
X576458Y446364D01*
X576461Y446368D01*
X576424Y446521D01*
X576419Y446524D01*
X576422Y446528D01*
X576362Y446673D01*
X576356Y446676D01*
X576358Y446680D01*
X576276Y446814D01*
X576271Y446816D01*
X576271Y446820D01*
X576169Y446939D01*
X576164Y446940D01*
X576164Y446944D01*
X576045Y447046D01*
X576039Y447047D01*
X576039Y447051D01*
X575905Y447133D01*
X575899Y447132D01*
X575898Y447137D01*
X575753Y447197D01*
X575747Y447195D01*
X575746Y447199D01*
X575593Y447236D01*
X575587Y447234D01*
X575585Y447237D01*
X575429Y447249D01*
X575426Y447247D01*
X575425Y447249D01*
X573469Y447237D01*
X573464Y447234D01*
X573460Y447234D01*
X573457Y447236D01*
X573304Y447199D01*
X573301Y447194D01*
X573297Y447197D01*
X573152Y447137D01*
X573149Y447131D01*
X573145Y447133D01*
X573011Y447051D01*
X573009Y447046D01*
X573005Y447046D01*
X572886Y446944D01*
X572885Y446939D01*
X572881Y446939D01*
X572779Y446820D01*
X572778Y446814D01*
X572774Y446814D01*
X572692Y446680D01*
X572693Y446674D01*
X572689Y446673D01*
X572629Y446528D01*
X572630Y446522D01*
X572626Y446521D01*
X572589Y446368D01*
X572591Y446362D01*
X572590Y446361D01*
X572588Y446360D01*
X572576Y446204D01*
X572578Y446201D01*
X572576Y446200D01*
X572576Y437300D01*
X572578Y437298D01*
X572576Y437296D01*
X572588Y437140D01*
X572592Y437136D01*
X572589Y437132D01*
X572626Y436979D01*
X572631Y436976D01*
X572629Y436972D01*
X572689Y436827D01*
X572694Y436824D01*
X572692Y436820D01*
X572774Y436686D01*
X572780Y436684D01*
X572779Y436680D01*
X572881Y436561D01*
X572886Y436560D01*
X572886Y436556D01*
X573005Y436454D01*
X573011Y436453D01*
X573011Y436449D01*
X573145Y436367D01*
X573151Y436368D01*
X573152Y436364D01*
X573297Y436304D01*
X573303Y436305D01*
X573304Y436301D01*
X573457Y436264D01*
X573463Y436267D01*
X573465Y436263D01*
X573621Y436251D01*
X573624Y436253D01*
X573625Y436251D01*
X575581Y436263D01*
G37*
G36*
X588581Y436263D02*
X588581Y436263D01*
X588588Y436268D01*
X588593Y436264D01*
X588746Y436301D01*
X588749Y436306D01*
X588753Y436304D01*
X588898Y436364D01*
X588901Y436369D01*
X588905Y436367D01*
X589039Y436449D01*
X589041Y436455D01*
X589045Y436454D01*
X589164Y436556D01*
X589165Y436561D01*
X589169Y436561D01*
X589271Y436680D01*
X589272Y436686D01*
X589276Y436686D01*
X589358Y436820D01*
X589357Y436826D01*
X589358Y436826D01*
X589362Y436827D01*
X589422Y436972D01*
X589421Y436975D01*
X589423Y436976D01*
X589421Y436978D01*
X589424Y436979D01*
X589461Y437132D01*
X589459Y437138D01*
X589462Y437140D01*
X589474Y437296D01*
X589473Y437299D01*
X589474Y437300D01*
X589474Y446200D01*
X589472Y446202D01*
X589474Y446204D01*
X589462Y446360D01*
X589458Y446364D01*
X589461Y446368D01*
X589424Y446521D01*
X589419Y446524D01*
X589422Y446528D01*
X589362Y446673D01*
X589356Y446676D01*
X589358Y446680D01*
X589276Y446814D01*
X589271Y446816D01*
X589271Y446820D01*
X589169Y446939D01*
X589164Y446940D01*
X589164Y446944D01*
X589045Y447046D01*
X589039Y447047D01*
X589039Y447051D01*
X588905Y447133D01*
X588899Y447132D01*
X588898Y447137D01*
X588753Y447197D01*
X588747Y447195D01*
X588746Y447199D01*
X588593Y447236D01*
X588587Y447234D01*
X588585Y447237D01*
X588429Y447249D01*
X588426Y447247D01*
X588425Y447249D01*
X586469Y447237D01*
X586464Y447234D01*
X586460Y447234D01*
X586457Y447236D01*
X586304Y447199D01*
X586301Y447194D01*
X586297Y447197D01*
X586152Y447137D01*
X586149Y447131D01*
X586145Y447133D01*
X586011Y447051D01*
X586009Y447046D01*
X586005Y447046D01*
X585886Y446944D01*
X585885Y446939D01*
X585881Y446939D01*
X585779Y446820D01*
X585778Y446814D01*
X585774Y446814D01*
X585692Y446680D01*
X585693Y446674D01*
X585689Y446673D01*
X585629Y446528D01*
X585630Y446522D01*
X585626Y446521D01*
X585589Y446368D01*
X585591Y446362D01*
X585590Y446361D01*
X585588Y446360D01*
X585576Y446204D01*
X585578Y446201D01*
X585576Y446200D01*
X585576Y437300D01*
X585578Y437298D01*
X585576Y437296D01*
X585588Y437140D01*
X585592Y437136D01*
X585589Y437132D01*
X585626Y436979D01*
X585631Y436976D01*
X585629Y436972D01*
X585689Y436827D01*
X585694Y436824D01*
X585692Y436820D01*
X585774Y436686D01*
X585780Y436684D01*
X585779Y436680D01*
X585881Y436561D01*
X585886Y436560D01*
X585886Y436556D01*
X586005Y436454D01*
X586011Y436453D01*
X586011Y436449D01*
X586145Y436367D01*
X586151Y436368D01*
X586152Y436364D01*
X586297Y436304D01*
X586303Y436305D01*
X586304Y436301D01*
X586457Y436264D01*
X586463Y436267D01*
X586465Y436263D01*
X586621Y436251D01*
X586624Y436253D01*
X586625Y436251D01*
X588581Y436263D01*
G37*
G36*
X582081Y436263D02*
X582081Y436263D01*
X582088Y436268D01*
X582093Y436264D01*
X582246Y436301D01*
X582249Y436306D01*
X582253Y436304D01*
X582398Y436364D01*
X582401Y436369D01*
X582405Y436367D01*
X582539Y436449D01*
X582541Y436455D01*
X582545Y436454D01*
X582664Y436556D01*
X582665Y436561D01*
X582669Y436561D01*
X582771Y436680D01*
X582772Y436686D01*
X582776Y436686D01*
X582858Y436820D01*
X582857Y436826D01*
X582858Y436826D01*
X582862Y436827D01*
X582922Y436972D01*
X582921Y436975D01*
X582923Y436976D01*
X582921Y436978D01*
X582924Y436979D01*
X582961Y437132D01*
X582959Y437138D01*
X582962Y437140D01*
X582974Y437296D01*
X582973Y437299D01*
X582974Y437300D01*
X582974Y446200D01*
X582972Y446202D01*
X582974Y446204D01*
X582962Y446360D01*
X582958Y446364D01*
X582961Y446368D01*
X582924Y446521D01*
X582919Y446524D01*
X582922Y446528D01*
X582862Y446673D01*
X582856Y446676D01*
X582858Y446680D01*
X582776Y446814D01*
X582771Y446816D01*
X582771Y446820D01*
X582669Y446939D01*
X582664Y446940D01*
X582664Y446944D01*
X582545Y447046D01*
X582539Y447047D01*
X582539Y447051D01*
X582405Y447133D01*
X582399Y447132D01*
X582398Y447137D01*
X582253Y447197D01*
X582247Y447195D01*
X582246Y447199D01*
X582093Y447236D01*
X582087Y447234D01*
X582085Y447237D01*
X581929Y447249D01*
X581926Y447247D01*
X581925Y447249D01*
X579969Y447237D01*
X579964Y447234D01*
X579960Y447234D01*
X579957Y447236D01*
X579804Y447199D01*
X579801Y447194D01*
X579797Y447197D01*
X579652Y447137D01*
X579649Y447131D01*
X579645Y447133D01*
X579511Y447051D01*
X579509Y447046D01*
X579505Y447046D01*
X579386Y446944D01*
X579385Y446939D01*
X579381Y446939D01*
X579279Y446820D01*
X579278Y446814D01*
X579274Y446814D01*
X579192Y446680D01*
X579193Y446674D01*
X579189Y446673D01*
X579129Y446528D01*
X579130Y446522D01*
X579126Y446521D01*
X579089Y446368D01*
X579091Y446362D01*
X579090Y446361D01*
X579088Y446360D01*
X579076Y446204D01*
X579078Y446201D01*
X579076Y446200D01*
X579076Y437300D01*
X579078Y437298D01*
X579076Y437296D01*
X579088Y437140D01*
X579092Y437136D01*
X579089Y437132D01*
X579126Y436979D01*
X579131Y436976D01*
X579129Y436972D01*
X579189Y436827D01*
X579194Y436824D01*
X579192Y436820D01*
X579274Y436686D01*
X579280Y436684D01*
X579279Y436680D01*
X579381Y436561D01*
X579386Y436560D01*
X579386Y436556D01*
X579505Y436454D01*
X579511Y436453D01*
X579511Y436449D01*
X579645Y436367D01*
X579651Y436368D01*
X579652Y436364D01*
X579797Y436304D01*
X579803Y436305D01*
X579804Y436301D01*
X579957Y436264D01*
X579963Y436267D01*
X579965Y436263D01*
X580121Y436251D01*
X580124Y436253D01*
X580125Y436251D01*
X582081Y436263D01*
G37*
G36*
X588581Y397313D02*
X588581Y397313D01*
X588588Y397318D01*
X588593Y397314D01*
X588746Y397351D01*
X588749Y397356D01*
X588753Y397354D01*
X588898Y397414D01*
X588901Y397419D01*
X588905Y397417D01*
X589039Y397499D01*
X589041Y397505D01*
X589045Y397504D01*
X589164Y397606D01*
X589165Y397611D01*
X589169Y397611D01*
X589271Y397730D01*
X589272Y397736D01*
X589276Y397736D01*
X589358Y397870D01*
X589357Y397876D01*
X589358Y397876D01*
X589362Y397877D01*
X589422Y398022D01*
X589421Y398025D01*
X589423Y398026D01*
X589421Y398028D01*
X589424Y398029D01*
X589461Y398182D01*
X589459Y398188D01*
X589462Y398190D01*
X589474Y398346D01*
X589473Y398349D01*
X589474Y398350D01*
X589474Y407250D01*
X589472Y407252D01*
X589474Y407254D01*
X589462Y407410D01*
X589458Y407414D01*
X589461Y407418D01*
X589424Y407571D01*
X589419Y407574D01*
X589422Y407578D01*
X589362Y407723D01*
X589356Y407726D01*
X589358Y407730D01*
X589276Y407864D01*
X589271Y407866D01*
X589271Y407870D01*
X589169Y407989D01*
X589164Y407990D01*
X589164Y407994D01*
X589045Y408096D01*
X589039Y408097D01*
X589039Y408101D01*
X588905Y408183D01*
X588899Y408182D01*
X588898Y408187D01*
X588753Y408247D01*
X588747Y408245D01*
X588746Y408249D01*
X588593Y408286D01*
X588587Y408284D01*
X588585Y408287D01*
X588429Y408299D01*
X588426Y408297D01*
X588425Y408299D01*
X586469Y408287D01*
X586464Y408284D01*
X586460Y408284D01*
X586457Y408286D01*
X586304Y408249D01*
X586301Y408244D01*
X586297Y408247D01*
X586152Y408187D01*
X586149Y408181D01*
X586145Y408183D01*
X586011Y408101D01*
X586009Y408096D01*
X586005Y408096D01*
X585886Y407994D01*
X585885Y407989D01*
X585881Y407989D01*
X585779Y407870D01*
X585778Y407864D01*
X585774Y407864D01*
X585692Y407730D01*
X585693Y407724D01*
X585689Y407723D01*
X585629Y407578D01*
X585630Y407572D01*
X585626Y407571D01*
X585589Y407418D01*
X585591Y407412D01*
X585590Y407411D01*
X585588Y407410D01*
X585576Y407254D01*
X585578Y407251D01*
X585576Y407250D01*
X585576Y398350D01*
X585578Y398348D01*
X585576Y398346D01*
X585588Y398190D01*
X585592Y398186D01*
X585589Y398182D01*
X585626Y398029D01*
X585631Y398026D01*
X585629Y398022D01*
X585689Y397877D01*
X585694Y397874D01*
X585692Y397870D01*
X585774Y397736D01*
X585780Y397734D01*
X585779Y397730D01*
X585881Y397611D01*
X585886Y397610D01*
X585886Y397606D01*
X586005Y397504D01*
X586011Y397503D01*
X586011Y397499D01*
X586145Y397417D01*
X586151Y397418D01*
X586152Y397414D01*
X586297Y397354D01*
X586303Y397355D01*
X586304Y397351D01*
X586457Y397314D01*
X586463Y397317D01*
X586465Y397313D01*
X586621Y397301D01*
X586624Y397303D01*
X586625Y397301D01*
X588581Y397313D01*
G37*
G36*
X575581Y397313D02*
X575581Y397313D01*
X575588Y397318D01*
X575593Y397314D01*
X575746Y397351D01*
X575749Y397356D01*
X575753Y397354D01*
X575898Y397414D01*
X575901Y397419D01*
X575905Y397417D01*
X576039Y397499D01*
X576041Y397505D01*
X576045Y397504D01*
X576164Y397606D01*
X576165Y397611D01*
X576169Y397611D01*
X576271Y397730D01*
X576272Y397736D01*
X576276Y397736D01*
X576358Y397870D01*
X576357Y397876D01*
X576358Y397876D01*
X576362Y397877D01*
X576422Y398022D01*
X576421Y398025D01*
X576423Y398026D01*
X576421Y398028D01*
X576424Y398029D01*
X576461Y398182D01*
X576459Y398188D01*
X576462Y398190D01*
X576474Y398346D01*
X576473Y398349D01*
X576474Y398350D01*
X576474Y407250D01*
X576472Y407252D01*
X576474Y407254D01*
X576462Y407410D01*
X576458Y407414D01*
X576461Y407418D01*
X576424Y407571D01*
X576419Y407574D01*
X576422Y407578D01*
X576362Y407723D01*
X576356Y407726D01*
X576358Y407730D01*
X576276Y407864D01*
X576271Y407866D01*
X576271Y407870D01*
X576169Y407989D01*
X576164Y407990D01*
X576164Y407994D01*
X576045Y408096D01*
X576039Y408097D01*
X576039Y408101D01*
X575905Y408183D01*
X575899Y408182D01*
X575898Y408187D01*
X575753Y408247D01*
X575747Y408245D01*
X575746Y408249D01*
X575593Y408286D01*
X575587Y408284D01*
X575585Y408287D01*
X575429Y408299D01*
X575426Y408297D01*
X575425Y408299D01*
X573469Y408287D01*
X573464Y408284D01*
X573460Y408284D01*
X573457Y408286D01*
X573304Y408249D01*
X573301Y408244D01*
X573297Y408247D01*
X573152Y408187D01*
X573149Y408181D01*
X573145Y408183D01*
X573011Y408101D01*
X573009Y408096D01*
X573005Y408096D01*
X572886Y407994D01*
X572885Y407989D01*
X572881Y407989D01*
X572779Y407870D01*
X572778Y407864D01*
X572774Y407864D01*
X572692Y407730D01*
X572693Y407724D01*
X572689Y407723D01*
X572629Y407578D01*
X572630Y407572D01*
X572626Y407571D01*
X572589Y407418D01*
X572591Y407412D01*
X572590Y407411D01*
X572588Y407410D01*
X572576Y407254D01*
X572578Y407251D01*
X572576Y407250D01*
X572576Y398350D01*
X572578Y398348D01*
X572576Y398346D01*
X572588Y398190D01*
X572592Y398186D01*
X572589Y398182D01*
X572626Y398029D01*
X572631Y398026D01*
X572629Y398022D01*
X572689Y397877D01*
X572694Y397874D01*
X572692Y397870D01*
X572774Y397736D01*
X572780Y397734D01*
X572779Y397730D01*
X572881Y397611D01*
X572886Y397610D01*
X572886Y397606D01*
X573005Y397504D01*
X573011Y397503D01*
X573011Y397499D01*
X573145Y397417D01*
X573151Y397418D01*
X573152Y397414D01*
X573297Y397354D01*
X573303Y397355D01*
X573304Y397351D01*
X573457Y397314D01*
X573463Y397317D01*
X573465Y397313D01*
X573621Y397301D01*
X573624Y397303D01*
X573625Y397301D01*
X575581Y397313D01*
G37*
G36*
X575581Y379113D02*
X575581Y379113D01*
X575588Y379118D01*
X575593Y379114D01*
X575746Y379151D01*
X575749Y379156D01*
X575753Y379154D01*
X575898Y379214D01*
X575901Y379219D01*
X575905Y379217D01*
X576039Y379299D01*
X576041Y379305D01*
X576045Y379304D01*
X576164Y379406D01*
X576165Y379411D01*
X576169Y379411D01*
X576271Y379530D01*
X576272Y379536D01*
X576276Y379536D01*
X576358Y379670D01*
X576357Y379676D01*
X576358Y379676D01*
X576362Y379677D01*
X576422Y379822D01*
X576421Y379825D01*
X576423Y379826D01*
X576421Y379828D01*
X576424Y379829D01*
X576461Y379982D01*
X576459Y379988D01*
X576462Y379990D01*
X576474Y380146D01*
X576473Y380149D01*
X576474Y380150D01*
X576474Y389050D01*
X576472Y389052D01*
X576474Y389054D01*
X576462Y389210D01*
X576458Y389214D01*
X576461Y389218D01*
X576424Y389371D01*
X576419Y389374D01*
X576422Y389378D01*
X576362Y389523D01*
X576356Y389526D01*
X576358Y389530D01*
X576276Y389664D01*
X576271Y389666D01*
X576271Y389670D01*
X576169Y389789D01*
X576164Y389790D01*
X576164Y389794D01*
X576045Y389896D01*
X576039Y389897D01*
X576039Y389901D01*
X575905Y389983D01*
X575899Y389982D01*
X575898Y389987D01*
X575753Y390047D01*
X575747Y390045D01*
X575746Y390049D01*
X575593Y390086D01*
X575587Y390084D01*
X575585Y390087D01*
X575429Y390099D01*
X575426Y390097D01*
X575425Y390099D01*
X573469Y390087D01*
X573464Y390084D01*
X573460Y390084D01*
X573457Y390086D01*
X573304Y390049D01*
X573301Y390044D01*
X573297Y390047D01*
X573152Y389987D01*
X573149Y389981D01*
X573145Y389983D01*
X573011Y389901D01*
X573009Y389896D01*
X573005Y389896D01*
X572886Y389794D01*
X572885Y389789D01*
X572881Y389789D01*
X572779Y389670D01*
X572778Y389664D01*
X572774Y389664D01*
X572692Y389530D01*
X572693Y389524D01*
X572689Y389523D01*
X572629Y389378D01*
X572630Y389372D01*
X572626Y389371D01*
X572589Y389218D01*
X572591Y389212D01*
X572590Y389211D01*
X572588Y389210D01*
X572576Y389054D01*
X572578Y389051D01*
X572576Y389050D01*
X572576Y380150D01*
X572578Y380148D01*
X572576Y380146D01*
X572588Y379990D01*
X572592Y379986D01*
X572589Y379982D01*
X572626Y379829D01*
X572631Y379826D01*
X572629Y379822D01*
X572689Y379677D01*
X572694Y379674D01*
X572692Y379670D01*
X572774Y379536D01*
X572780Y379534D01*
X572779Y379530D01*
X572881Y379411D01*
X572886Y379410D01*
X572886Y379406D01*
X573005Y379304D01*
X573011Y379303D01*
X573011Y379299D01*
X573145Y379217D01*
X573151Y379218D01*
X573152Y379214D01*
X573297Y379154D01*
X573303Y379155D01*
X573304Y379151D01*
X573457Y379114D01*
X573463Y379117D01*
X573465Y379113D01*
X573621Y379101D01*
X573624Y379103D01*
X573625Y379101D01*
X575581Y379113D01*
G37*
G36*
X588581Y379113D02*
X588581Y379113D01*
X588588Y379118D01*
X588593Y379114D01*
X588746Y379151D01*
X588749Y379156D01*
X588753Y379154D01*
X588898Y379214D01*
X588901Y379219D01*
X588905Y379217D01*
X589039Y379299D01*
X589041Y379305D01*
X589045Y379304D01*
X589164Y379406D01*
X589165Y379411D01*
X589169Y379411D01*
X589271Y379530D01*
X589272Y379536D01*
X589276Y379536D01*
X589358Y379670D01*
X589357Y379676D01*
X589358Y379676D01*
X589362Y379677D01*
X589422Y379822D01*
X589421Y379825D01*
X589423Y379826D01*
X589421Y379828D01*
X589424Y379829D01*
X589461Y379982D01*
X589459Y379988D01*
X589462Y379990D01*
X589474Y380146D01*
X589473Y380149D01*
X589474Y380150D01*
X589474Y389050D01*
X589472Y389052D01*
X589474Y389054D01*
X589462Y389210D01*
X589458Y389214D01*
X589461Y389218D01*
X589424Y389371D01*
X589419Y389374D01*
X589422Y389378D01*
X589362Y389523D01*
X589356Y389526D01*
X589358Y389530D01*
X589276Y389664D01*
X589271Y389666D01*
X589271Y389670D01*
X589169Y389789D01*
X589164Y389790D01*
X589164Y389794D01*
X589045Y389896D01*
X589039Y389897D01*
X589039Y389901D01*
X588905Y389983D01*
X588899Y389982D01*
X588898Y389987D01*
X588753Y390047D01*
X588747Y390045D01*
X588746Y390049D01*
X588593Y390086D01*
X588587Y390084D01*
X588585Y390087D01*
X588429Y390099D01*
X588426Y390097D01*
X588425Y390099D01*
X586469Y390087D01*
X586464Y390084D01*
X586460Y390084D01*
X586457Y390086D01*
X586304Y390049D01*
X586301Y390044D01*
X586297Y390047D01*
X586152Y389987D01*
X586149Y389981D01*
X586145Y389983D01*
X586011Y389901D01*
X586009Y389896D01*
X586005Y389896D01*
X585886Y389794D01*
X585885Y389789D01*
X585881Y389789D01*
X585779Y389670D01*
X585778Y389664D01*
X585774Y389664D01*
X585692Y389530D01*
X585693Y389524D01*
X585689Y389523D01*
X585629Y389378D01*
X585630Y389372D01*
X585626Y389371D01*
X585589Y389218D01*
X585591Y389212D01*
X585590Y389211D01*
X585588Y389210D01*
X585576Y389054D01*
X585578Y389051D01*
X585576Y389050D01*
X585576Y380150D01*
X585578Y380148D01*
X585576Y380146D01*
X585588Y379990D01*
X585592Y379986D01*
X585589Y379982D01*
X585626Y379829D01*
X585631Y379826D01*
X585629Y379822D01*
X585689Y379677D01*
X585694Y379674D01*
X585692Y379670D01*
X585774Y379536D01*
X585780Y379534D01*
X585779Y379530D01*
X585881Y379411D01*
X585886Y379410D01*
X585886Y379406D01*
X586005Y379304D01*
X586011Y379303D01*
X586011Y379299D01*
X586145Y379217D01*
X586151Y379218D01*
X586152Y379214D01*
X586297Y379154D01*
X586303Y379155D01*
X586304Y379151D01*
X586457Y379114D01*
X586463Y379117D01*
X586465Y379113D01*
X586621Y379101D01*
X586624Y379103D01*
X586625Y379101D01*
X588581Y379113D01*
G37*
G36*
X582081Y379113D02*
X582081Y379113D01*
X582088Y379118D01*
X582093Y379114D01*
X582246Y379151D01*
X582249Y379156D01*
X582253Y379154D01*
X582398Y379214D01*
X582401Y379219D01*
X582405Y379217D01*
X582539Y379299D01*
X582541Y379305D01*
X582545Y379304D01*
X582664Y379406D01*
X582665Y379411D01*
X582669Y379411D01*
X582771Y379530D01*
X582772Y379536D01*
X582776Y379536D01*
X582858Y379670D01*
X582857Y379676D01*
X582858Y379676D01*
X582862Y379677D01*
X582922Y379822D01*
X582921Y379825D01*
X582923Y379826D01*
X582921Y379828D01*
X582924Y379829D01*
X582961Y379982D01*
X582959Y379988D01*
X582962Y379990D01*
X582974Y380146D01*
X582973Y380149D01*
X582974Y380150D01*
X582974Y389050D01*
X582972Y389052D01*
X582974Y389054D01*
X582962Y389210D01*
X582958Y389214D01*
X582961Y389218D01*
X582924Y389371D01*
X582919Y389374D01*
X582922Y389378D01*
X582862Y389523D01*
X582856Y389526D01*
X582858Y389530D01*
X582776Y389664D01*
X582771Y389666D01*
X582771Y389670D01*
X582669Y389789D01*
X582664Y389790D01*
X582664Y389794D01*
X582545Y389896D01*
X582539Y389897D01*
X582539Y389901D01*
X582405Y389983D01*
X582399Y389982D01*
X582398Y389987D01*
X582253Y390047D01*
X582247Y390045D01*
X582246Y390049D01*
X582093Y390086D01*
X582087Y390084D01*
X582085Y390087D01*
X581929Y390099D01*
X581926Y390097D01*
X581925Y390099D01*
X579969Y390087D01*
X579964Y390084D01*
X579960Y390084D01*
X579957Y390086D01*
X579804Y390049D01*
X579801Y390044D01*
X579797Y390047D01*
X579652Y389987D01*
X579649Y389981D01*
X579645Y389983D01*
X579511Y389901D01*
X579509Y389896D01*
X579505Y389896D01*
X579386Y389794D01*
X579385Y389789D01*
X579381Y389789D01*
X579279Y389670D01*
X579278Y389664D01*
X579274Y389664D01*
X579192Y389530D01*
X579193Y389524D01*
X579189Y389523D01*
X579129Y389378D01*
X579130Y389372D01*
X579126Y389371D01*
X579089Y389218D01*
X579091Y389212D01*
X579090Y389211D01*
X579088Y389210D01*
X579076Y389054D01*
X579078Y389051D01*
X579076Y389050D01*
X579076Y380150D01*
X579078Y380148D01*
X579076Y380146D01*
X579088Y379990D01*
X579092Y379986D01*
X579089Y379982D01*
X579126Y379829D01*
X579131Y379826D01*
X579129Y379822D01*
X579189Y379677D01*
X579194Y379674D01*
X579192Y379670D01*
X579274Y379536D01*
X579280Y379534D01*
X579279Y379530D01*
X579381Y379411D01*
X579386Y379410D01*
X579386Y379406D01*
X579505Y379304D01*
X579511Y379303D01*
X579511Y379299D01*
X579645Y379217D01*
X579651Y379218D01*
X579652Y379214D01*
X579797Y379154D01*
X579803Y379155D01*
X579804Y379151D01*
X579957Y379114D01*
X579963Y379117D01*
X579965Y379113D01*
X580121Y379101D01*
X580124Y379103D01*
X580125Y379101D01*
X582081Y379113D01*
G37*
D10*
X455828Y670000D03*
X455828Y240000D03*
D11*
X555625Y553800D03*
X555625Y563800D03*
D12*
X606425Y565300D03*
X606425Y552300D03*
D13*
X672973Y476250D03*
X672973Y469900D03*
X672973Y463550D03*
X672973Y457200D03*
X672973Y450850D03*
X672973Y444500D03*
X672973Y438150D03*
X672973Y431800D03*
X724027Y431800D03*
X724027Y438150D03*
X724027Y444500D03*
X724027Y450850D03*
X724027Y457200D03*
X724027Y463550D03*
X724027Y469900D03*
X724027Y476250D03*
D12*
X657225Y419250D03*
X657225Y406250D03*
X669925Y419250D03*
X669925Y406250D03*
X657225Y488800D03*
X657225Y501800D03*
X669925Y488800D03*
X669925Y501800D03*
X727075Y419250D03*
X727075Y406250D03*
X739775Y419250D03*
X739775Y406250D03*
D14*
X635000Y488950D03*
D12*
X641350Y419250D03*
X641350Y406250D03*
D15*
X542925Y517500D03*
X542925Y498500D03*
D12*
X561975Y514500D03*
X561975Y501500D03*
X523875Y514500D03*
X523875Y501500D03*
X511175Y501500D03*
X511175Y514500D03*
D14*
X635000Y473075D03*
D12*
X600075Y501500D03*
X600075Y514500D03*
X612775Y501500D03*
X612775Y514500D03*
D15*
X542925Y460350D03*
X542925Y441350D03*
D12*
X561975Y457350D03*
X561975Y444350D03*
X523875Y457350D03*
X523875Y444350D03*
X511175Y444350D03*
X511175Y457350D03*
D14*
X635000Y457200D03*
D12*
X600075Y444350D03*
X600075Y457350D03*
D15*
X542925Y403200D03*
X542925Y384200D03*
D12*
X561975Y400200D03*
X561975Y387200D03*
X523875Y400200D03*
X523875Y387200D03*
X511175Y387200D03*
X511175Y400200D03*
D14*
X635000Y441325D03*
D12*
X600075Y387200D03*
X600075Y400200D03*
X612775Y444350D03*
X612775Y457350D03*
X612775Y387200D03*
X612775Y400200D03*
X628650Y419250D03*
X628650Y406250D03*
D16*
X479425Y377825D03*
D17*
X479425Y403225D03*
D16*
X479425Y434975D03*
D17*
X479425Y460375D03*
D16*
X479425Y492125D03*
D17*
X479425Y517525D03*
D15*
X635000Y527025D03*
X635000Y508025D03*
D14*
X765175Y454025D03*
D18*
X323350Y504977D03*
X229600Y450850D03*
X323350Y396723D03*
D19*
X244300Y368058D03*
X244300Y533642D03*
X387700Y450850D03*
D20*
X809625Y517525D03*
D21*
X809625Y492125D03*
X809625Y466725D03*
X809625Y441325D03*
X809625Y415925D03*
X809625Y390525D03*
D22*
X147500Y762450D03*
X147500Y147500D03*
X762450Y147500D03*
X762450Y762450D03*
D14*
X749300Y254000D03*
D23*
X555625Y578106D03*
X581025Y536657D03*
X574675Y578656D03*
X606425Y536575D03*
X738350Y444500D03*
X658650Y444500D03*
X669925Y396444D03*
X657225Y396444D03*
X657225Y511606D03*
X669925Y511606D03*
X542925Y485344D03*
X561975Y491694D03*
X581025Y488144D03*
X523875Y524306D03*
X542925Y428194D03*
X561975Y434544D03*
X581025Y430994D03*
X523875Y467156D03*
X542925Y371044D03*
X561975Y377394D03*
X581025Y373844D03*
X523875Y410006D03*
X641350Y396444D03*
X727075Y396444D03*
X739775Y396875D03*
X711200Y546100D03*
X812800Y546100D03*
X704850Y412750D03*
X781050Y403225D03*
X711200Y374650D03*
X812800Y374650D03*
X101600Y749300D03*
X152400Y647700D03*
X165100Y812800D03*
X342900Y812800D03*
X368300Y736600D03*
X546100Y736600D03*
X368300Y609600D03*
X508000Y571500D03*
X660400Y558800D03*
X787400Y635000D03*
X812800Y749300D03*
X749300Y812800D03*
X647700Y342900D03*
X787400Y292100D03*
X558800Y177800D03*
X647700Y152400D03*
X749300Y88900D03*
X812800Y165100D03*
X457200Y101600D03*
X355600Y279400D03*
X292100Y152400D03*
X152400Y88900D03*
X88900Y165100D03*
X152400Y292100D03*
X285750Y342900D03*
X203200Y387350D03*
X114300Y444500D03*
X203200Y514350D03*
X292100Y450850D03*
X393700Y406400D03*
X393700Y495300D03*
X279400Y558800D03*
X501650Y527050D03*
X501650Y469900D03*
X501650Y412750D03*
X603250Y425450D03*
X603250Y476250D03*
X520700Y368300D03*
X657225Y431800D03*
X708025Y438150D03*
M02*
