M48
;GenerationSoftware,Autodesk,EAGLE,9.6.2*%
;CreationDate,2021-02-14T15:56:21Z*%
FMAT,2
ICI,OFF
METRIC,TZ,000.000
T8C0.350
T7C0.510
T6C1.016
T5C1.200
T4C3.150
T3C3.200
T2C8.000
T1C14.500
%
G90
M71
T1
X45583Y67000
X45583Y24000
T2
X32335Y50498
X22960Y45085
X32335Y39672
T3
X24430Y53364
X24430Y36806
X38770Y45085
T4
X14750Y76245
X14750Y14750
X76245Y14750
X76245Y76245
T5
X47942Y37783
X47942Y40323
X47942Y43498
X47942Y46037
X47942Y49212
X47942Y51752
T6
X80963Y51752
X80963Y49212
X80963Y46672
X80963Y44132
X80963Y41593
X80963Y39053
T7
X63500Y48895
X63500Y47307
X63500Y45720
X63500Y44132
X76518Y45402
X74930Y25400
T8
X81280Y37465
X10160Y74930
X15240Y64770
X16510Y81280
X34290Y81280
X36830Y73660
X54610Y73660
X36830Y60960
X50800Y57150
X66040Y55880
X78740Y63500
X81280Y74930
X74930Y81280
X64770Y34290
X78740Y29210
X55880Y17780
X64770Y15240
X74930Y8890
X81280Y16510
X45720Y10160
X58102Y48814
X29210Y15240
X15240Y8890
X8890Y16510
X15240Y29210
X28575Y34290
X20320Y38735
X11430Y44450
X20320Y51435
X29210Y45085
X39370Y40640
X39370Y49530
X27940Y55880
X50165Y52705
X50165Y46990
X50165Y41275
X60325Y42545
X60325Y47625
X52070Y36830
X65723Y43180
X70803Y43815
X55562Y57811
X58102Y53666
X57467Y57866
X60642Y53657
X73835Y44450
X65865Y44450
X66993Y39644
X65723Y39644
X65723Y51161
X66993Y51161
X54292Y48534
X56197Y49169
X52387Y52431
X54292Y42819
X56197Y43454
X58102Y43099
X52387Y46716
X35560Y27940
X54292Y37104
X56197Y37739
X58102Y37384
X52387Y41001
X64135Y39644
X72708Y39644
X73978Y39688
X71120Y54610
X81280Y54610
X70485Y41275
X78105Y40323
X71120Y37465
M30